G04*
G04 #@! TF.GenerationSoftware,Altium Limited,Altium Designer,25.8.1 (18)*
G04*
G04 Layer_Color=16711935*
%FSLAX44Y44*%
%MOMM*%
G71*
G04*
G04 #@! TF.SameCoordinates,66732C46-9AE8-4601-A16A-CBFB6A477545*
G04*
G04*
G04 #@! TF.FilePolarity,Negative*
G04*
G01*
G75*
%ADD54C,0.4000*%
%ADD55R,1.1500X1.1500*%
%ADD56C,1.1500*%
%ADD57R,2.5000X5.7000*%
%ADD58R,5.7000X2.9000*%
%ADD59R,1.7280X1.7280*%
%ADD60C,1.7280*%
%ADD61C,0.1000*%
%ADD62R,1.1500X1.1500*%
%ADD63C,1.4986*%
%ADD64C,3.0000*%
D54*
X501500Y413650D02*
D03*
Y418650D02*
D03*
Y423650D02*
D03*
X468500Y413650D02*
D03*
Y418650D02*
D03*
Y423650D02*
D03*
X491500Y413650D02*
D03*
Y418650D02*
D03*
Y423650D02*
D03*
X478500Y413650D02*
D03*
Y418650D02*
D03*
Y423650D02*
D03*
D55*
X44000Y385300D02*
D03*
Y185300D02*
D03*
Y285300D02*
D03*
D56*
Y410700D02*
D03*
X31300Y398000D02*
D03*
Y198000D02*
D03*
X44000Y210700D02*
D03*
Y310700D02*
D03*
X31300Y298000D02*
D03*
X94300Y44000D02*
D03*
X107000Y31300D02*
D03*
X194300Y44000D02*
D03*
X207000Y31300D02*
D03*
X294300Y44000D02*
D03*
X307000Y31300D02*
D03*
X394300Y44000D02*
D03*
X407000Y31300D02*
D03*
X507000D02*
D03*
X494300Y44000D02*
D03*
D57*
X546000Y375000D02*
D03*
D58*
X596000Y410000D02*
D03*
Y340000D02*
D03*
D59*
X83700Y512300D02*
D03*
D60*
X109100D02*
D03*
X134500D02*
D03*
X159900D02*
D03*
X185300D02*
D03*
X210700D02*
D03*
X83700Y537700D02*
D03*
X109100D02*
D03*
X134500D02*
D03*
X159900D02*
D03*
X185300D02*
D03*
X210700D02*
D03*
X236100Y512300D02*
D03*
Y537700D02*
D03*
X261500Y512300D02*
D03*
X286900D02*
D03*
X312300D02*
D03*
X337700D02*
D03*
X363100D02*
D03*
X388500D02*
D03*
X261500Y537700D02*
D03*
X286900D02*
D03*
X312300D02*
D03*
X337700D02*
D03*
X363100D02*
D03*
X388500D02*
D03*
X413900Y512300D02*
D03*
Y537700D02*
D03*
X439300Y512300D02*
D03*
X464700D02*
D03*
X490100D02*
D03*
X515500D02*
D03*
X540900D02*
D03*
X566300D02*
D03*
X439300Y537700D02*
D03*
X464700D02*
D03*
X490100D02*
D03*
X515500D02*
D03*
X540900D02*
D03*
X566300D02*
D03*
D61*
X563080Y229650D02*
D03*
Y242350D02*
D03*
X552920D02*
D03*
Y229650D02*
D03*
X558000Y236000D02*
D03*
D62*
X119700Y44000D02*
D03*
X219700D02*
D03*
X319700D02*
D03*
X419700D02*
D03*
X519700D02*
D03*
D63*
X430000Y375000D02*
D03*
Y349600D02*
D03*
Y298800D02*
D03*
Y248000D02*
D03*
D64*
X35000Y35000D02*
D03*
X615000D02*
D03*
X35000Y525000D02*
D03*
X615000D02*
D03*
M02*
