%TF.GenerationSoftware,Altium Limited,Altium Designer,25.8.1 (18)*%
G04 Layer_Color=8388736*
%FSLAX45Y45*%
%MOMM*%
%TF.SameCoordinates,1DD8770F-E8FB-401A-A495-0FBD85E38FE1*%
%TF.FilePolarity,Negative*%
%TF.FileFunction,Soldermask,Top*%
%TF.Part,Single*%
G01*
G75*
%TA.AperFunction,SMDPad,CuDef*%
%ADD22R,0.25400X0.30480*%
%ADD23R,0.30480X0.25400*%
%ADD24R,0.30480X0.99060*%
%ADD25R,0.20320X0.99060*%
%ADD29R,0.99060X0.30480*%
%ADD30R,0.99060X0.20320*%
%ADD35R,0.85090X2.69240*%
%ADD36R,1.33350X0.43180*%
%ADD37R,1.85420X2.15900*%
%TA.AperFunction,ComponentPad*%
%ADD54C,1.49860*%
%TA.AperFunction,WasherPad*%
%ADD55C,3.00000*%
%TA.AperFunction,SMDPad,SMDef*%
%ADD80C,0.03439*%
%ADD81C,0.02620*%
%TA.AperFunction,SMDPad,CuDef*%
%ADD82R,1.25000X0.70000*%
%ADD83R,0.53500X1.62800*%
%ADD84R,0.75000X1.62500*%
%ADD85R,0.85000X0.70000*%
%ADD86R,0.85000X1.05000*%
%ADD87R,0.70000X0.85000*%
%ADD88R,1.52500X0.40000*%
%ADD89R,0.40000X0.90000*%
%ADD90R,0.90000X0.40000*%
%ADD91R,1.85000X1.85000*%
%ADD92R,1.32000X1.22000*%
%ADD93R,1.05000X0.85000*%
%TA.AperFunction,ComponentPad*%
%ADD94C,0.40000*%
%ADD95R,1.15000X1.15000*%
%ADD96C,1.15000*%
%ADD97R,2.50000X5.70000*%
%ADD98R,5.70000X2.90000*%
%ADD99R,1.72800X1.72800*%
%ADD100C,1.72800*%
%ADD101C,0.10000*%
%ADD102R,1.15000X1.15000*%
G36*
X4805000Y4292500D02*
Y4082500D01*
X4800000Y4077500D01*
X4710000Y4077500D01*
X4705000Y4082500D01*
Y4094000D01*
X4700000Y4099000D01*
X4670000Y4099000D01*
X4665000Y4104000D01*
X4665000Y4119000D01*
X4670000Y4124000D01*
X4700000Y4123999D01*
X4705000Y4129000D01*
Y4144000D01*
X4700000Y4149000D01*
X4670000D01*
X4665000Y4154000D01*
Y4169000D01*
X4670000Y4174000D01*
X4700000D01*
X4705000Y4179000D01*
Y4194000D01*
X4700000Y4199000D01*
X4670000Y4199000D01*
X4665000Y4204000D01*
Y4219000D01*
X4670000Y4224000D01*
X4700000D01*
X4705000Y4229000D01*
Y4244000D01*
X4700000Y4249000D01*
X4670000D01*
X4665000Y4254000D01*
Y4269000D01*
X4670000Y4274000D01*
X4700000D01*
X4705000Y4279000D01*
Y4292500D01*
X4710000Y4297500D01*
X4800000D01*
X4805000Y4292500D01*
D02*
G37*
G36*
X4995000D02*
Y4279000D01*
X5000000Y4274000D01*
X5030000D01*
X5035000Y4269000D01*
Y4254000D01*
X5030000Y4249000D01*
X5000000D01*
X4995000Y4244000D01*
Y4229000D01*
X5000000Y4224000D01*
X5030000D01*
X5035000Y4219000D01*
Y4204000D01*
X5030000Y4199000D01*
X5000000D01*
X4995000Y4194000D01*
Y4179000D01*
X5000000Y4174000D01*
X5030000D01*
X5035000Y4169000D01*
Y4154000D01*
X5030000Y4149000D01*
X5000000D01*
X4995000Y4144000D01*
Y4129000D01*
X5000000Y4124000D01*
X5030000Y4124000D01*
X5035000Y4119000D01*
X5035000Y4104000D01*
X5030000Y4099000D01*
X5000000Y4099000D01*
X4995000Y4094000D01*
Y4082500D01*
X4990000Y4077500D01*
X4900000Y4077500D01*
X4895000Y4082500D01*
Y4292500D01*
X4900000Y4297500D01*
X4990000D01*
X4995000Y4292500D01*
D02*
G37*
G36*
X4990000Y4042500D02*
X4995000Y4037500D01*
X5000000Y4032500D01*
X5030000D01*
X5035000Y4027500D01*
Y4012500D01*
X5030000Y4007500D01*
X5000000D01*
X4995000Y4002500D01*
Y3987500D01*
X5000000Y3982500D01*
X5030000D01*
X5035000Y3977500D01*
Y3962500D01*
X5030000Y3957500D01*
X5000000D01*
X4995000Y3952500D01*
Y3940000D01*
X4990000Y3935000D01*
X4942500D01*
X4937500Y3940000D01*
Y3970749D01*
X4937320Y3971180D01*
X4901300Y4007200D01*
Y4042500D01*
X4990000Y4042500D01*
D02*
G37*
G36*
X4798716Y4007200D02*
X4762696Y3971180D01*
X4762516Y3970749D01*
Y3940000D01*
X4757516Y3935000D01*
X4710016D01*
X4705016Y3940000D01*
Y3952500D01*
X4700016Y3957500D01*
X4670016D01*
X4665016Y3962500D01*
Y3977500D01*
X4670016Y3982500D01*
X4700016D01*
X4705016Y3987500D01*
Y4002500D01*
X4700016Y4007500D01*
X4670016D01*
X4665016Y4012500D01*
Y4027500D01*
X4670016Y4032500D01*
X4700016D01*
X4705016Y4037500D01*
X4710016Y4042500D01*
X4798716Y4042500D01*
Y4007200D01*
D02*
G37*
G36*
X4916000Y3955000D02*
Y3905000D01*
X4906000Y3895000D01*
X4894000D01*
X4884000Y3905000D01*
Y3955000D01*
X4889000Y3960000D01*
X4911000D01*
X4916000Y3955000D01*
D02*
G37*
G36*
X4866000D02*
Y3905000D01*
X4856000Y3895000D01*
X4844000D01*
X4834000Y3905000D01*
Y3955000D01*
X4839000Y3960000D01*
X4861000D01*
X4866000Y3955000D01*
D02*
G37*
G36*
X4816000D02*
Y3905000D01*
X4806000Y3895000D01*
X4794000D01*
X4784000Y3905000D01*
Y3955000D01*
X4789000Y3960000D01*
X4811000D01*
X4816000Y3955000D01*
D02*
G37*
D22*
X1010000Y2090000D02*
D03*
Y1830920D02*
D03*
X910000Y2090000D02*
D03*
X960000D02*
D03*
Y1830920D02*
D03*
X910000D02*
D03*
X1010000Y3090000D02*
D03*
Y2830920D02*
D03*
X910000Y3090000D02*
D03*
X960000D02*
D03*
Y2830920D02*
D03*
X910000D02*
D03*
X1010000Y4090000D02*
D03*
Y3830920D02*
D03*
X910000Y4090000D02*
D03*
X960000D02*
D03*
Y3830920D02*
D03*
X910000D02*
D03*
X2164540Y1040010D02*
D03*
X2114540Y879990D02*
D03*
X2014540Y1040010D02*
D03*
X2064540D02*
D03*
X2114540D02*
D03*
X2164540Y879990D02*
D03*
X2064540D02*
D03*
X2014540D02*
D03*
X3164540Y1040010D02*
D03*
X3114540Y879990D02*
D03*
X3014540Y1040010D02*
D03*
X3064540D02*
D03*
X3114540D02*
D03*
X3164540Y879990D02*
D03*
X3064540D02*
D03*
X3014540D02*
D03*
X5014540D02*
D03*
X5064540D02*
D03*
X5114540D02*
D03*
X5164540D02*
D03*
Y1040010D02*
D03*
X5114540D02*
D03*
X5064540D02*
D03*
X5014540D02*
D03*
X1014540Y879990D02*
D03*
X1064540D02*
D03*
X1164540D02*
D03*
X1114540Y1040010D02*
D03*
X1064540D02*
D03*
X1014540D02*
D03*
X4014540Y879990D02*
D03*
X4064540D02*
D03*
X4164540D02*
D03*
X4114540Y1040010D02*
D03*
X4064540D02*
D03*
X4014540D02*
D03*
X1114540Y879990D02*
D03*
X1164540Y1040010D02*
D03*
X4114540Y879990D02*
D03*
X4164540Y1040010D02*
D03*
D23*
X1040010Y1885460D02*
D03*
X879990Y1935460D02*
D03*
X1040010Y2035460D02*
D03*
Y1985460D02*
D03*
Y1935460D02*
D03*
X879990Y1885460D02*
D03*
Y1985460D02*
D03*
Y2035460D02*
D03*
X1040010Y2885460D02*
D03*
X879990Y2935460D02*
D03*
X1040010Y3035460D02*
D03*
Y2985460D02*
D03*
Y2935460D02*
D03*
X879990Y2885460D02*
D03*
Y2985460D02*
D03*
Y3035460D02*
D03*
X1040010Y3885460D02*
D03*
X879990Y3935460D02*
D03*
X1040010Y4035460D02*
D03*
Y3985460D02*
D03*
Y3935460D02*
D03*
X879990Y3885460D02*
D03*
Y3985460D02*
D03*
Y4035460D02*
D03*
X1960000Y1010000D02*
D03*
X2219080D02*
D03*
X1960000Y910000D02*
D03*
Y960000D02*
D03*
X2219080D02*
D03*
Y910000D02*
D03*
X2960000Y1010000D02*
D03*
X3219080D02*
D03*
X2960000Y910000D02*
D03*
Y960000D02*
D03*
X3219080D02*
D03*
Y910000D02*
D03*
X5219080D02*
D03*
Y960000D02*
D03*
Y1010000D02*
D03*
X4960000D02*
D03*
Y960000D02*
D03*
Y910000D02*
D03*
X1219080D02*
D03*
Y960000D02*
D03*
X960000D02*
D03*
Y910000D02*
D03*
X4219080D02*
D03*
Y960000D02*
D03*
X3960000D02*
D03*
Y910000D02*
D03*
X1219080Y1010000D02*
D03*
X960000D02*
D03*
X4219080D02*
D03*
X3960000D02*
D03*
D24*
X985000Y1960460D02*
D03*
Y2960460D02*
D03*
Y3960460D02*
D03*
D25*
X940000Y1960460D02*
D03*
Y2960460D02*
D03*
Y3960460D02*
D03*
D29*
X2089540Y985000D02*
D03*
X3089540D02*
D03*
X5089540D02*
D03*
X1089540D02*
D03*
X4089540D02*
D03*
D30*
X2089540Y940000D02*
D03*
X3089540D02*
D03*
X5089540D02*
D03*
X1089540D02*
D03*
X4089540D02*
D03*
D35*
X4887635Y2370000D02*
D03*
X4632365D02*
D03*
D36*
X5801615Y2262502D02*
D03*
Y2327501D02*
D03*
Y2392499D02*
D03*
Y2457498D02*
D03*
X5358385D02*
D03*
Y2392499D02*
D03*
Y2327501D02*
D03*
Y2262502D02*
D03*
D37*
X5580000Y2360000D02*
D03*
D54*
X4300000Y3750000D02*
D03*
Y3496000D02*
D03*
Y2988000D02*
D03*
Y2480000D02*
D03*
D55*
X350000Y350000D02*
D03*
X6150000D02*
D03*
X350000Y5250000D02*
D03*
X6150000D02*
D03*
D80*
X4981250Y3988750D02*
D03*
D81*
X4721859Y3992422D02*
D03*
D82*
X5415000Y1905000D02*
D03*
Y1810000D02*
D03*
Y1715000D02*
D03*
X5665000D02*
D03*
Y1905000D02*
D03*
D83*
X3292200Y4661100D02*
D03*
X3228800D02*
D03*
X3165200D02*
D03*
X3101800D02*
D03*
X3038200D02*
D03*
X2974800D02*
D03*
X2911200D02*
D03*
X2847800D02*
D03*
Y4118900D02*
D03*
X2911200D02*
D03*
X2974800D02*
D03*
X3038200D02*
D03*
X3101800D02*
D03*
X3165200D02*
D03*
X3228800D02*
D03*
X3292200D02*
D03*
D84*
X1900000Y4108300D02*
D03*
X2027000D02*
D03*
X2154000D02*
D03*
X2281000D02*
D03*
Y4650700D02*
D03*
X2154000D02*
D03*
X2027000D02*
D03*
X1900000D02*
D03*
D85*
X5415000Y1580000D02*
D03*
X5525000D02*
D03*
X5995000Y1940000D02*
D03*
X5885000D02*
D03*
X2675000Y3700000D02*
D03*
X2785000D02*
D03*
X960000Y2190000D02*
D03*
X850001D02*
D03*
X960001Y2270000D02*
D03*
X850001D02*
D03*
X855000Y3200000D02*
D03*
X965000D02*
D03*
Y3290000D02*
D03*
X855000D02*
D03*
X960000Y4190000D02*
D03*
X850000D02*
D03*
X960000Y4270000D02*
D03*
X850001D02*
D03*
X4875000Y3600000D02*
D03*
X4985000D02*
D03*
X4875000Y3700000D02*
D03*
X4985000D02*
D03*
X1685000Y3250000D02*
D03*
X1795000D02*
D03*
X1685000Y3360000D02*
D03*
X1795000D02*
D03*
X1685000Y3460000D02*
D03*
X1795000D02*
D03*
X1685000Y3570000D02*
D03*
X1795000D02*
D03*
X1685000Y2800000D02*
D03*
X1795000D02*
D03*
X1685000Y2920000D02*
D03*
X1795000D02*
D03*
X1685000Y3030000D02*
D03*
X1795000D02*
D03*
X1685000Y3140000D02*
D03*
X1795000D02*
D03*
X1064540Y1140000D02*
D03*
X954540D02*
D03*
X960000Y1250000D02*
D03*
X850000D02*
D03*
X3315000Y2920000D02*
D03*
X3205000D02*
D03*
X3315000Y2800000D02*
D03*
X3205000D02*
D03*
X3315000Y3140000D02*
D03*
X3205000D02*
D03*
X3315000Y3030000D02*
D03*
X3205000D02*
D03*
X2064540Y1140000D02*
D03*
X1954540D02*
D03*
X3064540D02*
D03*
X2954540D02*
D03*
X1960000Y1250000D02*
D03*
X1850000D02*
D03*
X2950000D02*
D03*
X2840000D02*
D03*
X3315000Y3360000D02*
D03*
X3205000D02*
D03*
X3315000Y3250000D02*
D03*
X3205000D02*
D03*
X4064540Y1140000D02*
D03*
X3954540D02*
D03*
X3960000Y1250000D02*
D03*
X3850000D02*
D03*
X4955000D02*
D03*
X4845000D02*
D03*
X5064540Y1140000D02*
D03*
X4954540D02*
D03*
X3315000Y3460000D02*
D03*
X3205000D02*
D03*
Y3570000D02*
D03*
X3315000D02*
D03*
X5280000Y4110000D02*
D03*
X5170000D02*
D03*
X4890000Y2140000D02*
D03*
X4780000D02*
D03*
Y2020000D02*
D03*
X4890000D02*
D03*
X6085000Y2220000D02*
D03*
X5975000D02*
D03*
X3115000D02*
D03*
X3225000D02*
D03*
X3225000Y2110000D02*
D03*
X3115000D02*
D03*
X3115000Y2330000D02*
D03*
X3225000D02*
D03*
X3515000Y4070000D02*
D03*
X3405000D02*
D03*
X3570000Y4570000D02*
D03*
X3680000D02*
D03*
X2785000Y3610000D02*
D03*
X2675000D02*
D03*
X1595000Y4650000D02*
D03*
X1705000D02*
D03*
X5975000Y2330000D02*
D03*
X6085000D02*
D03*
X3515000Y4170000D02*
D03*
X3405000D02*
D03*
X3570000Y4660000D02*
D03*
X3680000D02*
D03*
X1705000Y4530000D02*
D03*
X1595000D02*
D03*
X4495000Y3760000D02*
D03*
X4605000D02*
D03*
X1917500Y3947500D02*
D03*
X2027500D02*
D03*
X2271749Y3951251D02*
D03*
X2381749D02*
D03*
X1760000Y4820000D02*
D03*
X1870000D02*
D03*
Y4930000D02*
D03*
X1760000D02*
D03*
D86*
X962500Y2370000D02*
D03*
X837500D02*
D03*
X962500Y3390000D02*
D03*
X837500D02*
D03*
X962500Y4370000D02*
D03*
X837500D02*
D03*
X5170000Y4250000D02*
D03*
X5295000D02*
D03*
D87*
X1140000Y2095460D02*
D03*
Y1985460D02*
D03*
X1249541Y2205459D02*
D03*
Y2095460D02*
D03*
X1140000Y3095460D02*
D03*
Y2985460D02*
D03*
Y4095460D02*
D03*
Y3985460D02*
D03*
X1250000Y4210000D02*
D03*
Y4100000D02*
D03*
Y3210000D02*
D03*
Y3100000D02*
D03*
X2060000Y3775000D02*
D03*
Y3665000D02*
D03*
X2850000Y960000D02*
D03*
Y850000D02*
D03*
X5880000Y1825000D02*
D03*
Y1715000D02*
D03*
X5790000Y1605000D02*
D03*
Y1715000D02*
D03*
X3770000Y850000D02*
D03*
Y960000D02*
D03*
X860000Y850000D02*
D03*
Y960000D02*
D03*
X780000Y850001D02*
D03*
Y960000D02*
D03*
X1850000Y850000D02*
D03*
Y960000D02*
D03*
X1770000Y850001D02*
D03*
Y960000D02*
D03*
X2770000Y850001D02*
D03*
Y960000D02*
D03*
X3850000Y850000D02*
D03*
Y960000D02*
D03*
X4850000Y850000D02*
D03*
Y960000D02*
D03*
X4770000Y850001D02*
D03*
Y960000D02*
D03*
X3960000Y4055000D02*
D03*
Y4165000D02*
D03*
X4560000Y4175000D02*
D03*
Y4065000D02*
D03*
X4470000D02*
D03*
Y4175000D02*
D03*
X4750000Y2595000D02*
D03*
Y2705000D02*
D03*
X5360000Y2690000D02*
D03*
Y2580000D02*
D03*
X4620000Y2595000D02*
D03*
Y2705000D02*
D03*
X2855000Y2445000D02*
D03*
Y2555000D02*
D03*
X2950000D02*
D03*
Y2445000D02*
D03*
X1751375Y3948625D02*
D03*
Y4058625D02*
D03*
X1650000Y4060000D02*
D03*
Y3950000D02*
D03*
X4600000Y3510000D02*
D03*
Y3620000D02*
D03*
X2580000Y2555000D02*
D03*
Y2445000D02*
D03*
X3100000Y4825000D02*
D03*
Y4935000D02*
D03*
X2725000Y2445000D02*
D03*
Y2555000D02*
D03*
X3190000Y4935000D02*
D03*
Y4825000D02*
D03*
D88*
X2701200Y3525000D02*
D03*
Y3475000D02*
D03*
Y3425000D02*
D03*
Y3375000D02*
D03*
Y3325000D02*
D03*
Y3275000D02*
D03*
Y3225000D02*
D03*
Y3175000D02*
D03*
Y3125000D02*
D03*
Y3075000D02*
D03*
Y3025000D02*
D03*
Y2975000D02*
D03*
X2258800D02*
D03*
Y3025000D02*
D03*
Y3075000D02*
D03*
Y3125000D02*
D03*
Y3175000D02*
D03*
Y3225000D02*
D03*
Y3275000D02*
D03*
Y3325000D02*
D03*
Y3375000D02*
D03*
Y3425000D02*
D03*
Y3475000D02*
D03*
Y3525000D02*
D03*
D89*
X2735000Y1900000D02*
D03*
X2785000D02*
D03*
X2835000D02*
D03*
X2885000D02*
D03*
Y2200000D02*
D03*
X2835000D02*
D03*
X2785000D02*
D03*
X2735000D02*
D03*
D90*
X2960000Y1975000D02*
D03*
Y2025000D02*
D03*
Y2075000D02*
D03*
Y2125000D02*
D03*
X2660000D02*
D03*
Y2075000D02*
D03*
Y2025000D02*
D03*
Y1975000D02*
D03*
D91*
X2810000Y2050000D02*
D03*
D92*
X5199574Y3452500D02*
D03*
Y3762500D02*
D03*
D93*
X4080000Y4047500D02*
D03*
Y4172500D02*
D03*
X3670000Y960000D02*
D03*
Y835000D02*
D03*
X680000Y837500D02*
D03*
Y962500D02*
D03*
X1670000Y837500D02*
D03*
Y962500D02*
D03*
X2670000Y837500D02*
D03*
Y962500D02*
D03*
X4670000D02*
D03*
Y837500D02*
D03*
D94*
X5015000Y4136500D02*
D03*
Y4186500D02*
D03*
Y4236500D02*
D03*
X4685000Y4136500D02*
D03*
Y4186500D02*
D03*
Y4236500D02*
D03*
X4915000Y4136500D02*
D03*
Y4186500D02*
D03*
Y4236500D02*
D03*
X4785000Y4136500D02*
D03*
Y4186500D02*
D03*
Y4236500D02*
D03*
D95*
X440001Y3853000D02*
D03*
Y1853000D02*
D03*
Y2853000D02*
D03*
D96*
Y4107000D02*
D03*
X313001Y3980000D02*
D03*
Y1980000D02*
D03*
X440001Y2107000D02*
D03*
Y3107000D02*
D03*
X313001Y2980000D02*
D03*
X943000Y440000D02*
D03*
X1070000Y313000D02*
D03*
X1943000Y440000D02*
D03*
X2070000Y313000D02*
D03*
X2943000Y440000D02*
D03*
X3070000Y313000D02*
D03*
X3943000Y440000D02*
D03*
X4070000Y313000D02*
D03*
X5070000D02*
D03*
X4943000Y440000D02*
D03*
D97*
X5460000Y3750000D02*
D03*
D98*
X5960000Y4100000D02*
D03*
Y3400000D02*
D03*
D99*
X837000Y5123000D02*
D03*
D100*
X1091000D02*
D03*
X1345000D02*
D03*
X1599000D02*
D03*
X1853000D02*
D03*
X2107000D02*
D03*
X837000Y5377000D02*
D03*
X1091000D02*
D03*
X1345000D02*
D03*
X1599000D02*
D03*
X1853000D02*
D03*
X2107000D02*
D03*
X2361000Y5123000D02*
D03*
Y5377000D02*
D03*
X2615000Y5123000D02*
D03*
X2869000D02*
D03*
X3123000D02*
D03*
X3377000D02*
D03*
X3631000D02*
D03*
X3885000D02*
D03*
X2615000Y5377000D02*
D03*
X2869000D02*
D03*
X3123000D02*
D03*
X3377000D02*
D03*
X3631000D02*
D03*
X3885000D02*
D03*
X4139000Y5123000D02*
D03*
Y5377000D02*
D03*
X4393000Y5123000D02*
D03*
X4647000D02*
D03*
X4901000D02*
D03*
X5155000D02*
D03*
X5409000D02*
D03*
X5663000D02*
D03*
X4393000Y5377000D02*
D03*
X4647000D02*
D03*
X4901000D02*
D03*
X5155000D02*
D03*
X5409000D02*
D03*
X5663000D02*
D03*
D101*
X5630800Y2296500D02*
D03*
Y2423500D02*
D03*
X5529200D02*
D03*
Y2296500D02*
D03*
X5580000Y2360000D02*
D03*
D102*
X1197000Y440000D02*
D03*
X2197000D02*
D03*
X3197000D02*
D03*
X4197000D02*
D03*
X5197000D02*
D03*
%TF.MD5,0e037f552ea6a8fc63c69d1627e2b4f9*%
M02*
