G04*
G04 #@! TF.GenerationSoftware,Altium Limited,Altium Designer,25.8.1 (18)*
G04*
G04 Layer_Color=8388736*
%FSLAX44Y44*%
%MOMM*%
G71*
G04*
G04 #@! TF.SameCoordinates,66732C46-9AE8-4601-A16A-CBFB6A477545*
G04*
G04*
G04 #@! TF.FilePolarity,Negative*
G04*
G01*
G75*
%ADD23R,0.2540X0.3048*%
%ADD24R,0.3048X0.2540*%
%ADD25R,0.3048X0.9906*%
%ADD26R,0.2032X0.9906*%
%ADD30R,0.9906X0.3048*%
%ADD31R,0.9906X0.2032*%
%ADD36R,0.8509X2.6924*%
%ADD37R,1.3335X0.4318*%
%ADD38R,1.8542X2.1590*%
%ADD40C,0.0344*%
%ADD41C,0.0262*%
%ADD42R,1.2500X0.7000*%
%ADD43R,0.5350X1.6280*%
%ADD44R,0.7500X1.6250*%
%ADD45R,0.8500X0.7000*%
%ADD46R,0.8500X1.0500*%
%ADD47R,0.7000X0.8500*%
%ADD48R,1.5250X0.4000*%
%ADD49R,0.4000X0.9000*%
%ADD50R,0.9000X0.4000*%
%ADD51R,1.8500X1.8500*%
%ADD52R,1.3200X1.2200*%
%ADD53R,1.0500X0.8500*%
%ADD54C,0.4000*%
%ADD55R,1.1500X1.1500*%
%ADD56C,1.1500*%
%ADD57R,2.5000X5.7000*%
%ADD58R,5.7000X2.9000*%
%ADD59R,1.7280X1.7280*%
%ADD60C,1.7280*%
%ADD61C,0.1000*%
%ADD62R,1.1500X1.1500*%
%ADD63C,1.4986*%
%ADD64C,3.0000*%
G36*
X480500Y429250D02*
Y408250D01*
X480000Y407750D01*
X471000Y407750D01*
X470500Y408250D01*
Y409400D01*
X470000Y409900D01*
X467000Y409900D01*
X466500Y410400D01*
X466500Y411900D01*
X467000Y412400D01*
X470000Y412400D01*
X470500Y412900D01*
Y414400D01*
X470000Y414900D01*
X467000D01*
X466500Y415400D01*
Y416900D01*
X467000Y417400D01*
X470000D01*
X470500Y417900D01*
Y419400D01*
X470000Y419900D01*
X467000Y419900D01*
X466500Y420400D01*
Y421900D01*
X467000Y422400D01*
X470000D01*
X470500Y422900D01*
Y424400D01*
X470000Y424900D01*
X467000D01*
X466500Y425400D01*
Y426900D01*
X467000Y427400D01*
X470000D01*
X470500Y427900D01*
Y429250D01*
X471000Y429750D01*
X480000D01*
X480500Y429250D01*
D02*
G37*
G36*
X499500D02*
Y427900D01*
X500000Y427400D01*
X503000D01*
X503500Y426900D01*
Y425400D01*
X503000Y424900D01*
X500000D01*
X499500Y424400D01*
Y422900D01*
X500000Y422400D01*
X503000D01*
X503500Y421900D01*
Y420400D01*
X503000Y419900D01*
X500000D01*
X499500Y419400D01*
Y417900D01*
X500000Y417400D01*
X503000D01*
X503500Y416900D01*
Y415400D01*
X503000Y414900D01*
X500000D01*
X499500Y414400D01*
Y412900D01*
X500000Y412400D01*
X503000Y412400D01*
X503500Y411900D01*
X503500Y410400D01*
X503000Y409900D01*
X500000Y409900D01*
X499500Y409400D01*
Y408250D01*
X499000Y407750D01*
X490000Y407750D01*
X489500Y408250D01*
Y429250D01*
X490000Y429750D01*
X499000D01*
X499500Y429250D01*
D02*
G37*
G36*
X499000Y404250D02*
X499500Y403750D01*
X500000Y403250D01*
X503000D01*
X503500Y402750D01*
Y401250D01*
X503000Y400750D01*
X500000D01*
X499500Y400250D01*
Y398750D01*
X500000Y398250D01*
X503000D01*
X503500Y397750D01*
Y396250D01*
X503000Y395750D01*
X500000D01*
X499500Y395250D01*
Y394000D01*
X499000Y393500D01*
X494250D01*
X493750Y394000D01*
Y397075D01*
X493732Y397118D01*
X490130Y400720D01*
Y404250D01*
X499000Y404250D01*
D02*
G37*
G36*
X479872Y400720D02*
X476270Y397118D01*
X476252Y397075D01*
Y394000D01*
X475752Y393500D01*
X471002D01*
X470502Y394000D01*
Y395250D01*
X470002Y395750D01*
X467002D01*
X466502Y396250D01*
Y397750D01*
X467002Y398250D01*
X470002D01*
X470502Y398750D01*
Y400250D01*
X470002Y400750D01*
X467002D01*
X466502Y401250D01*
Y402750D01*
X467002Y403250D01*
X470002D01*
X470502Y403750D01*
X471002Y404250D01*
X479872Y404250D01*
Y400720D01*
D02*
G37*
G36*
X491600Y395500D02*
Y390500D01*
X490600Y389500D01*
X489400D01*
X488400Y390500D01*
Y395500D01*
X488900Y396000D01*
X491100D01*
X491600Y395500D01*
D02*
G37*
G36*
X486600D02*
Y390500D01*
X485600Y389500D01*
X484400D01*
X483400Y390500D01*
Y395500D01*
X483900Y396000D01*
X486100D01*
X486600Y395500D01*
D02*
G37*
G36*
X481600D02*
Y390500D01*
X480600Y389500D01*
X479400D01*
X478400Y390500D01*
Y395500D01*
X478900Y396000D01*
X481100D01*
X481600Y395500D01*
D02*
G37*
D23*
X101000Y209000D02*
D03*
Y183092D02*
D03*
X91000Y209000D02*
D03*
X96000D02*
D03*
Y183092D02*
D03*
X91000D02*
D03*
X101000Y309000D02*
D03*
Y283092D02*
D03*
X91000Y309000D02*
D03*
X96000D02*
D03*
Y283092D02*
D03*
X91000D02*
D03*
X101000Y409000D02*
D03*
Y383092D02*
D03*
X91000Y409000D02*
D03*
X96000D02*
D03*
Y383092D02*
D03*
X91000D02*
D03*
X216454Y104001D02*
D03*
X211454Y87999D02*
D03*
X201454Y104001D02*
D03*
X206454D02*
D03*
X211454D02*
D03*
X216454Y87999D02*
D03*
X206454D02*
D03*
X201454D02*
D03*
X316454Y104001D02*
D03*
X311454Y87999D02*
D03*
X301454Y104001D02*
D03*
X306454D02*
D03*
X311454D02*
D03*
X316454Y87999D02*
D03*
X306454D02*
D03*
X301454D02*
D03*
X501454D02*
D03*
X506454D02*
D03*
X511454D02*
D03*
X516454D02*
D03*
Y104001D02*
D03*
X511454D02*
D03*
X506454D02*
D03*
X501454D02*
D03*
X101454Y87999D02*
D03*
X106454D02*
D03*
X116454D02*
D03*
X111454Y104001D02*
D03*
X106454D02*
D03*
X101454D02*
D03*
X401454Y87999D02*
D03*
X406454D02*
D03*
X416454D02*
D03*
X411454Y104001D02*
D03*
X406454D02*
D03*
X401454D02*
D03*
X111454Y87999D02*
D03*
X116454Y104001D02*
D03*
X411454Y87999D02*
D03*
X416454Y104001D02*
D03*
D24*
X104001Y188546D02*
D03*
X87999Y193546D02*
D03*
X104001Y203546D02*
D03*
Y198546D02*
D03*
Y193546D02*
D03*
X87999Y188546D02*
D03*
Y198546D02*
D03*
Y203546D02*
D03*
X104001Y288546D02*
D03*
X87999Y293546D02*
D03*
X104001Y303546D02*
D03*
Y298546D02*
D03*
Y293546D02*
D03*
X87999Y288546D02*
D03*
Y298546D02*
D03*
Y303546D02*
D03*
X104001Y388546D02*
D03*
X87999Y393546D02*
D03*
X104001Y403546D02*
D03*
Y398546D02*
D03*
Y393546D02*
D03*
X87999Y388546D02*
D03*
Y398546D02*
D03*
Y403546D02*
D03*
X196000Y101000D02*
D03*
X221908D02*
D03*
X196000Y91000D02*
D03*
Y96000D02*
D03*
X221908D02*
D03*
Y91000D02*
D03*
X296000Y101000D02*
D03*
X321908D02*
D03*
X296000Y91000D02*
D03*
Y96000D02*
D03*
X321908D02*
D03*
Y91000D02*
D03*
X521908D02*
D03*
Y96000D02*
D03*
Y101000D02*
D03*
X496000D02*
D03*
Y96000D02*
D03*
Y91000D02*
D03*
X121908D02*
D03*
Y96000D02*
D03*
X96000D02*
D03*
Y91000D02*
D03*
X421908D02*
D03*
Y96000D02*
D03*
X396000D02*
D03*
Y91000D02*
D03*
X121908Y101000D02*
D03*
X96000D02*
D03*
X421908D02*
D03*
X396000D02*
D03*
D25*
X98500Y196046D02*
D03*
Y296046D02*
D03*
Y396046D02*
D03*
D26*
X94000Y196046D02*
D03*
Y296046D02*
D03*
Y396046D02*
D03*
D30*
X208954Y98500D02*
D03*
X308954D02*
D03*
X508954D02*
D03*
X108954D02*
D03*
X408954D02*
D03*
D31*
X208954Y94000D02*
D03*
X308954D02*
D03*
X508954D02*
D03*
X108954D02*
D03*
X408954D02*
D03*
D36*
X488764Y237000D02*
D03*
X463237D02*
D03*
D37*
X580162Y226250D02*
D03*
Y232750D02*
D03*
Y239250D02*
D03*
Y245750D02*
D03*
X535839D02*
D03*
Y239250D02*
D03*
Y232750D02*
D03*
Y226250D02*
D03*
D38*
X558000Y236000D02*
D03*
D40*
X498125Y398875D02*
D03*
D41*
X472186Y399242D02*
D03*
D42*
X541500Y190500D02*
D03*
Y181000D02*
D03*
Y171500D02*
D03*
X566500D02*
D03*
Y190500D02*
D03*
D43*
X329220Y466110D02*
D03*
X322880D02*
D03*
X316520D02*
D03*
X310180D02*
D03*
X303820D02*
D03*
X297480D02*
D03*
X291120D02*
D03*
X284780D02*
D03*
Y411890D02*
D03*
X291120D02*
D03*
X297480D02*
D03*
X303820D02*
D03*
X310180D02*
D03*
X316520D02*
D03*
X322880D02*
D03*
X329220D02*
D03*
D44*
X190000Y410830D02*
D03*
X202700D02*
D03*
X215400D02*
D03*
X228100D02*
D03*
Y465070D02*
D03*
X215400D02*
D03*
X202700D02*
D03*
X190000D02*
D03*
D45*
X541500Y158000D02*
D03*
X552500D02*
D03*
X599500Y194000D02*
D03*
X588500D02*
D03*
X267500Y370000D02*
D03*
X278500D02*
D03*
X96000Y219000D02*
D03*
X85000D02*
D03*
X96000Y227000D02*
D03*
X85000D02*
D03*
X85500Y320000D02*
D03*
X96500D02*
D03*
Y329000D02*
D03*
X85500D02*
D03*
X96000Y419000D02*
D03*
X85000D02*
D03*
X96000Y427000D02*
D03*
X85000D02*
D03*
X487500Y360000D02*
D03*
X498500D02*
D03*
X487500Y370000D02*
D03*
X498500D02*
D03*
X168500Y325000D02*
D03*
X179500D02*
D03*
X168500Y336000D02*
D03*
X179500D02*
D03*
X168500Y346000D02*
D03*
X179500D02*
D03*
X168500Y357000D02*
D03*
X179500D02*
D03*
X168500Y280000D02*
D03*
X179500D02*
D03*
X168500Y292000D02*
D03*
X179500D02*
D03*
X168500Y303000D02*
D03*
X179500D02*
D03*
X168500Y314000D02*
D03*
X179500D02*
D03*
X106454Y114000D02*
D03*
X95454D02*
D03*
X96000Y125000D02*
D03*
X85000D02*
D03*
X331500Y292000D02*
D03*
X320500D02*
D03*
X331500Y280000D02*
D03*
X320500D02*
D03*
X331500Y314000D02*
D03*
X320500D02*
D03*
X331500Y303000D02*
D03*
X320500D02*
D03*
X206454Y114000D02*
D03*
X195454D02*
D03*
X306454D02*
D03*
X295454D02*
D03*
X196000Y125000D02*
D03*
X185000D02*
D03*
X295000D02*
D03*
X284000D02*
D03*
X331500Y336000D02*
D03*
X320500D02*
D03*
X331500Y325000D02*
D03*
X320500D02*
D03*
X406454Y114000D02*
D03*
X395454D02*
D03*
X396000Y125000D02*
D03*
X385000D02*
D03*
X495500D02*
D03*
X484500D02*
D03*
X506454Y114000D02*
D03*
X495454D02*
D03*
X331500Y346000D02*
D03*
X320500D02*
D03*
Y357000D02*
D03*
X331500D02*
D03*
X528000Y411000D02*
D03*
X517000D02*
D03*
X489000Y214000D02*
D03*
X478000D02*
D03*
Y202000D02*
D03*
X489000D02*
D03*
X608500Y222000D02*
D03*
X597500D02*
D03*
X311500D02*
D03*
X322500D02*
D03*
X322500Y211000D02*
D03*
X311500D02*
D03*
X311500Y233000D02*
D03*
X322500D02*
D03*
X351500Y407000D02*
D03*
X340500D02*
D03*
X357000Y457000D02*
D03*
X368000D02*
D03*
X278500Y361000D02*
D03*
X267500D02*
D03*
X159500Y465000D02*
D03*
X170500D02*
D03*
X597500Y233000D02*
D03*
X608500D02*
D03*
X351500Y417000D02*
D03*
X340500D02*
D03*
X357000Y466000D02*
D03*
X368000D02*
D03*
X170500Y453000D02*
D03*
X159500D02*
D03*
X449500Y376000D02*
D03*
X460500D02*
D03*
X191750Y394750D02*
D03*
X202750D02*
D03*
X227175Y395125D02*
D03*
X238175D02*
D03*
X176000Y482000D02*
D03*
X187000D02*
D03*
Y493000D02*
D03*
X176000D02*
D03*
D46*
X96250Y237000D02*
D03*
X83750D02*
D03*
X96250Y339000D02*
D03*
X83750D02*
D03*
X96250Y437000D02*
D03*
X83750D02*
D03*
X517000Y425000D02*
D03*
X529500D02*
D03*
D47*
X114000Y209546D02*
D03*
Y198546D02*
D03*
X124954Y220546D02*
D03*
Y209546D02*
D03*
X114000Y309546D02*
D03*
Y298546D02*
D03*
Y409546D02*
D03*
Y398546D02*
D03*
X125000Y421000D02*
D03*
Y410000D02*
D03*
Y321000D02*
D03*
Y310000D02*
D03*
X206000Y377500D02*
D03*
Y366500D02*
D03*
X285000Y96000D02*
D03*
Y85000D02*
D03*
X588000Y182500D02*
D03*
Y171500D02*
D03*
X579000Y160500D02*
D03*
Y171500D02*
D03*
X377000Y85000D02*
D03*
Y96000D02*
D03*
X86000Y85000D02*
D03*
Y96000D02*
D03*
X78000Y85000D02*
D03*
Y96000D02*
D03*
X185000Y85000D02*
D03*
Y96000D02*
D03*
X177000Y85000D02*
D03*
Y96000D02*
D03*
X277000Y85000D02*
D03*
Y96000D02*
D03*
X385000Y85000D02*
D03*
Y96000D02*
D03*
X485000Y85000D02*
D03*
Y96000D02*
D03*
X477000Y85000D02*
D03*
Y96000D02*
D03*
X396000Y405500D02*
D03*
Y416500D02*
D03*
X456000Y417500D02*
D03*
Y406500D02*
D03*
X447000D02*
D03*
Y417500D02*
D03*
X475000Y259500D02*
D03*
Y270500D02*
D03*
X536000Y269000D02*
D03*
Y258000D02*
D03*
X462000Y259500D02*
D03*
Y270500D02*
D03*
X285500Y244500D02*
D03*
Y255500D02*
D03*
X295000D02*
D03*
Y244500D02*
D03*
X175138Y394863D02*
D03*
Y405863D02*
D03*
X165000Y406000D02*
D03*
Y395000D02*
D03*
X460000Y351000D02*
D03*
Y362000D02*
D03*
X258000Y255500D02*
D03*
Y244500D02*
D03*
X310000Y482500D02*
D03*
Y493500D02*
D03*
X272500Y244500D02*
D03*
Y255500D02*
D03*
X319000Y493500D02*
D03*
Y482500D02*
D03*
D48*
X270120Y352500D02*
D03*
Y347500D02*
D03*
Y342500D02*
D03*
Y337500D02*
D03*
Y332500D02*
D03*
Y327500D02*
D03*
Y322500D02*
D03*
Y317500D02*
D03*
Y312500D02*
D03*
Y307500D02*
D03*
Y302500D02*
D03*
Y297500D02*
D03*
X225880D02*
D03*
Y302500D02*
D03*
Y307500D02*
D03*
Y312500D02*
D03*
Y317500D02*
D03*
Y322500D02*
D03*
Y327500D02*
D03*
Y332500D02*
D03*
Y337500D02*
D03*
Y342500D02*
D03*
Y347500D02*
D03*
Y352500D02*
D03*
D49*
X273500Y190000D02*
D03*
X278500D02*
D03*
X283500D02*
D03*
X288500D02*
D03*
Y220000D02*
D03*
X283500D02*
D03*
X278500D02*
D03*
X273500D02*
D03*
D50*
X296000Y197500D02*
D03*
Y202500D02*
D03*
Y207500D02*
D03*
Y212500D02*
D03*
X266000D02*
D03*
Y207500D02*
D03*
Y202500D02*
D03*
Y197500D02*
D03*
D51*
X281000Y205000D02*
D03*
D52*
X519957Y345250D02*
D03*
Y376250D02*
D03*
D53*
X408000Y404750D02*
D03*
Y417250D02*
D03*
X367000Y96000D02*
D03*
Y83500D02*
D03*
X68000Y83750D02*
D03*
Y96250D02*
D03*
X167000Y83750D02*
D03*
Y96250D02*
D03*
X267000Y83750D02*
D03*
Y96250D02*
D03*
X467000D02*
D03*
Y83750D02*
D03*
D54*
X501500Y413650D02*
D03*
Y418650D02*
D03*
Y423650D02*
D03*
X468500Y413650D02*
D03*
Y418650D02*
D03*
Y423650D02*
D03*
X491500Y413650D02*
D03*
Y418650D02*
D03*
Y423650D02*
D03*
X478500Y413650D02*
D03*
Y418650D02*
D03*
Y423650D02*
D03*
D55*
X44000Y385300D02*
D03*
Y185300D02*
D03*
Y285300D02*
D03*
D56*
Y410700D02*
D03*
X31300Y398000D02*
D03*
Y198000D02*
D03*
X44000Y210700D02*
D03*
Y310700D02*
D03*
X31300Y298000D02*
D03*
X94300Y44000D02*
D03*
X107000Y31300D02*
D03*
X194300Y44000D02*
D03*
X207000Y31300D02*
D03*
X294300Y44000D02*
D03*
X307000Y31300D02*
D03*
X394300Y44000D02*
D03*
X407000Y31300D02*
D03*
X507000D02*
D03*
X494300Y44000D02*
D03*
D57*
X546000Y375000D02*
D03*
D58*
X596000Y410000D02*
D03*
Y340000D02*
D03*
D59*
X83700Y512300D02*
D03*
D60*
X109100D02*
D03*
X134500D02*
D03*
X159900D02*
D03*
X185300D02*
D03*
X210700D02*
D03*
X83700Y537700D02*
D03*
X109100D02*
D03*
X134500D02*
D03*
X159900D02*
D03*
X185300D02*
D03*
X210700D02*
D03*
X236100Y512300D02*
D03*
Y537700D02*
D03*
X261500Y512300D02*
D03*
X286900D02*
D03*
X312300D02*
D03*
X337700D02*
D03*
X363100D02*
D03*
X388500D02*
D03*
X261500Y537700D02*
D03*
X286900D02*
D03*
X312300D02*
D03*
X337700D02*
D03*
X363100D02*
D03*
X388500D02*
D03*
X413900Y512300D02*
D03*
Y537700D02*
D03*
X439300Y512300D02*
D03*
X464700D02*
D03*
X490100D02*
D03*
X515500D02*
D03*
X540900D02*
D03*
X566300D02*
D03*
X439300Y537700D02*
D03*
X464700D02*
D03*
X490100D02*
D03*
X515500D02*
D03*
X540900D02*
D03*
X566300D02*
D03*
D61*
X563080Y229650D02*
D03*
Y242350D02*
D03*
X552920D02*
D03*
Y229650D02*
D03*
X558000Y236000D02*
D03*
D62*
X119700Y44000D02*
D03*
X219700D02*
D03*
X319700D02*
D03*
X419700D02*
D03*
X519700D02*
D03*
D63*
X430000Y375000D02*
D03*
Y349600D02*
D03*
Y298800D02*
D03*
Y248000D02*
D03*
D64*
X35000Y35000D02*
D03*
X615000D02*
D03*
X35000Y525000D02*
D03*
X615000D02*
D03*
M02*
