G04*
G04 #@! TF.GenerationSoftware,Altium Limited,Altium Designer,25.8.1 (18)*
G04*
G04 Layer_Physical_Order=3*
G04 Layer_Color=128*
%FSLAX44Y44*%
%MOMM*%
G71*
G04*
G04 #@! TF.SameCoordinates,66732C46-9AE8-4601-A16A-CBFB6A477545*
G04*
G04*
G04 #@! TF.FilePolarity,Negative*
G04*
G01*
G75*
%ADD71C,1.0000*%
%ADD88C,1.0160*%
%ADD89C,1.2000*%
%ADD90C,1.6500*%
%ADD91O,2.0000X4.8000*%
%ADD92O,4.8000X2.0000*%
%ADD93C,2.0160*%
%ADD94C,1.9906*%
%ADD95C,4.0000*%
%ADD96C,1.2500*%
%ADD97C,1.5000*%
%ADD98C,1.3000*%
%ADD99C,1.6000*%
D71*
X491000Y325000D02*
X516000Y300000D01*
X420000Y325000D02*
X491000D01*
X516000Y300000D02*
X650000D01*
X385000Y360000D02*
X420000Y325000D01*
X385000Y360000D02*
Y439000D01*
X126500Y465000D02*
X152500Y439000D01*
X0Y465000D02*
X126500D01*
X152500Y439000D02*
X386500D01*
X412500Y465000D02*
X647500D01*
X386500Y439000D02*
X412500Y465000D01*
D88*
X620000Y0D02*
G03*
X650000Y30000I0J30000D01*
G01*
Y530000D02*
G03*
X620000Y560000I-30000J0D01*
G01*
X30000D02*
G03*
X0Y530000I0J-30000D01*
G01*
Y30000D02*
G03*
X30000Y0I30000J0D01*
G01*
X620000D01*
X650000Y30000D02*
Y530000D01*
X30000Y560000D02*
X620000D01*
X0Y30000D02*
Y530000D01*
D89*
X501500Y413650D02*
D03*
Y418650D02*
D03*
Y423650D02*
D03*
X491500Y413650D02*
D03*
Y418650D02*
D03*
Y423650D02*
D03*
X286800Y199200D02*
D03*
X281000Y205000D02*
D03*
X286800Y210800D02*
D03*
X275200D02*
D03*
Y199200D02*
D03*
X563080Y229650D02*
D03*
Y242350D02*
D03*
X552920D02*
D03*
Y229650D02*
D03*
X558000Y236000D02*
D03*
X269000Y399000D02*
D03*
X302000Y385000D02*
D03*
X311000Y377000D02*
D03*
X215000Y378000D02*
D03*
Y395000D02*
D03*
X293000Y392000D02*
D03*
X296000Y233000D02*
D03*
X288000D02*
D03*
X307000Y346000D02*
D03*
Y336000D02*
D03*
Y291210D02*
D03*
Y303290D02*
D03*
Y357000D02*
D03*
Y325000D02*
D03*
Y314000D02*
D03*
Y280000D02*
D03*
X189000D02*
D03*
Y292000D02*
D03*
Y303000D02*
D03*
Y314000D02*
D03*
Y325000D02*
D03*
Y336000D02*
D03*
Y346000D02*
D03*
Y357000D02*
D03*
D90*
X44000Y385300D02*
D03*
Y410700D02*
D03*
X31300Y398000D02*
D03*
Y198000D02*
D03*
X44000Y210700D02*
D03*
Y185300D02*
D03*
Y285300D02*
D03*
Y310700D02*
D03*
X31300Y298000D02*
D03*
X119700Y44000D02*
D03*
X94300D02*
D03*
X107000Y31300D02*
D03*
X219700Y44000D02*
D03*
X194300D02*
D03*
X207000Y31300D02*
D03*
X319700Y44000D02*
D03*
X294300D02*
D03*
X307000Y31300D02*
D03*
X419700Y44000D02*
D03*
X394300D02*
D03*
X407000Y31300D02*
D03*
X519700Y44000D02*
D03*
X507000Y31300D02*
D03*
X494300Y44000D02*
D03*
D91*
X546000Y375000D02*
D03*
D92*
X596000Y410000D02*
D03*
Y340000D02*
D03*
D93*
X109100Y512300D02*
D03*
X134500D02*
D03*
X159900D02*
D03*
X185300D02*
D03*
X210700D02*
D03*
X83700Y537700D02*
D03*
X109100D02*
D03*
X134500D02*
D03*
X159900D02*
D03*
X185300D02*
D03*
X210700D02*
D03*
X236100Y512300D02*
D03*
Y537700D02*
D03*
X261500Y512300D02*
D03*
X312300D02*
D03*
X337700D02*
D03*
X363100D02*
D03*
X388500D02*
D03*
X261500Y537700D02*
D03*
X286900D02*
D03*
X312300D02*
D03*
X337700D02*
D03*
X363100D02*
D03*
X388500D02*
D03*
X413900Y512300D02*
D03*
Y537700D02*
D03*
X439300Y512300D02*
D03*
X464700D02*
D03*
X490100D02*
D03*
X515500D02*
D03*
X540900D02*
D03*
X566300D02*
D03*
X439300Y537700D02*
D03*
X464700D02*
D03*
X490100D02*
D03*
X515500D02*
D03*
X540900D02*
D03*
X566300D02*
D03*
D94*
X430000Y349600D02*
D03*
Y298800D02*
D03*
Y248000D02*
D03*
D95*
X35000Y35000D02*
D03*
X615000D02*
D03*
X35000Y525000D02*
D03*
X615000D02*
D03*
D96*
X317000Y146000D02*
D03*
X340000D02*
D03*
X609000Y171000D02*
D03*
X257000Y129000D02*
D03*
X227000Y149000D02*
D03*
X208000Y218000D02*
D03*
X224000Y228000D02*
D03*
X558000Y268000D02*
D03*
Y258000D02*
D03*
X597000Y256000D02*
D03*
X585000D02*
D03*
X609000D02*
D03*
X620000D02*
D03*
X616000Y243000D02*
D03*
X572000Y141000D02*
D03*
X561000D02*
D03*
X616000Y190000D02*
D03*
Y204000D02*
D03*
X566000Y158000D02*
D03*
X616000Y215000D02*
D03*
X226000Y366000D02*
D03*
X288000D02*
D03*
X165000Y418000D02*
D03*
X175000D02*
D03*
X462000Y202000D02*
D03*
Y214000D02*
D03*
X216000Y270520D02*
D03*
X216500Y292000D02*
D03*
X234960Y246000D02*
D03*
X261000Y286000D02*
D03*
X269000Y411000D02*
D03*
X257000D02*
D03*
X245000D02*
D03*
X356000Y389000D02*
D03*
Y398000D02*
D03*
X396000Y428000D02*
D03*
X408000D02*
D03*
X458000Y391000D02*
D03*
X449000D02*
D03*
X369000Y459000D02*
D03*
X381000Y466000D02*
D03*
X258000Y461000D02*
D03*
Y471000D02*
D03*
X244000D02*
D03*
Y461000D02*
D03*
X273000D02*
D03*
Y471000D02*
D03*
X285000Y267000D02*
D03*
X295000D02*
D03*
X307000Y256000D02*
D03*
Y245000D02*
D03*
X322000Y243000D02*
D03*
X323000Y203000D02*
D03*
X98000Y165000D02*
D03*
X84000D02*
D03*
X86000Y264000D02*
D03*
X99000D02*
D03*
X518000Y114000D02*
D03*
X518000Y124000D02*
D03*
X135000Y432000D02*
D03*
X125000Y432000D02*
D03*
X114000Y187000D02*
D03*
X124000Y187000D02*
D03*
X94000Y364000D02*
D03*
X124000Y387000D02*
D03*
X98999Y373035D02*
D03*
X114000Y387000D02*
D03*
X135000Y232000D02*
D03*
X125000Y232000D02*
D03*
X114000Y287000D02*
D03*
X124000Y287000D02*
D03*
X131000Y332000D02*
D03*
X121000Y332000D02*
D03*
X198000Y493000D02*
D03*
X197500Y482000D02*
D03*
X473000Y135000D02*
D03*
X373000D02*
D03*
X73000D02*
D03*
X273000D02*
D03*
X173000D02*
D03*
X131965Y98998D02*
D03*
X418000Y124000D02*
D03*
X318000D02*
D03*
X218000D02*
D03*
X118000D02*
D03*
X73000Y125000D02*
D03*
X118000Y114000D02*
D03*
X173000Y125000D02*
D03*
X218000Y114000D02*
D03*
X273000Y125000D02*
D03*
X318000Y114000D02*
D03*
X373000Y125000D02*
D03*
X418000Y114000D02*
D03*
X231965Y98998D02*
D03*
X473000Y125000D02*
D03*
X141000Y94000D02*
D03*
X241000D02*
D03*
X331965Y98998D02*
D03*
X341000Y94000D02*
D03*
X431965Y98998D02*
D03*
X441000Y94000D02*
D03*
X541000D02*
D03*
X531965Y98998D02*
D03*
D97*
X332000Y268000D02*
D03*
D98*
X448000Y284000D02*
D03*
Y294000D02*
D03*
X530000Y451000D02*
D03*
Y438000D02*
D03*
X575000Y449000D02*
D03*
X588000D02*
D03*
X602000D02*
D03*
X616000D02*
D03*
X462000Y284000D02*
D03*
X476000D02*
D03*
X462000Y294000D02*
D03*
X476000D02*
D03*
X492000Y341000D02*
D03*
X478000D02*
D03*
X464000D02*
D03*
X451000D02*
D03*
X472000Y380000D02*
D03*
Y360000D02*
D03*
X44000Y367000D02*
D03*
X54000D02*
D03*
Y385000D02*
D03*
X75000Y419000D02*
D03*
Y428000D02*
D03*
X44000Y167000D02*
D03*
X54000Y185000D02*
D03*
Y167000D02*
D03*
X75000Y219000D02*
D03*
Y228000D02*
D03*
X54000Y267000D02*
D03*
X44000D02*
D03*
X54000Y285000D02*
D03*
X75000Y319000D02*
D03*
X75500Y330000D02*
D03*
X149750Y475000D02*
D03*
X149500Y453000D02*
D03*
X149750Y465000D02*
D03*
X520000Y54000D02*
D03*
X538000D02*
D03*
Y44000D02*
D03*
X120000Y54000D02*
D03*
X138000D02*
D03*
Y44000D02*
D03*
X420000Y54000D02*
D03*
X438000D02*
D03*
Y44000D02*
D03*
X320000Y54000D02*
D03*
X338000D02*
D03*
Y44000D02*
D03*
X238000D02*
D03*
Y54000D02*
D03*
X220000D02*
D03*
X285000Y75000D02*
D03*
X86000D02*
D03*
X77000D02*
D03*
X185000D02*
D03*
X176000D02*
D03*
X276000D02*
D03*
X485000D02*
D03*
X476000D02*
D03*
X376000D02*
D03*
X385000D02*
D03*
D99*
X588000Y208540D02*
D03*
X336000Y389000D02*
D03*
M02*
