G04*
G04 #@! TF.GenerationSoftware,Altium Limited,Altium Designer,25.8.1 (18)*
G04*
G04 Layer_Physical_Order=4*
G04 Layer_Color=16711680*
%FSLAX44Y44*%
%MOMM*%
G71*
G04*
G04 #@! TF.SameCoordinates,66732C46-9AE8-4601-A16A-CBFB6A477545*
G04*
G04*
G04 #@! TF.FilePolarity,Positive*
G04*
G01*
G75*
%ADD12C,0.2000*%
%ADD15C,0.3000*%
%ADD63C,1.4986*%
%ADD64C,3.0000*%
%ADD65C,0.5000*%
%ADD70C,0.7500*%
%ADD77C,0.5000*%
%ADD78R,1.0500X1.0500*%
%ADD79C,1.0500*%
%ADD80R,2.4000X5.6000*%
%ADD81R,5.6000X2.8000*%
%ADD82R,1.5240X1.5240*%
%ADD83C,1.5240*%
%ADD84R,1.0500X1.0500*%
%ADD85C,0.7000*%
%ADD86C,1.0000*%
%ADD87C,1.4000*%
D12*
X346414Y99414D02*
G03*
X347000Y100827I-1414J1414D01*
G01*
X347040Y145976D02*
G03*
X347040Y146002I-7040J24D01*
G01*
X347000Y291000D02*
Y290999D01*
X331965Y253000D02*
G03*
X326965Y258000I-5000J0D01*
G01*
X316000Y261000D02*
G03*
X319000Y258000I3000J0D01*
G01*
X299000Y300000D02*
G03*
X301750Y297250I2750J0D01*
G01*
X316000Y295000D02*
G03*
X313750Y297250I-2250J0D01*
G01*
X347000Y291000D02*
G03*
X335000Y303000I-12000J0D01*
G01*
X358000Y327000D02*
G03*
X349000Y336000I-9000J0D01*
G01*
X358000Y164000D02*
G03*
X365000Y157000I7000J0D01*
G01*
X353000Y150000D02*
G03*
X357000Y146000I4000J0D01*
G01*
X441000Y142000D02*
G03*
X437000Y146000I-4000J0D01*
G01*
X353000Y316000D02*
G03*
X344000Y325000I-9000J0D01*
G01*
X448000Y153000D02*
G03*
X444000Y157000I-4000J0D01*
G01*
X363000Y338000D02*
G03*
X355000Y346000I-8000J0D01*
G01*
X363000Y177000D02*
G03*
X368000Y172000I5000J0D01*
G01*
X367000Y186000D02*
G03*
X373000Y180000I6000J0D01*
G01*
X241000Y94000D02*
G03*
X249000Y102000I0J8000D01*
G01*
X253000Y266000D02*
G03*
X249000Y262000I0J-4000D01*
G01*
X259000Y399000D02*
G03*
X240000Y380000I0J-19000D01*
G01*
X237000Y292000D02*
G03*
X240000Y295000I0J3000D01*
G01*
X259000Y392000D02*
G03*
X246000Y379000I0J-13000D01*
G01*
X235500Y292000D02*
G03*
X216000Y272500I0J-19500D01*
G01*
X231000Y284000D02*
G03*
X224000Y277000I0J-7000D01*
G01*
X241000Y279000D02*
G03*
X234960Y272960I0J-6040D01*
G01*
X240000Y284000D02*
G03*
X246000Y290000I0J6000D01*
G01*
X248000Y279000D02*
G03*
X252000Y283000I0J4000D01*
G01*
X249000Y272000D02*
G03*
X242000Y265000I0J-7000D01*
G01*
X257000Y290000D02*
G03*
X261000Y286000I4000J0D01*
G01*
X259000Y385000D02*
G03*
X252000Y378000I0J-7000D01*
G01*
X263000Y377000D02*
G03*
X257000Y371000I0J-6000D01*
G01*
X307000Y291210D02*
G03*
X306210Y292000I-790J0D01*
G01*
X274000D02*
G03*
X269000Y287000I0J-5000D01*
G01*
X264000Y272000D02*
G03*
X269000Y277000I0J5000D01*
G01*
X280000Y280000D02*
G03*
X276000Y276000I0J-4000D01*
G01*
X273000Y266000D02*
G03*
X276000Y269000I0J3000D01*
G01*
X189000Y357000D02*
G03*
X182000Y364000I-7000J0D01*
G01*
X195000Y346000D02*
G03*
X199000Y350000I0J4000D01*
G01*
Y370000D02*
G03*
X195965Y373035I-3035J0D01*
G01*
X199000Y269000D02*
G03*
X203000Y273000I0J4000D01*
G01*
Y288000D02*
G03*
X199000Y292000I-4000J0D01*
G01*
X190000Y293000D02*
G03*
X189000Y292000I0J-1000D01*
G01*
X160000Y154000D02*
G03*
X155000Y149000I0J-5000D01*
G01*
X162000Y154000D02*
G03*
X167000Y159000I0J5000D01*
G01*
X175000Y280000D02*
G03*
X167000Y272000I0J-8000D01*
G01*
X180000Y269000D02*
G03*
X176000Y265000I0J-4000D01*
G01*
X170000Y147000D02*
G03*
X176000Y153000I0J6000D01*
G01*
X157000Y114000D02*
G03*
X161000Y118000I0J4000D01*
G01*
X166000Y147000D02*
G03*
X161000Y142000I0J-5000D01*
G01*
X149000Y121000D02*
G03*
X155000Y127000I0J6000D01*
G01*
X156000Y314000D02*
G03*
X152000Y310000I0J-4000D01*
G01*
X146000Y175000D02*
G03*
X152000Y181000I0J6000D01*
G01*
X89000Y175000D02*
G03*
X84000Y170000I0J-5000D01*
G01*
X164000Y303000D02*
G03*
X159000Y298000I0J-5000D01*
G01*
X154000Y165000D02*
G03*
X159000Y170000I0J5000D01*
G01*
X138000Y264000D02*
G03*
X146000Y272000I0J8000D01*
G01*
X136000Y274000D02*
G03*
X140000Y278000I0J4000D01*
G01*
X145000Y336000D02*
G03*
X140000Y331000I0J-5000D01*
G01*
X89000Y274000D02*
G03*
X86000Y271000I0J-3000D01*
G01*
X154000Y325000D02*
G03*
X146000Y317000I0J-8000D01*
G01*
X432000Y87000D02*
G03*
X436000Y83000I4000J0D01*
G01*
X443000D02*
G03*
X448000Y88000I0J5000D01*
G01*
X448008Y93330D02*
G03*
X448000Y93160I1992J-179D01*
G01*
X448008Y93330D02*
G03*
X448008Y94671I-7008J670D01*
G01*
X448000Y94839D02*
G03*
X448008Y94671I2000J10D01*
G01*
X532000Y86000D02*
G03*
X535000Y83000I3000J0D01*
G01*
X548000Y94839D02*
G03*
X548008Y94671I2000J10D01*
G01*
X548008Y93330D02*
G03*
X548000Y93160I1992J-179D01*
G01*
X548008Y93330D02*
G03*
X548008Y94671I-7008J670D01*
G01*
X543000Y83000D02*
G03*
X548000Y88000I0J5000D01*
G01*
Y137000D02*
G03*
X540000Y145000I-8000J0D01*
G01*
X523000Y150000D02*
G03*
X528000Y145000I5000J0D01*
G01*
X523000Y169000D02*
G03*
X512000Y180000I-11000J0D01*
G01*
X367000Y350000D02*
G03*
X360000Y357000I-7000J0D01*
G01*
X541000Y133000D02*
G03*
X537000Y137000I-4000J0D01*
G01*
X516000Y166000D02*
G03*
X510000Y172000I-6000J0D01*
G01*
X516000Y142000D02*
G03*
X521000Y137000I5000J0D01*
G01*
X302000Y314000D02*
G03*
X299000Y311000I0J-3000D01*
G01*
X313410Y303002D02*
G03*
X313500Y303000I90J1998D01*
G01*
X144000Y114000D02*
G03*
X141000Y111000I0J-3000D01*
G01*
X139000Y121000D02*
G03*
X132000Y114000I0J-7000D01*
G01*
X231965Y98998D02*
G03*
X242000Y109033I0J10035D01*
G01*
X347000Y100827D02*
X347040Y145976D01*
X347000Y290999D02*
X347040Y146002D01*
X341000Y94000D02*
X346414Y99414D01*
X331965Y98998D02*
Y253000D01*
X319000Y258000D02*
X326965D01*
X316000Y261000D02*
Y295000D01*
X301750Y297250D02*
X313750D01*
X358000Y164000D02*
Y327000D01*
X353000Y150000D02*
Y316000D01*
X357000Y146000D02*
X437000D01*
X365000Y157000D02*
X444000D01*
X363000Y177000D02*
Y338000D01*
X367000Y186000D02*
Y350000D01*
X249000Y102000D02*
Y262000D01*
X224000Y228000D02*
Y277000D01*
X246000Y290000D02*
Y379000D01*
X240000Y295000D02*
Y380000D01*
X235500Y292000D02*
X237000D01*
X216000Y270520D02*
Y272500D01*
X234960Y246000D02*
Y246960D01*
Y272960D01*
X241000Y279000D02*
X248000D01*
X231000Y284000D02*
X240000D01*
X259000Y392000D02*
X293000D01*
X252000Y283000D02*
Y378000D01*
X259000Y399000D02*
X269000D01*
X242000Y109033D02*
Y265000D01*
X253000Y266000D02*
X273000D01*
X249000Y272000D02*
X264000D01*
X257000Y290000D02*
Y371000D01*
X263000Y377000D02*
X311000D01*
X259000Y385000D02*
X302000D01*
X215000Y378000D02*
Y395000D01*
X307000Y357000D02*
X360000D01*
X307000Y346000D02*
X355000D01*
X307000Y325000D02*
X344000D01*
X274000Y292000D02*
X306210D01*
X269000Y277000D02*
Y287000D01*
X280000Y280000D02*
X307000D01*
X276000Y269000D02*
Y276000D01*
X94000Y364000D02*
X182000D01*
X199000Y350000D02*
Y370000D01*
X189000Y346000D02*
X195000D01*
X98999Y373035D02*
X195965D01*
X203000Y273000D02*
Y288000D01*
X189000Y292000D02*
X199000D01*
X160000Y154000D02*
X162000D01*
X167000Y159000D02*
Y272000D01*
X175000Y280000D02*
X189000D01*
X180000Y269000D02*
X199000D01*
X176000Y153000D02*
Y265000D01*
X166000Y147000D02*
X170000D01*
X161000Y118000D02*
Y142000D01*
X155000Y127000D02*
Y149000D01*
X156000Y314000D02*
X189000D01*
X152000Y181000D02*
Y310000D01*
X89000Y175000D02*
X146000D01*
X84000Y165000D02*
Y170000D01*
X159000Y170000D02*
Y298000D01*
X164000Y303000D02*
X189000D01*
X98000Y165000D02*
X154000D01*
X99000Y264000D02*
X138000D01*
X146000Y272000D02*
Y317000D01*
X89000Y274000D02*
X136000D01*
X145000Y336000D02*
X189000D01*
X140000Y278000D02*
Y331000D01*
X189000Y336000D02*
Y336000D01*
X86000Y264000D02*
Y271000D01*
X154000Y325000D02*
X189000D01*
X432000Y87000D02*
Y98998D01*
X436000Y83000D02*
X443000D01*
X448000Y88000D02*
Y93160D01*
Y93160D01*
Y94839D02*
Y153000D01*
X532000Y86000D02*
Y98998D01*
X535000Y83000D02*
X543000D01*
X548000Y93160D02*
Y93160D01*
Y88000D02*
Y93160D01*
Y94839D02*
Y137000D01*
X528000Y145000D02*
X540000D01*
X523000Y150000D02*
Y169000D01*
X373000Y180000D02*
X512000D01*
X531965Y98998D02*
X532000D01*
X521000Y137000D02*
X537000D01*
X516000Y142000D02*
Y166000D01*
X368000Y172000D02*
X510000D01*
X541000Y94000D02*
Y133000D01*
X541000Y94000D02*
X541000D01*
X307000Y336000D02*
X349000D01*
X431965Y98998D02*
X432000D01*
X441000Y94000D02*
Y142000D01*
X441000Y94000D02*
X441000D01*
X299000Y300000D02*
Y311000D01*
X302000Y314000D02*
X307000D01*
Y303290D02*
X313410Y303002D01*
X313500Y303000D02*
X335000D01*
X144000Y114000D02*
X157000D01*
X141000Y94000D02*
Y111000D01*
X132000Y98998D02*
Y114000D01*
X139000Y121000D02*
X149000D01*
X131965Y98998D02*
X132000D01*
X189000Y279000D02*
Y280000D01*
D15*
X134500Y497000D02*
X138500Y493000D01*
X198000D01*
X168123Y482540D02*
X168663Y482000D01*
X112560Y482540D02*
X168123D01*
X168663Y482000D02*
X198000D01*
X109100Y486000D02*
X112560Y482540D01*
X109100Y486000D02*
Y512300D01*
X134500Y497000D02*
Y512300D01*
D63*
X430000Y375000D02*
D03*
Y349600D02*
D03*
Y298800D02*
D03*
Y248000D02*
D03*
D64*
X35000Y35000D02*
D03*
X615000D02*
D03*
X35000Y525000D02*
D03*
X615000D02*
D03*
D65*
X264000Y146000D02*
G03*
X257000Y139000I0J-7000D01*
G01*
X340000Y260000D02*
G03*
X332000Y268000I-8000J0D01*
G01*
X257000Y129000D02*
Y139000D01*
X264000Y146000D02*
X317000D01*
X340000D02*
Y260000D01*
X589722Y210262D02*
Y222793D01*
X588000Y208540D02*
X589722Y210262D01*
Y222793D02*
X594929Y228000D01*
X336000Y376000D02*
Y389000D01*
Y376000D02*
X341000Y371000D01*
X371000D01*
X515000Y287000D02*
X630000D01*
X487000Y315000D02*
X515000Y287000D01*
X594929Y228000D02*
X631000D01*
X635000Y232000D02*
Y282000D01*
X631000Y228000D02*
X635000Y232000D01*
X630000Y287000D02*
X635000Y282000D01*
X406000Y315000D02*
X487000D01*
X375000Y346000D02*
X406000Y315000D01*
X371000Y371000D02*
X375000Y367000D01*
Y346000D02*
Y367000D01*
X336000Y389000D02*
X337722Y387278D01*
X472000Y360000D02*
Y380000D01*
D70*
X609000Y171000D02*
X613000Y167000D01*
X601000Y121000D02*
X613000Y133000D01*
Y167000D01*
X578000Y121000D02*
X601000D01*
X566000Y109000D02*
X578000Y121000D01*
X566000Y21000D02*
Y109000D01*
X558000Y13000D02*
X566000Y21000D01*
X251000Y19000D02*
Y86000D01*
Y19000D02*
X257000Y13000D01*
X558000D01*
X251000Y86000D02*
X257000Y92000D01*
Y129000D01*
X215000Y149000D02*
X227000D01*
X208000Y156000D02*
Y218000D01*
Y156000D02*
X215000Y149000D01*
D77*
X501500Y413650D02*
D03*
Y418650D02*
D03*
Y423650D02*
D03*
X468500Y413650D02*
D03*
Y418650D02*
D03*
Y423650D02*
D03*
X491500Y413650D02*
D03*
Y418650D02*
D03*
Y423650D02*
D03*
X478500Y413650D02*
D03*
Y418650D02*
D03*
Y423650D02*
D03*
X286800Y199200D02*
D03*
X281000Y205000D02*
D03*
X286800Y210800D02*
D03*
X275200D02*
D03*
Y199200D02*
D03*
X563080Y229650D02*
D03*
Y242350D02*
D03*
X552920D02*
D03*
Y229650D02*
D03*
X558000Y236000D02*
D03*
X269000Y399000D02*
D03*
X302000Y385000D02*
D03*
X311000Y377000D02*
D03*
X215000Y378000D02*
D03*
Y395000D02*
D03*
X293000Y392000D02*
D03*
X296000Y233000D02*
D03*
X288000D02*
D03*
X307000Y346000D02*
D03*
Y336000D02*
D03*
Y291210D02*
D03*
Y303290D02*
D03*
Y357000D02*
D03*
Y325000D02*
D03*
Y314000D02*
D03*
Y280000D02*
D03*
X189000D02*
D03*
Y292000D02*
D03*
Y303000D02*
D03*
Y314000D02*
D03*
Y325000D02*
D03*
Y336000D02*
D03*
Y346000D02*
D03*
Y357000D02*
D03*
D78*
X44000Y385300D02*
D03*
Y185300D02*
D03*
Y285300D02*
D03*
D79*
Y410700D02*
D03*
X31300Y398000D02*
D03*
Y198000D02*
D03*
X44000Y210700D02*
D03*
Y310700D02*
D03*
X31300Y298000D02*
D03*
X94300Y44000D02*
D03*
X107000Y31300D02*
D03*
X194300Y44000D02*
D03*
X207000Y31300D02*
D03*
X294300Y44000D02*
D03*
X307000Y31300D02*
D03*
X394300Y44000D02*
D03*
X407000Y31300D02*
D03*
X507000D02*
D03*
X494300Y44000D02*
D03*
D80*
X546000Y375000D02*
D03*
D81*
X596000Y410000D02*
D03*
Y340000D02*
D03*
D82*
X83700Y512300D02*
D03*
D83*
X109100D02*
D03*
X134500D02*
D03*
X159900D02*
D03*
X185300D02*
D03*
X210700D02*
D03*
X83700Y537700D02*
D03*
X109100D02*
D03*
X134500D02*
D03*
X159900D02*
D03*
X185300D02*
D03*
X210700D02*
D03*
X236100Y512300D02*
D03*
Y537700D02*
D03*
X261500Y512300D02*
D03*
X286900D02*
D03*
X312300D02*
D03*
X337700D02*
D03*
X363100D02*
D03*
X388500D02*
D03*
X261500Y537700D02*
D03*
X286900D02*
D03*
X312300D02*
D03*
X337700D02*
D03*
X363100D02*
D03*
X388500D02*
D03*
X413900Y512300D02*
D03*
Y537700D02*
D03*
X439300Y512300D02*
D03*
X464700D02*
D03*
X490100D02*
D03*
X515500D02*
D03*
X540900D02*
D03*
X566300D02*
D03*
X439300Y537700D02*
D03*
X464700D02*
D03*
X490100D02*
D03*
X515500D02*
D03*
X540900D02*
D03*
X566300D02*
D03*
D84*
X119700Y44000D02*
D03*
X219700D02*
D03*
X319700D02*
D03*
X419700D02*
D03*
X519700D02*
D03*
D85*
X317000Y146000D02*
D03*
X340000D02*
D03*
X609000Y171000D02*
D03*
X257000Y129000D02*
D03*
X227000Y149000D02*
D03*
X265000Y43000D02*
D03*
Y58000D02*
D03*
X208000Y218000D02*
D03*
X224000Y228000D02*
D03*
X504000Y203000D02*
D03*
X514000D02*
D03*
X504000Y217000D02*
D03*
X514000D02*
D03*
X448000Y284000D02*
D03*
Y294000D02*
D03*
X558000Y268000D02*
D03*
Y258000D02*
D03*
X597000Y256000D02*
D03*
X585000D02*
D03*
X609000D02*
D03*
X620000D02*
D03*
X616000Y243000D02*
D03*
X572000Y141000D02*
D03*
X561000D02*
D03*
X616000Y190000D02*
D03*
Y204000D02*
D03*
X566000Y158000D02*
D03*
X616000Y215000D02*
D03*
X530000Y451000D02*
D03*
Y438000D02*
D03*
X575000Y449000D02*
D03*
X588000D02*
D03*
X602000D02*
D03*
X616000D02*
D03*
X226000Y366000D02*
D03*
X288000D02*
D03*
X165000Y418000D02*
D03*
X175000D02*
D03*
X462000Y202000D02*
D03*
Y214000D02*
D03*
X216000Y270520D02*
D03*
X216500Y292000D02*
D03*
X234960Y246000D02*
D03*
X261000Y286000D02*
D03*
X269000Y411000D02*
D03*
X257000D02*
D03*
X245000D02*
D03*
X356000Y389000D02*
D03*
Y398000D02*
D03*
X396000Y428000D02*
D03*
X408000D02*
D03*
X422000Y412000D02*
D03*
Y424000D02*
D03*
X436000D02*
D03*
X450000D02*
D03*
X504000Y245000D02*
D03*
Y231000D02*
D03*
X514000Y245000D02*
D03*
Y231000D02*
D03*
X462000Y284000D02*
D03*
X476000D02*
D03*
X462000Y294000D02*
D03*
X476000D02*
D03*
X492000Y341000D02*
D03*
X478000D02*
D03*
X464000D02*
D03*
X451000D02*
D03*
X458000Y391000D02*
D03*
X449000D02*
D03*
X369000Y459000D02*
D03*
X381000Y466000D02*
D03*
X472000Y380000D02*
D03*
Y360000D02*
D03*
X356000Y477000D02*
D03*
X346000D02*
D03*
X258000Y461000D02*
D03*
Y471000D02*
D03*
X244000D02*
D03*
Y461000D02*
D03*
X273000D02*
D03*
Y471000D02*
D03*
X285000Y267000D02*
D03*
X295000D02*
D03*
X307000Y256000D02*
D03*
Y245000D02*
D03*
X322000Y243000D02*
D03*
X323000Y203000D02*
D03*
X98000Y165000D02*
D03*
X84000D02*
D03*
X86000Y264000D02*
D03*
X99000D02*
D03*
X518000Y114000D02*
D03*
X518000Y124000D02*
D03*
X80000Y352000D02*
D03*
X44000Y367000D02*
D03*
X54000D02*
D03*
Y385000D02*
D03*
X71000Y450000D02*
D03*
X75000Y419000D02*
D03*
X71000Y439000D02*
D03*
X80000Y450000D02*
D03*
X75000Y428000D02*
D03*
X135000Y432000D02*
D03*
X125000Y432000D02*
D03*
X44000Y167000D02*
D03*
X54000Y185000D02*
D03*
Y167000D02*
D03*
X114000Y187000D02*
D03*
X124000Y187000D02*
D03*
X75000Y219000D02*
D03*
Y228000D02*
D03*
X71000Y239000D02*
D03*
Y250000D02*
D03*
X80000D02*
D03*
X54000Y267000D02*
D03*
X44000D02*
D03*
X54000Y285000D02*
D03*
X71000Y352000D02*
D03*
Y341000D02*
D03*
X75000Y319000D02*
D03*
X75500Y330000D02*
D03*
X94000Y364000D02*
D03*
X124000Y387000D02*
D03*
X98999Y373035D02*
D03*
X114000Y387000D02*
D03*
X135000Y232000D02*
D03*
X125000Y232000D02*
D03*
X114000Y287000D02*
D03*
X124000Y287000D02*
D03*
X131000Y332000D02*
D03*
X121000Y332000D02*
D03*
X149750Y475000D02*
D03*
X149500Y453000D02*
D03*
X149750Y465000D02*
D03*
X165000Y475000D02*
D03*
X179000Y460000D02*
D03*
Y450000D02*
D03*
X178750Y473750D02*
D03*
X198000Y493000D02*
D03*
X197500Y482000D02*
D03*
X473000Y135000D02*
D03*
X373000D02*
D03*
X73000D02*
D03*
X273000D02*
D03*
X173000D02*
D03*
X520000Y54000D02*
D03*
X538000D02*
D03*
Y44000D02*
D03*
X120000Y54000D02*
D03*
X138000D02*
D03*
Y44000D02*
D03*
X420000Y54000D02*
D03*
X438000D02*
D03*
Y44000D02*
D03*
X320000Y54000D02*
D03*
X338000D02*
D03*
Y44000D02*
D03*
X238000D02*
D03*
Y54000D02*
D03*
X220000D02*
D03*
X285000Y75000D02*
D03*
X131965Y98998D02*
D03*
X418000Y124000D02*
D03*
X318000D02*
D03*
X218000D02*
D03*
X118000D02*
D03*
X73000Y125000D02*
D03*
X118000Y114000D02*
D03*
X173000Y125000D02*
D03*
X218000Y114000D02*
D03*
X273000Y125000D02*
D03*
X318000Y114000D02*
D03*
X373000Y125000D02*
D03*
X418000Y114000D02*
D03*
X231965Y98998D02*
D03*
X473000Y125000D02*
D03*
X55000Y80000D02*
D03*
X66000Y71000D02*
D03*
X55000D02*
D03*
X154000Y80000D02*
D03*
X165000Y71000D02*
D03*
X154000D02*
D03*
X265000D02*
D03*
X354000Y80000D02*
D03*
X365000Y71000D02*
D03*
X354000D02*
D03*
X454000D02*
D03*
X465000D02*
D03*
X454000Y80000D02*
D03*
X86000Y75000D02*
D03*
X77000D02*
D03*
X185000D02*
D03*
X176000D02*
D03*
X276000D02*
D03*
X485000D02*
D03*
X476000D02*
D03*
X376000D02*
D03*
X385000D02*
D03*
X141000Y94000D02*
D03*
X241000D02*
D03*
X331965Y98998D02*
D03*
X341000Y94000D02*
D03*
X431965Y98998D02*
D03*
X441000Y94000D02*
D03*
X541000D02*
D03*
X531965Y98998D02*
D03*
D86*
X332000Y268000D02*
D03*
D87*
X588000Y208540D02*
D03*
X336000Y389000D02*
D03*
M02*
