M48
;Layer_Color=9474304
;FILE_FORMAT=4:4
METRIC,LZ
;TYPE=PLATED
T01F00S00C0.2000
T02F00S00C0.2500
T03F00S00C0.3000
T04F00S00C0.5000
T05F00S00C0.6000
T06F00S00C0.6500
T07F00S00C0.9906
T09F00S00C1.0160
;TYPE=NON_PLATED
T10F00S00C3.0000
%
T01
X00189Y0028
Y00292
Y00303
Y00314
Y00325
Y00336
Y00346
Y00357
X00215Y00378
Y00395
X00293Y00392
X00302Y00385
X00311Y00377
X00307Y00357
Y00346
Y00336
Y00325
Y00314
Y0030329
Y0029121
Y0028
X00296Y00233
X00288
X002868Y002108
Y001992
X00281Y00205
X002752Y002108
Y001992
X0055292Y0022965
X0056308
X00558Y00236
X0056308Y0024235
X0055292
X005015Y0041365
Y0041865
Y0042365
X004915
Y0041865
Y0041365
X004785
Y0041865
Y0042365
X004685
Y0041865
Y0041365
X00269Y00399
T02
X00073Y00125
X00073Y00135
X00084Y00165
X00098
X00114Y00187
X00124Y00187
X00125Y00232
X00135Y00232
X00124Y00287
X00114Y00287
X00099Y00264
X00086
X00121Y00332
X00131Y00332
X00124Y00387
X00114Y00387
X00098999Y00373035
X00094Y00364
X00226Y00366
X00288
X00356Y00389
X00322Y00243
X00307Y00245
Y00256
X00295Y00267
X00285
X00261Y00286
X002165Y00292
X00216Y0027052
X0023496Y00246
X00224Y00228
X00208Y00218
X00227Y00149
X00218Y00124
X00218Y00114
X00231965Y00098998
X00241Y00094
X00257Y00129
X00273Y00125
X00273Y00135
X00317Y00146
X00318Y00124
X00318Y00114
X00331965Y00098998
X00341Y00094
X0034Y00146
X00373Y00135
X00373Y00125
X00323Y00203
X00173Y00135
X00173Y00125
X00118Y00124
X00118Y00114
X00131965Y00098998
X00141Y00094
X00431965Y00098998
X00441Y00094
X00418Y00114
X00418Y00124
X00473Y00125
X00473Y00135
X00518Y00124
X00518Y00114
X00531965Y00098998
X00541Y00094
X00561Y00141
X00572
X00566Y00158
X00609Y00171
X00616Y0019
Y00204
Y00215
Y00243
X0062Y00256
X00609
X00597
X00585
X00558Y00258
Y00268
X00462Y00214
Y00202
X00458Y00391
X00449
X00408Y00428
X00396
X00381Y00466
X00369Y00459
X00356Y00477
X00346
X00273Y00471
Y00461
X00258
Y00471
X00244
Y00461
X00245Y00411
X00257
X00269
X00356Y00398
X00175Y00418
X00165
X00135Y00432
X00125Y00432
X00179Y0045
Y0046
X0017875Y0047375
X00165Y00475
X001975Y00482
X00198Y00493
T03
X00055Y00071
Y0008
X00066Y00071
X00077Y00075
X00086
X0012Y00054
X00138
Y00044
X00154Y00071
Y0008
X00165Y00071
X00176Y00075
X00185
X0022Y00054
X00238
Y00044
X00265Y00043
Y00058
Y00071
X00276Y00075
X00285
X0032Y00054
X00338
Y00044
X00354Y00071
Y0008
X00365Y00071
X00376Y00075
X00385
X00054Y00167
X00044
X00054Y00185
X00075Y00219
Y00228
X00071Y00239
Y0025
X0008
X00054Y00267
X00044
X00054Y00285
X00075Y00319
X000755Y0033
X00071Y00341
Y00352
X0008
X00054Y00367
X00044
X00054Y00385
X00472Y0038
Y0036
X00478Y00341
X00492
X00464
X00451
X00448Y00294
Y00284
X00462
Y00294
X00476
Y00284
X00504Y00245
X00514
Y00231
X00504
X00504Y00217
X00514
Y00203
X00504
X00485Y00075
X00476
X00465Y00071
X00454
Y0008
X00438Y00054
Y00044
X0042Y00054
X0052
X00538
Y00044
X0053Y00438
Y00451
X00575Y00449
X00588
X00602
X00616
X0045Y00424
X00436
X00422
Y00412
X001495Y00453
X0014975Y00465
Y00475
X0008Y0045
X00071
Y00439
X00075Y00428
Y00419
T04
X00332Y00268
T05
X00336Y00389
X00588Y0020854
T06
X000943Y00044
X001197
X00107Y000313
X001943Y00044
X002197
X00207Y000313
X002943Y00044
X003197
X00307Y000313
X003943Y00044
X00044Y001853
X000313Y00198
X00044Y002107
Y002853
Y003107
X000313Y00298
X00044Y003853
X004197Y00044
X00407Y000313
X00507
X005197Y00044
X004943
X00044Y004107
X000313Y00398
T07
X0043Y00248
Y002988
Y003496
Y00375
T09
X004139Y005123
Y005377
X004393
Y005123
X004647
X004901
X005155
X005409
X005663
Y005377
X005409
X005155
X004901
X004647
X003885
Y005123
X003631
X003377
X003123
X002869
X002615
X002361
X002107
X001853
X001599
X001345
X001091
X000837
Y005377
X001091
X001345
X001599
X001853
X002107
X002361
X002615
X002869
X003123
X003377
X003631
T10
X00035Y00035
X00615
Y00525
X00035
M30
