%TF.GenerationSoftware,Altium Limited,Altium Designer,25.8.1 (18)*%
G04 Layer_Physical_Order=3*
G04 Layer_Color=128*
%FSLAX45Y45*%
%MOMM*%
%TF.SameCoordinates,1DD8770F-E8FB-401A-A495-0FBD85E38FE1*%
%TF.FilePolarity,Negative*%
%TF.FileFunction,Copper,L3,Inr,Plane*%
%TF.Part,Single*%
G01*
G75*
%TA.AperFunction,NonConductor*%
%ADD60C,1.01600*%
%ADD61C,1.00000*%
%TA.AperFunction,ComponentPad*%
%ADD62C,1.20000*%
%ADD63C,1.65000*%
%ADD64O,2.00000X4.80000*%
%ADD65O,4.80000X2.00000*%
%ADD66C,2.01600*%
%ADD67C,1.99060*%
%TA.AperFunction,WasherPad*%
%ADD68C,4.00000*%
%TA.AperFunction,ViaPad*%
%ADD69C,1.25000*%
%ADD70C,1.50000*%
%ADD71C,1.30000*%
%ADD72C,1.60000*%
%ADD73C,1.20000*%
D60*
X6200000D02*
G03*
X6500000Y300000I0J300000D01*
G01*
Y5300000D02*
G03*
X6200000Y5600000I-300000J0D01*
G01*
X300000D02*
G03*
X0Y5300000I0J-300000D01*
G01*
Y300000D02*
G03*
X300000Y0I300000J0D01*
G01*
X6200000D01*
X6500000Y300000D02*
Y5300000D01*
X300000Y5600000D02*
X6200000D01*
X0Y300000D02*
Y5300000D01*
D61*
X4910000Y3250000D02*
X5160000Y3000000D01*
X4200000Y3250000D02*
X4910000D01*
X5160000Y3000000D02*
X6500000D01*
X3850000Y3600000D02*
X4200000Y3250000D01*
X3850000Y3600000D02*
Y4390000D01*
X1265000Y4650000D02*
X1525000Y4390000D01*
X0Y4650000D02*
X1265000D01*
X1525000Y4390000D02*
X3865000D01*
X4125000Y4650000D02*
X6475000D01*
X3865000Y4390000D02*
X4125000Y4650000D01*
D62*
X5015000Y4136500D02*
D03*
Y4186500D02*
D03*
Y4236500D02*
D03*
X4915000Y4136500D02*
D03*
Y4186500D02*
D03*
Y4236500D02*
D03*
X2868000Y1992000D02*
D03*
X2810000Y2050000D02*
D03*
X2868000Y2108000D02*
D03*
X2752000D02*
D03*
Y1992000D02*
D03*
X5630800Y2296500D02*
D03*
Y2423500D02*
D03*
X5529200D02*
D03*
Y2296500D02*
D03*
X5580000Y2360000D02*
D03*
D63*
X440001Y3853000D02*
D03*
Y4107000D02*
D03*
X313001Y3980000D02*
D03*
Y1980000D02*
D03*
X440001Y2107000D02*
D03*
Y1853000D02*
D03*
Y2853000D02*
D03*
Y3107000D02*
D03*
X313001Y2980000D02*
D03*
X1197000Y440000D02*
D03*
X943000D02*
D03*
X1070000Y313000D02*
D03*
X2197000Y440000D02*
D03*
X1943000D02*
D03*
X2070000Y313000D02*
D03*
X3197000Y440000D02*
D03*
X2943000D02*
D03*
X3070000Y313000D02*
D03*
X4197000Y440000D02*
D03*
X3943000D02*
D03*
X4070000Y313000D02*
D03*
X5197000Y440000D02*
D03*
X5070000Y313000D02*
D03*
X4943000Y440000D02*
D03*
D64*
X5460000Y3750000D02*
D03*
D65*
X5960000Y4100000D02*
D03*
Y3400000D02*
D03*
D66*
X1091000Y5123000D02*
D03*
X1345000D02*
D03*
X1599000D02*
D03*
X1853000D02*
D03*
X2107000D02*
D03*
X837000Y5377000D02*
D03*
X1091000D02*
D03*
X1345000D02*
D03*
X1599000D02*
D03*
X1853000D02*
D03*
X2107000D02*
D03*
X2361000Y5123000D02*
D03*
Y5377000D02*
D03*
X2615000Y5123000D02*
D03*
X3123000D02*
D03*
X3377000D02*
D03*
X3631000D02*
D03*
X3885000D02*
D03*
X2615000Y5377000D02*
D03*
X2869000D02*
D03*
X3123000D02*
D03*
X3377000D02*
D03*
X3631000D02*
D03*
X3885000D02*
D03*
X4139000Y5123000D02*
D03*
Y5377000D02*
D03*
X4393000Y5123000D02*
D03*
X4647000D02*
D03*
X4901000D02*
D03*
X5155000D02*
D03*
X5409000D02*
D03*
X5663000D02*
D03*
X4393000Y5377000D02*
D03*
X4647000D02*
D03*
X4901000D02*
D03*
X5155000D02*
D03*
X5409000D02*
D03*
X5663000D02*
D03*
D67*
X4300000Y3496000D02*
D03*
Y2988000D02*
D03*
Y2480000D02*
D03*
D68*
X350000Y350000D02*
D03*
X6150000D02*
D03*
X350000Y5250000D02*
D03*
X6150000D02*
D03*
D69*
X3170000Y1460000D02*
D03*
X3400000D02*
D03*
X6090000Y1710000D02*
D03*
X2570000Y1290000D02*
D03*
X2270000Y1490000D02*
D03*
X2080000Y2180000D02*
D03*
X2240000Y2280000D02*
D03*
X5580000Y2680000D02*
D03*
Y2580000D02*
D03*
X5970000Y2560000D02*
D03*
X5850000D02*
D03*
X6090000D02*
D03*
X6200000D02*
D03*
X6160000Y2430000D02*
D03*
X5720000Y1410000D02*
D03*
X5610000D02*
D03*
X6160000Y1900000D02*
D03*
Y2040000D02*
D03*
X5660000Y1580000D02*
D03*
X6160000Y2150000D02*
D03*
X2260000Y3660000D02*
D03*
X2880000D02*
D03*
X1650000Y4180000D02*
D03*
X1750000D02*
D03*
X4620000Y2020000D02*
D03*
Y2140000D02*
D03*
X2160000Y2705200D02*
D03*
X2165000Y2920000D02*
D03*
X2349600Y2460000D02*
D03*
X2610000Y2860000D02*
D03*
X2690000Y4110000D02*
D03*
X2570000D02*
D03*
X2450000D02*
D03*
X3560000Y3890000D02*
D03*
Y3980000D02*
D03*
X3960000Y4280000D02*
D03*
X4080000D02*
D03*
X4580000Y3910000D02*
D03*
X4490000D02*
D03*
X3690000Y4590000D02*
D03*
X3810000Y4660000D02*
D03*
X2580000Y4610000D02*
D03*
Y4710000D02*
D03*
X2440000D02*
D03*
Y4610000D02*
D03*
X2730000D02*
D03*
Y4710000D02*
D03*
X2850000Y2670000D02*
D03*
X2950000D02*
D03*
X3070000Y2560000D02*
D03*
Y2450000D02*
D03*
X3220000Y2430000D02*
D03*
X3230000Y2030000D02*
D03*
X980000Y1650000D02*
D03*
X840000D02*
D03*
X860000Y2640000D02*
D03*
X990000D02*
D03*
X5180000Y1140000D02*
D03*
X5180000Y1240000D02*
D03*
X1350000Y4320000D02*
D03*
X1250000Y4320000D02*
D03*
X1140000Y1870000D02*
D03*
X1240000Y1870000D02*
D03*
X940000Y3640000D02*
D03*
X1240000Y3870000D02*
D03*
X989986Y3730348D02*
D03*
X1140000Y3870000D02*
D03*
X1350000Y2320000D02*
D03*
X1250000Y2320000D02*
D03*
X1140000Y2870000D02*
D03*
X1240000Y2870000D02*
D03*
X1310000Y3320000D02*
D03*
X1210000Y3320000D02*
D03*
X1980000Y4930000D02*
D03*
X1975000Y4820000D02*
D03*
X4730000Y1350000D02*
D03*
X3730000D02*
D03*
X730000D02*
D03*
X2730000D02*
D03*
X1730000D02*
D03*
X1319652Y989985D02*
D03*
X4180000Y1240000D02*
D03*
X3180000D02*
D03*
X2180000D02*
D03*
X1180000D02*
D03*
X730000Y1250000D02*
D03*
X1180000Y1140000D02*
D03*
X1730000Y1250000D02*
D03*
X2180000Y1140000D02*
D03*
X2730000Y1250000D02*
D03*
X3180000Y1140000D02*
D03*
X3730000Y1250000D02*
D03*
X4180000Y1140000D02*
D03*
X2319652Y989985D02*
D03*
X4730000Y1250000D02*
D03*
X1410000Y940000D02*
D03*
X2410000D02*
D03*
X3319652Y989985D02*
D03*
X3410000Y940000D02*
D03*
X4319652Y989985D02*
D03*
X4410000Y940000D02*
D03*
X5410000D02*
D03*
X5319652Y989985D02*
D03*
D70*
X3320000Y2680000D02*
D03*
D71*
X4480000Y2840000D02*
D03*
Y2940000D02*
D03*
X5300000Y4510000D02*
D03*
Y4380000D02*
D03*
X5750000Y4490000D02*
D03*
X5880000D02*
D03*
X6020000D02*
D03*
X6160000D02*
D03*
X4620000Y2840000D02*
D03*
X4760000D02*
D03*
X4620000Y2940000D02*
D03*
X4760000D02*
D03*
X4920000Y3410000D02*
D03*
X4780000D02*
D03*
X4640000D02*
D03*
X4510000D02*
D03*
X4720000Y3800000D02*
D03*
Y3600000D02*
D03*
X440000Y3670000D02*
D03*
X540000D02*
D03*
Y3850000D02*
D03*
X750000Y4190000D02*
D03*
Y4280000D02*
D03*
X440000Y1670000D02*
D03*
X540000Y1850000D02*
D03*
Y1670000D02*
D03*
X750000Y2190000D02*
D03*
Y2280000D02*
D03*
X540000Y2670000D02*
D03*
X440000D02*
D03*
X540000Y2850000D02*
D03*
X750000Y3190000D02*
D03*
X755000Y3300000D02*
D03*
X1497500Y4750000D02*
D03*
X1495000Y4530000D02*
D03*
X1497500Y4650000D02*
D03*
X5200000Y540000D02*
D03*
X5380000D02*
D03*
Y440000D02*
D03*
X1200000Y540000D02*
D03*
X1380000D02*
D03*
Y440000D02*
D03*
X4200000Y540000D02*
D03*
X4380000D02*
D03*
Y440000D02*
D03*
X3200000Y540000D02*
D03*
X3380000D02*
D03*
Y440000D02*
D03*
X2380000D02*
D03*
Y540000D02*
D03*
X2200000D02*
D03*
X2850000Y750000D02*
D03*
X860000D02*
D03*
X770000D02*
D03*
X1850000D02*
D03*
X1760000D02*
D03*
X2760000D02*
D03*
X4850000D02*
D03*
X4760000D02*
D03*
X3760000D02*
D03*
X3850000D02*
D03*
D72*
X5880000Y2085400D02*
D03*
X3360000Y3890000D02*
D03*
D73*
X2690000Y3990000D02*
D03*
X3020000Y3850000D02*
D03*
X3110000Y3770000D02*
D03*
X2150000Y3780000D02*
D03*
Y3950000D02*
D03*
X2930000Y3920000D02*
D03*
X2960000Y2330000D02*
D03*
X2880000D02*
D03*
X3070000Y3460000D02*
D03*
Y3360000D02*
D03*
Y2912100D02*
D03*
Y3032900D02*
D03*
Y3570000D02*
D03*
Y3250000D02*
D03*
Y3140000D02*
D03*
Y2800000D02*
D03*
X1890000D02*
D03*
Y2920000D02*
D03*
Y3030000D02*
D03*
Y3140000D02*
D03*
Y3250000D02*
D03*
Y3360000D02*
D03*
Y3460000D02*
D03*
Y3570000D02*
D03*
%TF.MD5,cd2fc91cb38ebeb4eaa125303bf190a7*%
M02*
