G04*
G04 #@! TF.GenerationSoftware,Altium Limited,Altium Designer,25.8.1 (18)*
G04*
G04 Layer_Physical_Order=1*
G04 Layer_Color=255*
%FSLAX44Y44*%
%MOMM*%
G71*
G04*
G04 #@! TF.SameCoordinates,66732C46-9AE8-4601-A16A-CBFB6A477545*
G04*
G04*
G04 #@! TF.FilePolarity,Positive*
G04*
G01*
G75*
%ADD12C,0.2000*%
%ADD15C,0.3000*%
G04:AMPARAMS|DCode=18|XSize=0.2mm|YSize=0.6mm|CornerRadius=0.05mm|HoleSize=0mm|Usage=FLASHONLY|Rotation=180.000|XOffset=0mm|YOffset=0mm|HoleType=Round|Shape=RoundedRectangle|*
%AMROUNDEDRECTD18*
21,1,0.2000,0.5000,0,0,180.0*
21,1,0.1000,0.6000,0,0,180.0*
1,1,0.1000,-0.0500,0.2500*
1,1,0.1000,0.0500,0.2500*
1,1,0.1000,0.0500,-0.2500*
1,1,0.1000,-0.0500,-0.2500*
%
%ADD18ROUNDEDRECTD18*%
%ADD19R,1.1500X0.6000*%
%ADD20R,0.4350X1.5280*%
%ADD21R,0.6500X1.5250*%
%ADD22R,0.7500X0.6000*%
%ADD23R,0.2540X0.3048*%
%ADD24R,0.3048X0.2540*%
%ADD25R,0.3048X0.9906*%
%ADD26R,0.2032X0.9906*%
%ADD27R,0.7500X0.9500*%
%ADD28R,0.6000X0.7500*%
%ADD29R,1.4250X0.3000*%
%ADD30R,0.9906X0.3048*%
%ADD31R,0.9906X0.2032*%
%ADD32R,0.3000X0.8000*%
%ADD33R,0.8000X0.3000*%
%ADD34R,1.7500X1.7500*%
%ADD35R,1.2200X1.1200*%
%ADD36R,0.8509X2.6924*%
%ADD37R,1.3335X0.4318*%
%ADD38R,1.8542X2.1590*%
%ADD39R,0.9500X0.7500*%
%ADD63C,1.4986*%
%ADD64C,3.0000*%
%ADD65C,0.5000*%
%ADD66C,0.2032*%
%ADD67C,1.0250*%
%ADD68R,1.5000X2.3000*%
%ADD69C,0.9914*%
%ADD70C,0.7500*%
%ADD71C,1.0000*%
%ADD72C,0.1000*%
%ADD73C,0.5500*%
%ADD74C,1.1000*%
%ADD75C,0.4000*%
%ADD76C,0.2540*%
%ADD77C,0.5000*%
%ADD78R,1.0500X1.0500*%
%ADD79C,1.0500*%
%ADD80R,2.4000X5.6000*%
%ADD81R,5.6000X2.8000*%
%ADD82R,1.5240X1.5240*%
%ADD83C,1.5240*%
%ADD84R,1.0500X1.0500*%
%ADD85C,0.7000*%
%ADD86C,1.0000*%
%ADD87C,1.4000*%
G36*
X279000Y455000D02*
X237000D01*
Y477000D01*
X279000D01*
Y455000D01*
D02*
G37*
G36*
X177500Y475000D02*
X180000Y472500D01*
X190000D01*
Y450000D01*
X187500Y447500D01*
X170000D01*
Y470000D01*
X165000Y475000D01*
Y497500D01*
X177500D01*
Y475000D01*
D02*
G37*
G36*
X156000Y477750D02*
Y473500D01*
X159250Y470250D01*
Y447250D01*
X158500Y446500D01*
X154750D01*
Y446750D01*
X138750Y462750D01*
Y477500D01*
X140750Y479000D01*
X154750D01*
X156000Y477750D01*
D02*
G37*
G36*
X87000Y435000D02*
X64000D01*
Y456000D01*
X87000D01*
Y435000D01*
D02*
G37*
G36*
X142000Y420500D02*
X118000D01*
Y438000D01*
X142000D01*
Y420500D01*
D02*
G37*
G36*
X101000Y415000D02*
X98266Y411964D01*
X96851Y410209D01*
X95040Y410182D01*
X93035Y414024D01*
X92000Y416008D01*
Y444000D01*
X101000D01*
Y415000D01*
D02*
G37*
G36*
X285000Y405000D02*
X227000D01*
Y417000D01*
X285000D01*
Y405000D01*
D02*
G37*
G36*
X107536Y394886D02*
X108042Y394456D01*
X110717Y391781D01*
X110716Y391750D01*
X131318D01*
Y380250D01*
X109000D01*
Y386755D01*
X108332D01*
X107909Y387178D01*
Y390703D01*
X106336Y392275D01*
X105367D01*
Y394833D01*
X105421Y394887D01*
X107536Y394886D01*
D02*
G37*
G36*
X59000Y360500D02*
X37000D01*
Y391500D01*
X59000D01*
Y360500D01*
D02*
G37*
G36*
X290000Y359000D02*
X278000D01*
Y372000D01*
X290000D01*
Y359000D01*
D02*
G37*
G36*
X87000Y337000D02*
X64000D01*
Y356000D01*
X87000D01*
Y337000D01*
D02*
G37*
G36*
X138000Y320500D02*
X114000D01*
Y338000D01*
X138000D01*
Y320500D01*
D02*
G37*
G36*
X101000Y315000D02*
X98266Y311964D01*
X96851Y310208D01*
X95040Y310182D01*
X93035Y314024D01*
X92000Y316008D01*
Y344000D01*
X101000D01*
Y315000D01*
D02*
G37*
G36*
X107536Y294886D02*
X108042Y294456D01*
X110717Y291781D01*
X110716Y291750D01*
X131318D01*
Y280250D01*
X109000D01*
Y286755D01*
X108332D01*
X107909Y287178D01*
Y290702D01*
X106336Y292275D01*
X105367D01*
Y294833D01*
X105421Y294887D01*
X107536Y294886D01*
D02*
G37*
G36*
X59000Y260500D02*
X37000D01*
Y291500D01*
X59000D01*
Y260500D01*
D02*
G37*
G36*
X174000Y258000D02*
X163000D01*
Y271000D01*
X174000D01*
Y258000D01*
D02*
G37*
G36*
X87000Y235000D02*
X64000D01*
Y256000D01*
X87000D01*
Y235000D01*
D02*
G37*
G36*
X142000Y220500D02*
X118000D01*
Y238000D01*
X142000D01*
Y220500D01*
D02*
G37*
G36*
X101000Y215000D02*
X98266Y211964D01*
X96851Y210208D01*
X95040Y210182D01*
X93035Y214024D01*
X92000Y216008D01*
Y244000D01*
X101000D01*
Y215000D01*
D02*
G37*
G36*
X107536Y194886D02*
X108042Y194456D01*
X110717Y191781D01*
X110716Y191750D01*
X131318D01*
Y180250D01*
X109000D01*
Y186755D01*
X108332D01*
X107909Y187178D01*
Y190702D01*
X106336Y192275D01*
X105367D01*
Y194833D01*
X105421Y194887D01*
X107536Y194886D01*
D02*
G37*
G36*
X59000Y160500D02*
X37000D01*
Y191500D01*
X59000D01*
Y160500D01*
D02*
G37*
G36*
X284500Y118000D02*
X267000D01*
Y142000D01*
X284500D01*
Y118000D01*
D02*
G37*
G36*
X184500D02*
X167000D01*
Y142000D01*
X184500D01*
Y118000D01*
D02*
G37*
G36*
X84500D02*
X67000D01*
Y142000D01*
X84500D01*
Y118000D01*
D02*
G37*
G36*
X224750Y109000D02*
X218245D01*
Y108332D01*
X217822Y107909D01*
X214298D01*
X212725Y106336D01*
Y105367D01*
X210167D01*
X210113Y105421D01*
X210114Y107536D01*
X210544Y108042D01*
X213219Y110716D01*
X213250Y110716D01*
Y131318D01*
X224750D01*
Y109000D01*
D02*
G37*
G36*
X124750D02*
X118245D01*
Y108332D01*
X117822Y107909D01*
X114298D01*
X112725Y106336D01*
Y105367D01*
X110167D01*
X110113Y105421D01*
X110114Y107536D01*
X110544Y108042D01*
X113219Y110716D01*
X113250Y110716D01*
Y131318D01*
X124750D01*
Y109000D01*
D02*
G37*
G36*
X293036Y98266D02*
X294792Y96851D01*
X294818Y95040D01*
X290976Y93035D01*
X288992Y92000D01*
X261000D01*
Y101000D01*
X290000D01*
X293036Y98266D01*
D02*
G37*
G36*
X193036D02*
X194792Y96851D01*
X194818Y95040D01*
X190976Y93035D01*
X188992Y92000D01*
X161000D01*
Y101000D01*
X190000D01*
X193036Y98266D01*
D02*
G37*
G36*
X93036D02*
X94791Y96851D01*
X94818Y95040D01*
X90976Y93035D01*
X88992Y92000D01*
X61000D01*
Y101000D01*
X90000D01*
X93036Y98266D01*
D02*
G37*
G36*
X70000Y65000D02*
X49000D01*
Y87000D01*
X70000D01*
Y65000D01*
D02*
G37*
G36*
X169000Y64000D02*
X148000D01*
Y87000D01*
X169000D01*
Y64000D01*
D02*
G37*
G36*
X241000Y37000D02*
X213500D01*
Y59000D01*
X241000D01*
Y37000D01*
D02*
G37*
G36*
X144500D02*
X113500D01*
Y59000D01*
X144500D01*
Y37000D01*
D02*
G37*
G36*
X269000Y35000D02*
X261000D01*
Y87000D01*
X269000D01*
Y35000D01*
D02*
G37*
G36*
X359000Y467000D02*
Y459000D01*
X329220D01*
Y472000D01*
X341220D01*
Y480000D01*
X359000D01*
Y467000D01*
D02*
G37*
G36*
X387000Y449000D02*
X366000D01*
Y471000D01*
X387000D01*
Y449000D01*
D02*
G37*
G36*
X627000Y442000D02*
X566000D01*
Y455000D01*
X627000D01*
Y442000D01*
D02*
G37*
G36*
X487000Y399050D02*
X483000D01*
Y405250D01*
X487000D01*
Y399050D01*
D02*
G37*
G36*
X480000Y399656D02*
X478628Y399095D01*
X476750Y397217D01*
X475750Y393367D01*
X470502Y393367D01*
Y386000D01*
X443000D01*
Y405000D01*
X466883D01*
X467000Y405117D01*
X480000D01*
Y399656D01*
D02*
G37*
G36*
X504000Y403750D02*
Y394000D01*
X503000Y393000D01*
X494250Y393000D01*
Y393500D01*
X493250Y396850D01*
X491372Y398728D01*
X490000Y399289D01*
Y404750D01*
X503000D01*
X504000Y403750D01*
D02*
G37*
G36*
X343000Y389000D02*
X329000D01*
Y419000D01*
X343000D01*
Y389000D01*
D02*
G37*
G36*
X363000Y383000D02*
X349000D01*
Y420500D01*
X363000D01*
Y383000D01*
D02*
G37*
G36*
X440000Y430000D02*
X475502D01*
Y420000D01*
X440000D01*
Y365000D01*
X415000D01*
Y420000D01*
Y430000D01*
Y430000D01*
X440000D01*
Y430000D01*
D02*
G37*
G36*
X503000Y334000D02*
X427000D01*
Y351000D01*
X503000D01*
Y334000D01*
D02*
G37*
G36*
X484000Y270000D02*
X427000D01*
Y300200D01*
X484000D01*
Y270000D01*
D02*
G37*
G36*
X313000Y240000D02*
X301000D01*
Y262000D01*
X313000D01*
Y240000D01*
D02*
G37*
G36*
X328000Y238250D02*
X316000D01*
Y249000D01*
X328000D01*
Y238250D01*
D02*
G37*
G36*
X567000Y236000D02*
X549000D01*
Y274000D01*
X567000D01*
Y236000D01*
D02*
G37*
G36*
X599480Y205000D02*
X576520D01*
Y235000D01*
X599480D01*
Y205000D01*
D02*
G37*
G36*
X478500Y193000D02*
X456000D01*
Y219000D01*
X478500D01*
Y193000D01*
D02*
G37*
G36*
X625040Y244040D02*
Y182000D01*
X607040D01*
Y244040D01*
X577000D01*
Y262040D01*
X625040D01*
Y244040D01*
D02*
G37*
G36*
X589960Y181500D02*
X567000D01*
Y199000D01*
X589960D01*
Y181500D01*
D02*
G37*
G36*
X525000Y201000D02*
X533000D01*
Y169000D01*
X490000D01*
Y198000D01*
Y252000D01*
X525000D01*
Y201000D01*
D02*
G37*
G36*
X578000Y135000D02*
X555040D01*
Y162000D01*
X578000D01*
Y135000D01*
D02*
G37*
G36*
X484500Y118000D02*
X467000D01*
Y142000D01*
X484500D01*
Y118000D01*
D02*
G37*
G36*
X384500D02*
X367000D01*
Y142000D01*
X384500D01*
Y118000D01*
D02*
G37*
G36*
X524750Y109000D02*
X518245D01*
Y108332D01*
X517822Y107909D01*
X514297D01*
X512725Y106336D01*
Y105367D01*
X510167D01*
X510113Y105421D01*
X510114Y107536D01*
X510544Y108042D01*
X513219Y110716D01*
X513250Y110716D01*
Y131318D01*
X524750D01*
Y109000D01*
D02*
G37*
G36*
X424750D02*
X418245D01*
Y108332D01*
X417822Y107909D01*
X414297D01*
X412725Y106336D01*
Y105367D01*
X410167D01*
X410113Y105421D01*
X410114Y107536D01*
X410544Y108042D01*
X413219Y110716D01*
X413250Y110716D01*
Y131318D01*
X424750D01*
Y109000D01*
D02*
G37*
G36*
X324750D02*
X318245D01*
Y108332D01*
X317822Y107909D01*
X314298D01*
X312725Y106336D01*
Y105367D01*
X310167D01*
X310113Y105421D01*
X310114Y107536D01*
X310544Y108042D01*
X313219Y110716D01*
X313250Y110716D01*
Y131318D01*
X324750D01*
Y109000D01*
D02*
G37*
G36*
X493036Y98266D02*
X494791Y96851D01*
X494818Y95040D01*
X490976Y93035D01*
X488992Y92000D01*
X461000D01*
Y101000D01*
X490000D01*
X493036Y98266D01*
D02*
G37*
G36*
X393036D02*
X394791Y96851D01*
X394818Y95040D01*
X390976Y93035D01*
X388992Y92000D01*
X361000D01*
Y101000D01*
X390000D01*
X393036Y98266D01*
D02*
G37*
G36*
X469000Y64000D02*
X448000D01*
Y87000D01*
X469000D01*
Y64000D01*
D02*
G37*
G36*
X369000D02*
X348000D01*
Y87000D01*
X369000D01*
Y64000D01*
D02*
G37*
G36*
X544500Y37000D02*
X513500D01*
Y59000D01*
X544500D01*
Y37000D01*
D02*
G37*
G36*
X444500D02*
X413500D01*
Y59000D01*
X444500D01*
Y37000D01*
D02*
G37*
G36*
X344500D02*
X313500D01*
Y59000D01*
X344500D01*
Y37000D01*
D02*
G37*
D12*
X340004Y153040D02*
G03*
X340000Y153040I-3J-7040D01*
G01*
X302000Y153000D02*
G03*
X302005Y153000I0J2000D01*
G01*
X340005Y153040D02*
G03*
X340004Y153040I-5J-7040D01*
G01*
X317000D02*
G03*
X316981Y153040I0J-7040D01*
G01*
X396999Y153000D02*
G03*
X397000Y153000I1J2000D01*
G01*
X197000Y245000D02*
G03*
X191000Y251000I-6000J0D01*
G01*
X235000Y217000D02*
G03*
X239500Y212500I4500J0D01*
G01*
X224000Y213000D02*
G03*
X229500Y207500I5500J0D01*
G01*
X197000Y208000D02*
G03*
X202500Y202500I5500J0D01*
G01*
X155000Y374000D02*
G03*
X130454Y398546I-24546J0D01*
G01*
X209000Y353000D02*
G03*
X205000Y357000I-4000J0D01*
G01*
X308000Y197000D02*
G03*
X302500Y202500I-5500J0D01*
G01*
X296000D02*
G03*
X296500Y202000I500J0D01*
G01*
X308000Y166000D02*
G03*
X312000Y162000I4000J0D01*
G01*
X296000Y159000D02*
G03*
X302000Y153000I6000J0D01*
G01*
X216000Y271000D02*
G03*
X221000Y266000I5000J0D01*
G01*
X258000Y263000D02*
G03*
X255000Y266000I-3000J0D01*
G01*
X222000Y297500D02*
G03*
X216500Y292000I0J-5500D01*
G01*
X307000Y392000D02*
G03*
X310180Y395180I0J3180D01*
G01*
X273000Y273000D02*
G03*
X269000Y277000I-4000J0D01*
G01*
X261000Y280000D02*
G03*
X264000Y277000I3000J0D01*
G01*
X320000Y377000D02*
G03*
X322880Y379880I0J2880D01*
G01*
X313000Y385000D02*
G03*
X316520Y388520I0J3520D01*
G01*
X243000Y374000D02*
G03*
X239000Y378000I-4000J0D01*
G01*
X243000Y347000D02*
G03*
X247500Y342500I4500J0D01*
G01*
X203000Y394500D02*
G03*
X202700Y394800I-300J0D01*
G01*
X203000Y389000D02*
G03*
X206493Y385507I3493J0D01*
G01*
X248000Y381222D02*
G03*
X243715Y385507I-4285J0D01*
G01*
X248000Y350000D02*
G03*
X250500Y347500I2500J0D01*
G01*
X302920Y296069D02*
G03*
X302799Y296201I-1532J-1286D01*
G01*
X272000Y256000D02*
G03*
X273000Y257000I0J1000D01*
G01*
X258000Y223000D02*
G03*
X261000Y220000I3000J0D01*
G01*
X213000Y363000D02*
G03*
X210000Y366000I-3000J0D01*
G01*
X213000Y345000D02*
G03*
X215500Y342500I2500J0D01*
G01*
X209000Y341000D02*
G03*
X212500Y337500I3500J0D01*
G01*
X205000Y342000D02*
G03*
X201000Y346000I-4000J0D01*
G01*
X205000Y336000D02*
G03*
X208500Y332500I3500J0D01*
G01*
X201000Y332000D02*
G03*
X197000Y336000I-4000J0D01*
G01*
X201000Y332000D02*
G03*
X205500Y327500I4500J0D01*
G01*
X189000Y203000D02*
G03*
X194500Y197500I5500J0D01*
G01*
X189000Y234000D02*
G03*
X182000Y241000I-7000J0D01*
G01*
X155000Y258000D02*
G03*
X162000Y251000I7000J0D01*
G01*
X143000Y252000D02*
G03*
X154000Y241000I11000J0D01*
G01*
X143000Y292000D02*
G03*
X136454Y298546I-6546J0D01*
G01*
X286800Y210800D02*
G03*
X288500Y214904I-4104J4104D01*
G01*
X278500Y190000D02*
G03*
X278000Y189500I0J-500D01*
G01*
X212000Y167000D02*
G03*
X206000Y161000I0J-6000D01*
G01*
Y114454D02*
G03*
X206454Y114000I454J0D01*
G01*
X200000Y292000D02*
G03*
X203000Y295000I0J3000D01*
G01*
X306234Y303766D02*
G03*
X306908Y303326I1408J1420D01*
G01*
X93828Y301920D02*
G03*
X91454Y303546I-2374J-920D01*
G01*
X93962Y301120D02*
G03*
X93828Y301920I-2031J70D01*
G01*
Y401920D02*
G03*
X91454Y403546I-2374J-920D01*
G01*
X92000Y388500D02*
G03*
X93960Y390460I0J1960D01*
G01*
X93962Y401120D02*
G03*
X93828Y401920I-2031J70D01*
G01*
X108675Y409546D02*
G03*
X106894Y408455I0J-2000D01*
G01*
X93828Y201920D02*
G03*
X91454Y203546I-2374J-920D01*
G01*
X92000Y188500D02*
G03*
X93960Y190460I0J1960D01*
G01*
X93962Y201120D02*
G03*
X93828Y201920I-2031J70D01*
G01*
X92000Y288500D02*
G03*
X93960Y290460I0J1960D01*
G01*
X108675Y309546D02*
G03*
X106894Y308455I0J-2000D01*
G01*
X108675Y209546D02*
G03*
X106894Y208455I0J-2000D01*
G01*
X205000Y280000D02*
G03*
X207650Y282650I0J2650D01*
G01*
X210150Y302500D02*
G03*
X207650Y300000I0J-2500D01*
G01*
X205500Y307500D02*
G03*
X203000Y305000I0J-2500D01*
G01*
X197000Y303000D02*
G03*
X199000Y305000I0J2000D01*
G01*
X201500Y312500D02*
G03*
X199000Y310000I0J-2500D01*
G01*
X507000Y150000D02*
G03*
X495000Y162000I-12000J0D01*
G01*
X506454Y114000D02*
G03*
X507000Y114546I0J546D01*
G01*
X406000Y144000D02*
G03*
X397000Y153000I-9000J0D01*
G01*
X406000Y114454D02*
G03*
X406454Y114000I454J0D01*
G01*
X306454Y139546D02*
G03*
X300000Y146000I-6454J0D01*
G01*
X288500Y150500D02*
G03*
X293000Y146000I4500J0D01*
G01*
X289000Y189500D02*
G03*
X288500Y190000I-500J0D01*
G01*
X278000Y167000D02*
G03*
X283500Y172500I0J5500D01*
G01*
X106647Y139897D02*
G03*
X106454Y137454I15353J-2443D01*
G01*
X112163Y149492D02*
G03*
X106647Y139897I5588J-9595D01*
G01*
X117750Y151000D02*
G03*
X112163Y149492I0J-11103D01*
G01*
X143000Y151000D02*
G03*
X149000Y157000I0J6000D01*
G01*
X156000Y176000D02*
G03*
X149000Y169000I0J-7000D01*
G01*
X272000Y176000D02*
G03*
X278500Y182500I0J6500D01*
G01*
X95454Y108675D02*
G03*
X96545Y106894I2000J0D01*
G01*
X195454Y108675D02*
G03*
X196545Y106894I2000J0D01*
G01*
X295454Y108675D02*
G03*
X296545Y106894I2000J0D01*
G01*
X395454Y108675D02*
G03*
X396545Y106894I2000J0D01*
G01*
X495454Y108675D02*
G03*
X496545Y106894I2000J0D01*
G01*
X103880Y93962D02*
G03*
X103080Y93828I-70J-2031D01*
G01*
D02*
G03*
X101454Y91454I920J-2374D01*
G01*
X116500Y92000D02*
G03*
X114540Y93960I-1960J0D01*
G01*
X203880Y93962D02*
G03*
X203080Y93828I-70J-2031D01*
G01*
D02*
G03*
X201454Y91454I920J-2374D01*
G01*
X216500Y92000D02*
G03*
X214540Y93960I-1960J0D01*
G01*
X303880Y93962D02*
G03*
X303080Y93828I-70J-2031D01*
G01*
D02*
G03*
X301454Y91454I920J-2374D01*
G01*
X316500Y92000D02*
G03*
X314540Y93960I-1960J0D01*
G01*
X403880Y93962D02*
G03*
X403080Y93828I-70J-2031D01*
G01*
D02*
G03*
X401454Y91454I920J-2374D01*
G01*
X416500Y92000D02*
G03*
X414540Y93960I-1960J0D01*
G01*
X516500Y92000D02*
G03*
X514540Y93960I-1960J0D01*
G01*
X503080Y93828D02*
G03*
X501454Y91454I920J-2374D01*
G01*
X503880Y93962D02*
G03*
X503080Y93828I-70J-2031D01*
G01*
X317000Y153040D02*
X340000D01*
X302005Y153000D02*
X316981Y153040D01*
X340005D02*
X396999Y153000D01*
X311500Y211000D02*
X311500Y211000D01*
X337000Y195000D02*
Y257000D01*
X267000Y73872D02*
Y83750D01*
X265000Y71000D02*
Y71872D01*
X267000Y73872D01*
X265000Y43000D02*
Y70000D01*
X104001Y398546D02*
X130454D01*
X224000Y213000D02*
Y228000D01*
X197000Y208000D02*
Y245000D01*
X162000Y251000D02*
X191000D01*
X235000Y217000D02*
Y246000D01*
X234960D02*
X235000D01*
X229500Y207500D02*
X266000D01*
X202500Y202500D02*
X266000D01*
X239500Y212500D02*
X266000D01*
X514000Y231000D02*
X518750Y226250D01*
X514000Y245000D02*
X514375Y245375D01*
X535464D02*
X535839Y245750D01*
X155000Y258000D02*
Y374000D01*
X347172Y470828D02*
X349828D01*
X346000Y472000D02*
X347172Y470828D01*
X346000Y472000D02*
Y477000D01*
X349828Y470828D02*
X356000Y477000D01*
X329220Y466110D02*
X329330Y466000D01*
X357000D01*
Y457000D02*
Y466000D01*
X189000Y357000D02*
X205000D01*
X179500D02*
X189000D01*
X288000Y347512D02*
Y366000D01*
X334000Y192000D02*
X337000Y195000D01*
X315000Y193172D02*
Y200000D01*
Y193172D02*
X316172Y192000D01*
X334000D01*
X311500Y203500D02*
Y211000D01*
Y203500D02*
X315000Y200000D01*
X308000Y166000D02*
Y197000D01*
X296000Y202500D02*
X302500D01*
X312000Y162000D02*
X495000D01*
X296000Y159000D02*
Y197500D01*
X221000Y266000D02*
X255000D01*
X258000Y255500D02*
Y263000D01*
X222000Y297500D02*
X225880D01*
X293000Y392000D02*
X307000D01*
X269000Y399000D02*
X293960D01*
X297382Y411792D02*
X297480Y411890D01*
X297382Y402422D02*
Y411792D01*
X293960Y399000D02*
X297382Y402422D01*
X264000Y277000D02*
X269000D01*
X261000Y280000D02*
Y286000D01*
X260328Y285328D02*
X261000Y286000D01*
X310180Y395180D02*
Y411890D01*
X311000Y377000D02*
X320000D01*
X322880Y379880D02*
Y411890D01*
X302000Y385000D02*
X313000D01*
X316520Y388520D02*
Y411890D01*
X363300Y537700D02*
X376000Y525000D01*
X363100Y537700D02*
X363300D01*
X376000Y492000D02*
Y525000D01*
X371000Y487000D02*
X376000Y492000D01*
X330000Y487000D02*
X371000D01*
X327000Y479000D02*
Y484000D01*
X330000Y487000D01*
X324045Y467275D02*
Y476045D01*
X327000Y479000D01*
X322880Y466110D02*
X324045Y467275D01*
X317000Y480500D02*
X319000Y482500D01*
X317000Y477230D02*
Y480500D01*
X316520Y476750D02*
X317000Y477230D01*
X316520Y466110D02*
Y476750D01*
X363100Y501680D02*
Y512300D01*
Y501680D02*
X363172Y501609D01*
Y497172D02*
Y501609D01*
X359500Y493500D02*
X363172Y497172D01*
X322000Y493500D02*
X359500D01*
X316520Y466110D02*
X317000Y466590D01*
X310000Y466290D02*
Y482500D01*
Y493500D02*
Y501000D01*
X312300Y503300D02*
Y512300D01*
X310000Y501000D02*
X312300Y503300D01*
X325000Y525000D02*
X337700Y512300D01*
X302000Y525000D02*
X325000D01*
X300000Y523000D02*
X302000Y525000D01*
X300000Y503000D02*
Y523000D01*
X297480Y466110D02*
Y500480D01*
X300000Y503000D01*
X215000Y395000D02*
X227050D01*
X227175Y395125D01*
X215000Y378000D02*
X239000D01*
X215000Y395000D02*
Y410430D01*
X215400Y410830D01*
X270620Y338000D02*
X278488D01*
X288000Y347512D01*
X270120Y337500D02*
X270620Y338000D01*
X270120Y332500D02*
X282500D01*
X307000Y357000D01*
X270120Y322500D02*
X293500D01*
X307000Y336000D01*
X270120Y327500D02*
X288500D01*
X307000Y346000D01*
X302000Y325000D02*
X307000D01*
X270120Y317500D02*
X294500D01*
X302000Y325000D01*
X243000Y347000D02*
Y374000D01*
X247500Y342500D02*
X270120D01*
X203000Y389000D02*
Y394500D01*
X206493Y385507D02*
X243715D01*
X248000Y350000D02*
Y381222D01*
X250500Y347500D02*
X270120D01*
X307000Y292000D02*
X320500D01*
X302799Y296201D02*
X302799Y296201D01*
X273000Y257000D02*
Y273000D01*
X307000Y357000D02*
X320500D01*
X261000Y220000D02*
X273500D01*
X258000Y223000D02*
Y244500D01*
X208000Y366000D02*
X210000D01*
X213000Y345000D02*
Y363000D01*
X215500Y342500D02*
X225880D01*
X209000Y341000D02*
Y353000D01*
X205000Y336000D02*
Y342000D01*
X212500Y337500D02*
X225880D01*
X189000Y346000D02*
X201000D01*
X208500Y332500D02*
X225880D01*
X205500Y327500D02*
X225880D01*
X189000Y336000D02*
X197000D01*
X189000Y203000D02*
Y234000D01*
X154000Y241000D02*
X182000D01*
X143000Y252000D02*
Y292000D01*
X114000Y298546D02*
X136454D01*
X460500Y369250D02*
Y376000D01*
Y362500D02*
Y369250D01*
X460750Y369500D01*
X474500D01*
X460000Y362000D02*
X460500Y362500D01*
X490000Y385000D02*
Y393000D01*
X474500Y369500D02*
X490000Y385000D01*
X472000Y380000D02*
X472500Y380500D01*
X478500D02*
X485000Y387000D01*
X472500Y380500D02*
X478500D01*
X485000Y387000D02*
Y393000D01*
X303000Y225000D02*
Y231000D01*
X305000Y233000D02*
X311500D01*
X288000D02*
X296000D01*
X303000Y231000D02*
X305000Y233000D01*
X296000Y218000D02*
X303000Y225000D01*
X288500Y214904D02*
Y220000D01*
X288250Y220250D02*
Y232750D01*
Y220250D02*
X288500Y220000D01*
X288000Y233000D02*
X288250Y232750D01*
X296000Y212500D02*
Y218000D01*
X307250Y207500D02*
X310750Y211000D01*
X311500D01*
X296000Y207500D02*
X307250D01*
X153454Y198546D02*
X162000Y190000D01*
X114000Y198546D02*
X153454D01*
X162000Y190000D02*
X273500D01*
X194500Y197500D02*
X266000D01*
X156000Y176000D02*
X272000D01*
X212000Y167000D02*
X278000D01*
X206000Y114454D02*
Y161000D01*
X189000Y292000D02*
X200000D01*
X189000Y280000D02*
X205000D01*
X189000Y303000D02*
X197000D01*
X98957Y171310D02*
X98999Y171352D01*
Y174388D01*
X98000Y165000D02*
X98957Y165957D01*
Y171310D01*
X96000Y177386D02*
X98999Y174388D01*
X84000Y165000D02*
X91000Y172000D01*
Y183092D01*
Y269000D02*
Y283092D01*
X86000Y264000D02*
X91000Y269000D01*
X96000Y277386D02*
X99000Y274386D01*
Y264000D02*
Y274386D01*
X96000Y277386D02*
Y283092D01*
X436647Y91000D02*
X439647Y94000D01*
X421908Y91000D02*
X436647D01*
X427614Y96000D02*
X430612Y98998D01*
X421908Y96000D02*
X427614D01*
X511724Y107724D02*
X518000Y114000D01*
X302920Y296069D02*
X307000Y291210D01*
X306231Y303769D02*
X306234Y303766D01*
X306908Y303326D02*
X307000Y303290D01*
X296500Y302500D02*
X302799Y296201D01*
X302500Y307500D02*
X306231Y303769D01*
X270120Y307500D02*
X302500D01*
X307000Y280000D02*
X320500D01*
X307000Y303000D02*
X320500D01*
X307000Y314000D02*
X320500D01*
X307000Y325000D02*
X320500D01*
X307000Y336000D02*
X320500D01*
X320500Y336000D01*
X307000Y346000D02*
X320500D01*
X320465Y314035D02*
X320500Y314000D01*
X80000Y448647D02*
X83750Y444897D01*
Y437000D02*
Y444897D01*
X80000Y448647D02*
Y450000D01*
X71000Y352000D02*
X80000D01*
X74353Y339000D02*
X83750D01*
X80000Y350647D02*
Y352000D01*
Y350647D02*
X83750Y346897D01*
Y339000D02*
Y346897D01*
X71000Y450000D02*
X80000D01*
X71000Y439000D02*
X72353D01*
X74353Y437000D01*
X83750D01*
X87999Y303546D02*
X91454D01*
X91000Y368353D02*
Y383092D01*
Y368353D02*
X94000Y365353D01*
Y364000D02*
Y365353D01*
X96000Y327000D02*
Y337000D01*
Y309000D02*
Y318000D01*
Y377386D02*
Y383092D01*
Y319000D02*
Y327000D01*
X98999Y373035D02*
Y374388D01*
X96000Y377386D02*
X98999Y374388D01*
X87999Y388500D02*
X92000D01*
X87999Y403546D02*
X91454D01*
X96000Y409000D02*
Y418000D01*
X98500Y394070D02*
Y396046D01*
Y394070D02*
X99024Y393546D01*
X104001D01*
X96000Y427000D02*
Y437000D01*
Y419000D02*
Y427000D01*
X104525Y403816D02*
X106894Y408455D01*
X104271Y393276D02*
X107724D01*
X108675Y409546D02*
X114000D01*
X107724Y393276D02*
X114000Y387000D01*
Y409546D02*
X124954D01*
X96000Y177386D02*
Y183092D01*
X87999Y203546D02*
X91454D01*
X87999Y188500D02*
X92000D01*
X74353Y237000D02*
X83750D01*
X71000Y250000D02*
X80000D01*
X71000Y239000D02*
X72353D01*
X74353Y237000D01*
X87999Y288500D02*
X92000D01*
X98500Y194070D02*
Y196046D01*
Y194070D02*
X99024Y193546D01*
X104001D01*
X98500Y294070D02*
Y296046D01*
Y294070D02*
X99024Y293546D01*
X104001D01*
X71000Y341000D02*
X72353D01*
X74353Y339000D01*
X83750Y237000D02*
Y244897D01*
X80000Y248647D02*
Y250000D01*
Y248647D02*
X83750Y244897D01*
X96000Y209000D02*
Y218000D01*
Y219000D02*
Y227000D01*
Y237000D01*
X104525Y303816D02*
X106894Y308455D01*
X108675Y309546D02*
X114000D01*
X104271Y293276D02*
X107724D01*
X104001Y298546D02*
X114000D01*
X107724Y293276D02*
X114000Y287000D01*
Y309546D02*
X124954D01*
X108675Y209546D02*
X114000D01*
X104525Y203816D02*
X106894Y208455D01*
X104271Y193276D02*
X107724D01*
X104001Y198546D02*
X114000D01*
X107724Y193276D02*
X114000Y187000D01*
Y209546D02*
X124954D01*
X289500Y297500D02*
X307000Y280000D01*
X270120Y297500D02*
X289500D01*
X270120Y302500D02*
X296500D01*
X270120Y312500D02*
X304688D01*
X306188Y314000D01*
X307000D01*
X179500Y280000D02*
X189000D01*
Y292000D02*
Y292000D01*
X179500Y292000D02*
X189000D01*
Y303000D02*
Y303000D01*
X179500Y303000D02*
X189000D01*
Y314000D02*
Y314000D01*
X179500Y314000D02*
X189000D01*
Y325000D02*
Y325000D01*
X179500Y325000D02*
X189000D01*
Y336000D02*
Y336000D01*
X179500Y336000D02*
X189000D01*
X179500Y346000D02*
X189000D01*
X207650Y282650D02*
Y300000D01*
X210150Y302500D02*
X225880D01*
X203000Y295000D02*
Y305000D01*
X205500Y307500D02*
X225880D01*
X199000Y305000D02*
Y310000D01*
X201500Y312500D02*
X225880D01*
X189778Y314000D02*
X193278Y317500D01*
X189000Y314000D02*
X189778D01*
X193278Y317500D02*
X225880D01*
X189000Y325000D02*
X199000D01*
X201500Y322500D01*
X225880D01*
X507000Y114546D02*
Y150000D01*
X506454Y104001D02*
Y114000D01*
X406454Y104001D02*
Y114000D01*
X406000Y114454D02*
Y144000D01*
X293000Y146000D02*
X300000D01*
X288500Y150500D02*
Y190000D01*
X206454Y104001D02*
Y114000D01*
X283500Y172500D02*
Y190000D01*
X106454Y114000D02*
Y137454D01*
X117750Y151000D02*
X143000D01*
X149000Y157000D02*
Y169000D01*
X278500Y182500D02*
Y190000D01*
X159500Y453000D02*
Y465000D01*
X306454Y114000D02*
Y139546D01*
X277000Y96000D02*
X296000D01*
X179500Y325000D02*
X179535Y324965D01*
X179500Y303000D02*
X179535Y302965D01*
X136647Y91000D02*
X139647Y94000D01*
X141000D01*
X121908Y91000D02*
X136647D01*
X179500Y280000D02*
X179535Y279965D01*
X127614Y96000D02*
X130612Y98998D01*
X131965D01*
X121908Y96000D02*
X127614D01*
X110930Y98500D02*
X111454Y99024D01*
Y104001D01*
X108954Y98500D02*
X110930D01*
X95454Y114000D02*
Y124954D01*
X111724Y107724D02*
X118000Y114000D01*
X111724Y104271D02*
Y107724D01*
X210930Y98500D02*
X211454Y99024D01*
Y104001D01*
X208954Y98500D02*
X210930D01*
X195454Y114000D02*
Y124954D01*
X211724Y107724D02*
X218000Y114000D01*
X211724Y104271D02*
Y107724D01*
X308954Y98500D02*
X310930D01*
X311454Y99024D02*
Y104001D01*
X310930Y98500D02*
X311454Y99024D01*
X295454Y114000D02*
Y124954D01*
X311724Y107724D02*
X318000Y114000D01*
X311724Y104271D02*
Y107724D01*
X410930Y98500D02*
X411454Y99024D01*
Y104001D01*
X408954Y98500D02*
X410930D01*
X395454Y114000D02*
Y124954D01*
X411724Y107724D02*
X418000Y114000D01*
X411724Y104271D02*
Y107724D01*
X511454Y104001D02*
X511724Y104271D01*
Y107724D01*
X510930Y98500D02*
X511454Y99024D01*
X508954Y98500D02*
X510930D01*
X495454Y124954D02*
X495500Y125000D01*
X495454Y114000D02*
Y124954D01*
X236647Y91000D02*
X239647Y94000D01*
X221908Y91000D02*
X236647D01*
X239647Y94000D02*
X241000D01*
X227614Y96000D02*
X230612Y98998D01*
X221908Y96000D02*
X227614D01*
X230612Y98998D02*
X231965D01*
X336647Y91000D02*
X339647Y94000D01*
X321908Y91000D02*
X336647D01*
X339647Y94000D02*
X341000D01*
X330612Y98998D02*
X331965D01*
X321908Y96000D02*
X327614D01*
X330612Y98998D01*
X439647Y94000D02*
X441000D01*
X430612Y98998D02*
X431965D01*
X536647Y91000D02*
X539647Y94000D01*
X521908Y91000D02*
X536647D01*
X539647Y94000D02*
X541000D01*
X521908Y96000D02*
X527614D01*
X530612Y98998D01*
X531965D01*
X55000Y80000D02*
X56353D01*
X60103Y83750D01*
X68000D01*
X66000Y71000D02*
Y72353D01*
X68000Y74353D02*
Y83750D01*
X66000Y72353D02*
X68000Y74353D01*
X55000Y71000D02*
Y80000D01*
X154000D02*
X155353D01*
X159103Y83750D01*
X167000D01*
X165000Y71000D02*
Y72353D01*
X167000Y74353D02*
Y83750D01*
X165000Y72353D02*
X167000Y74353D01*
X154000Y71000D02*
Y80000D01*
X265000Y71000D02*
Y72353D01*
X267000Y74353D01*
X354000Y80000D02*
X355353D01*
X359103Y83750D01*
X367000D01*
X365000Y71000D02*
Y72353D01*
X367000Y74353D02*
Y83750D01*
X365000Y72353D02*
X367000Y74353D01*
X354000Y71000D02*
Y80000D01*
X454000Y71000D02*
Y80000D01*
X465000Y72353D02*
X467000Y74353D01*
Y83750D01*
X465000Y71000D02*
Y72353D01*
X459103Y83750D02*
X467000D01*
X455353Y80000D02*
X459103Y83750D01*
X454000Y80000D02*
X455353D01*
X106454Y104001D02*
Y114000D01*
X95454Y108675D02*
Y114000D01*
X96545Y106894D02*
X101184Y104525D01*
X195454Y108675D02*
Y114000D01*
X196545Y106894D02*
X201184Y104525D01*
X306454Y104001D02*
Y114000D01*
X295454Y108675D02*
Y114000D01*
X296545Y106894D02*
X301184Y104525D01*
X395454Y108675D02*
Y114000D01*
X396545Y106894D02*
X401184Y104525D01*
X496545Y106894D02*
X501184Y104525D01*
X495454Y108675D02*
Y114000D01*
X501184Y104525D02*
X501454Y104001D01*
X101454Y87999D02*
Y91454D01*
X116500Y87999D02*
Y92000D01*
X201454Y87999D02*
Y91454D01*
X216500Y87999D02*
Y92000D01*
X301454Y87999D02*
Y91454D01*
X316500Y87999D02*
Y92000D01*
X401454Y87999D02*
Y91454D01*
X416500Y87999D02*
Y92000D01*
X516500Y87999D02*
Y92000D01*
X501454Y87999D02*
Y91454D01*
X87000Y96000D02*
X96000D01*
X78000D02*
X86000D01*
X68000D02*
X78000D01*
X187000D02*
X196000D01*
X177000D02*
X185000D01*
X167000D02*
X177000D01*
X267000D02*
X277000D01*
X487000D02*
X496000D01*
X477000D02*
X485000D01*
X467000D02*
X477000D01*
X367000D02*
X377000D01*
X385000D01*
X387000D02*
X396000D01*
X519957Y376250D02*
X520457D01*
D15*
X287500Y365500D02*
G03*
X288000Y366000I0J500D01*
G01*
X566500Y190500D02*
X582000D01*
X489500Y202500D02*
X503500D01*
X504000Y203000D01*
X489000Y202000D02*
X489500Y202500D01*
X514000Y203000D02*
X514000Y203000D01*
Y194000D02*
Y203000D01*
X489000Y214000D02*
X499918D01*
X502918Y217000D02*
X504000D01*
X499918Y214000D02*
X502918Y217000D01*
X557500Y268500D02*
X558000Y268000D01*
X536500Y268500D02*
X557500D01*
X536000Y269000D02*
X536500Y268500D01*
X508000Y237000D02*
X514000Y231000D01*
X488764Y237000D02*
X508000D01*
X489000Y202000D02*
Y214000D01*
X579000Y171500D02*
X579000Y171500D01*
X588000D01*
X566500Y171500D02*
X579000D01*
X561000Y142082D02*
X566000Y147082D01*
X561000Y141000D02*
Y142082D01*
X566000Y147082D02*
Y158000D01*
X599500Y194000D02*
X617000D01*
X577500Y158765D02*
X579000Y160265D01*
Y160500D01*
X566765Y158765D02*
X577500D01*
X566000Y158000D02*
X566765Y158765D01*
X552500Y158000D02*
X566000D01*
X541500D02*
Y171500D01*
X558000Y214000D02*
Y236000D01*
X554000Y210000D02*
X558000Y214000D01*
X554000Y184000D02*
Y210000D01*
X551000Y181000D02*
X554000Y184000D01*
X541500Y181000D02*
X551000D01*
X514000Y176000D02*
Y194000D01*
Y176000D02*
X518500Y171500D01*
X541500D01*
X514000Y194000D02*
X517500Y190500D01*
X541500D01*
X478000Y202000D02*
Y214000D01*
X535839Y245750D02*
X536000Y245911D01*
Y258000D01*
X518750Y226250D02*
X535839D01*
X514375Y245375D02*
X535464D01*
X535839Y239250D02*
X554209D01*
X553000Y242430D02*
Y261000D01*
X552920Y242350D02*
X553000Y242430D01*
X554209Y239250D02*
X557459Y236000D01*
X558000D01*
X580162Y226250D02*
X581098D01*
X581757Y225591D01*
Y222000D02*
Y225591D01*
Y222000D02*
X597500D01*
X580286Y232875D02*
X597375D01*
X580162Y232750D02*
X580286Y232875D01*
X597375D02*
X597500Y233000D01*
X580162Y226250D02*
Y232750D01*
X529500Y425000D02*
X529750Y425250D01*
Y437750D01*
X530000Y438000D01*
Y451000D01*
X528000Y411000D02*
X529500Y412500D01*
Y425000D01*
X528000Y411000D02*
X528000D01*
X515125Y398875D02*
X517000Y400750D01*
Y411000D01*
Y425000D01*
X456000Y394082D02*
X458000Y392082D01*
X456000Y394082D02*
Y406500D01*
X458000Y391000D02*
Y392082D01*
X447000Y406500D02*
X456000D01*
X226000Y352500D02*
Y366000D01*
X225880Y352500D02*
X226000D01*
X225880Y347500D02*
Y352500D01*
X278500Y361000D02*
Y370000D01*
X182000Y384000D02*
Y394875D01*
Y384000D02*
X188500Y377500D01*
X206000D01*
X125000Y420500D02*
Y421000D01*
X125000Y421000D02*
X125000Y421000D01*
Y432000D01*
X165000Y406000D02*
Y418000D01*
X175000D02*
X175069Y417931D01*
Y405931D02*
Y417931D01*
X165000Y406000D02*
X165069Y405931D01*
X175069D01*
X202700Y394800D02*
Y410830D01*
X267500Y352500D02*
Y361000D01*
X206000Y377500D02*
X206250Y377750D01*
X267500Y352500D02*
X270120D01*
X190000Y396250D02*
Y410830D01*
Y396250D02*
X191375Y394875D01*
X408000Y404750D02*
X419750D01*
X421000Y406000D01*
X396375Y405125D02*
X407625D01*
X396000Y405500D02*
X396375Y405125D01*
X407625D02*
X408000Y404750D01*
X396000Y416500D02*
Y428000D01*
X408000Y417250D02*
Y428000D01*
X498500Y346500D02*
X499000Y346000D01*
X498500Y346500D02*
Y360000D01*
X430000Y376400D02*
Y410000D01*
Y376400D02*
X431000Y375400D01*
X430000Y410000D02*
X437500Y417500D01*
X466809D02*
X467959Y418650D01*
X468500D01*
X431300Y375700D02*
X448450D01*
X448750Y376000D01*
X431000Y375400D02*
X431300Y375700D01*
X448750Y376000D02*
X449500D01*
X283500Y225000D02*
X283500Y225000D01*
X283500Y220000D02*
Y225000D01*
X279000Y232751D02*
X283500Y228251D01*
X279000Y232751D02*
Y244500D01*
X283500Y225000D02*
Y228251D01*
X75000Y319000D02*
X85000D01*
X76000Y329500D02*
X85000D01*
X75000Y419000D02*
X85000D01*
X75500Y427500D02*
X84500D01*
X75000Y219000D02*
X85000D01*
X75500Y227500D02*
X84500D01*
X124977Y231977D02*
X125000Y232000D01*
X124954Y220546D02*
X124977Y220569D01*
Y231977D01*
X125000Y320500D02*
Y332000D01*
X202650Y410880D02*
X202700Y410830D01*
X189950Y410880D02*
X189975Y410855D01*
X175138Y394863D02*
X175163Y394837D01*
X187000Y493000D02*
X198000D01*
X211000D01*
X215350Y465120D02*
Y488650D01*
X211000Y493000D02*
X215350Y488650D01*
X187000Y482000D02*
X197500D01*
X198000D02*
X198765Y481235D01*
X201658D01*
X202650Y465120D02*
Y480243D01*
X201658Y481235D02*
X202650Y480243D01*
X285000Y75000D02*
Y85000D01*
X73000Y125000D02*
X84500D01*
X173000D02*
X184500D01*
X273000D02*
X284500D01*
X373000D02*
X384500D01*
X511454Y99024D02*
Y104001D01*
X473000Y125000D02*
X484500D01*
X86000Y75000D02*
Y85000D01*
X77500Y75500D02*
Y84500D01*
X185000Y75000D02*
Y85000D01*
X176500Y75500D02*
Y84500D01*
X276500Y75500D02*
Y84500D01*
X485000Y75000D02*
Y85000D01*
X476500Y75500D02*
Y84500D01*
X376500D02*
X377000Y85000D01*
X376500Y75500D02*
Y84500D01*
X376000Y75000D02*
X376500Y75500D01*
X385000Y75000D02*
Y85000D01*
D18*
X480000Y393000D02*
D03*
X485000D02*
D03*
X490000D02*
D03*
D19*
X541500Y190500D02*
D03*
Y181000D02*
D03*
Y171500D02*
D03*
X566500D02*
D03*
Y190500D02*
D03*
D20*
X329220Y466110D02*
D03*
X322880D02*
D03*
X316520D02*
D03*
X310180D02*
D03*
X303820D02*
D03*
X297480D02*
D03*
X291120D02*
D03*
X284780D02*
D03*
Y411890D02*
D03*
X291120D02*
D03*
X297480D02*
D03*
X303820D02*
D03*
X310180D02*
D03*
X316520D02*
D03*
X322880D02*
D03*
X329220D02*
D03*
D21*
X190000Y410830D02*
D03*
X202700D02*
D03*
X215400D02*
D03*
X228100D02*
D03*
Y465070D02*
D03*
X215400D02*
D03*
X202700D02*
D03*
X190000D02*
D03*
D22*
X541500Y158000D02*
D03*
X552500D02*
D03*
X599500Y194000D02*
D03*
X588500D02*
D03*
X267500Y370000D02*
D03*
X278500D02*
D03*
X96000Y219000D02*
D03*
X85000D02*
D03*
X96000Y227000D02*
D03*
X85000D02*
D03*
X85500Y320000D02*
D03*
X96500D02*
D03*
Y329000D02*
D03*
X85500D02*
D03*
X96000Y419000D02*
D03*
X85000D02*
D03*
X96000Y427000D02*
D03*
X85000D02*
D03*
X487500Y360000D02*
D03*
X498500D02*
D03*
X487500Y370000D02*
D03*
X498500D02*
D03*
X168500Y325000D02*
D03*
X179500D02*
D03*
X168500Y336000D02*
D03*
X179500D02*
D03*
X168500Y346000D02*
D03*
X179500D02*
D03*
X168500Y357000D02*
D03*
X179500D02*
D03*
X168500Y280000D02*
D03*
X179500D02*
D03*
X168500Y292000D02*
D03*
X179500D02*
D03*
X168500Y303000D02*
D03*
X179500D02*
D03*
X168500Y314000D02*
D03*
X179500D02*
D03*
X106454Y114000D02*
D03*
X95454D02*
D03*
X96000Y125000D02*
D03*
X85000D02*
D03*
X331500Y292000D02*
D03*
X320500D02*
D03*
X331500Y280000D02*
D03*
X320500D02*
D03*
X331500Y314000D02*
D03*
X320500D02*
D03*
X331500Y303000D02*
D03*
X320500D02*
D03*
X206454Y114000D02*
D03*
X195454D02*
D03*
X306454D02*
D03*
X295454D02*
D03*
X196000Y125000D02*
D03*
X185000D02*
D03*
X295000D02*
D03*
X284000D02*
D03*
X331500Y336000D02*
D03*
X320500D02*
D03*
X331500Y325000D02*
D03*
X320500D02*
D03*
X406454Y114000D02*
D03*
X395454D02*
D03*
X396000Y125000D02*
D03*
X385000D02*
D03*
X495500D02*
D03*
X484500D02*
D03*
X506454Y114000D02*
D03*
X495454D02*
D03*
X331500Y346000D02*
D03*
X320500D02*
D03*
Y357000D02*
D03*
X331500D02*
D03*
X528000Y411000D02*
D03*
X517000D02*
D03*
X489000Y214000D02*
D03*
X478000D02*
D03*
Y202000D02*
D03*
X489000D02*
D03*
X608500Y222000D02*
D03*
X597500D02*
D03*
X311500D02*
D03*
X322500D02*
D03*
X322500Y211000D02*
D03*
X311500D02*
D03*
X311500Y233000D02*
D03*
X322500D02*
D03*
X351500Y407000D02*
D03*
X340500D02*
D03*
X357000Y457000D02*
D03*
X368000D02*
D03*
X278500Y361000D02*
D03*
X267500D02*
D03*
X159500Y465000D02*
D03*
X170500D02*
D03*
X597500Y233000D02*
D03*
X608500D02*
D03*
X351500Y417000D02*
D03*
X340500D02*
D03*
X357000Y466000D02*
D03*
X368000D02*
D03*
X170500Y453000D02*
D03*
X159500D02*
D03*
X449500Y376000D02*
D03*
X460500D02*
D03*
X191750Y394750D02*
D03*
X202750D02*
D03*
X227175Y395125D02*
D03*
X238175D02*
D03*
X176000Y482000D02*
D03*
X187000D02*
D03*
Y493000D02*
D03*
X176000D02*
D03*
D23*
X101000Y209000D02*
D03*
Y183092D02*
D03*
X91000Y209000D02*
D03*
X96000D02*
D03*
Y183092D02*
D03*
X91000D02*
D03*
X101000Y309000D02*
D03*
Y283092D02*
D03*
X91000Y309000D02*
D03*
X96000D02*
D03*
Y283092D02*
D03*
X91000D02*
D03*
X101000Y409000D02*
D03*
Y383092D02*
D03*
X91000Y409000D02*
D03*
X96000D02*
D03*
Y383092D02*
D03*
X91000D02*
D03*
X216454Y104001D02*
D03*
X211454Y87999D02*
D03*
X201454Y104001D02*
D03*
X206454D02*
D03*
X211454D02*
D03*
X216454Y87999D02*
D03*
X206454D02*
D03*
X201454D02*
D03*
X316454Y104001D02*
D03*
X311454Y87999D02*
D03*
X301454Y104001D02*
D03*
X306454D02*
D03*
X311454D02*
D03*
X316454Y87999D02*
D03*
X306454D02*
D03*
X301454D02*
D03*
X501454D02*
D03*
X506454D02*
D03*
X511454D02*
D03*
X516454D02*
D03*
Y104001D02*
D03*
X511454D02*
D03*
X506454D02*
D03*
X501454D02*
D03*
X101454Y87999D02*
D03*
X106454D02*
D03*
X116454D02*
D03*
X111454Y104001D02*
D03*
X106454D02*
D03*
X101454D02*
D03*
X401454Y87999D02*
D03*
X406454D02*
D03*
X416454D02*
D03*
X411454Y104001D02*
D03*
X406454D02*
D03*
X401454D02*
D03*
X111454Y87999D02*
D03*
X116454Y104001D02*
D03*
X411454Y87999D02*
D03*
X416454Y104001D02*
D03*
D24*
X104001Y188546D02*
D03*
X87999Y193546D02*
D03*
X104001Y203546D02*
D03*
Y198546D02*
D03*
Y193546D02*
D03*
X87999Y188546D02*
D03*
Y198546D02*
D03*
Y203546D02*
D03*
X104001Y288546D02*
D03*
X87999Y293546D02*
D03*
X104001Y303546D02*
D03*
Y298546D02*
D03*
Y293546D02*
D03*
X87999Y288546D02*
D03*
Y298546D02*
D03*
Y303546D02*
D03*
X104001Y388546D02*
D03*
X87999Y393546D02*
D03*
X104001Y403546D02*
D03*
Y398546D02*
D03*
Y393546D02*
D03*
X87999Y388546D02*
D03*
Y398546D02*
D03*
Y403546D02*
D03*
X196000Y101000D02*
D03*
X221908D02*
D03*
X196000Y91000D02*
D03*
Y96000D02*
D03*
X221908D02*
D03*
Y91000D02*
D03*
X296000Y101000D02*
D03*
X321908D02*
D03*
X296000Y91000D02*
D03*
Y96000D02*
D03*
X321908D02*
D03*
Y91000D02*
D03*
X521908D02*
D03*
Y96000D02*
D03*
Y101000D02*
D03*
X496000D02*
D03*
Y96000D02*
D03*
Y91000D02*
D03*
X121908D02*
D03*
Y96000D02*
D03*
X96000D02*
D03*
Y91000D02*
D03*
X421908D02*
D03*
Y96000D02*
D03*
X396000D02*
D03*
Y91000D02*
D03*
X121908Y101000D02*
D03*
X96000D02*
D03*
X421908D02*
D03*
X396000D02*
D03*
D25*
X98500Y196046D02*
D03*
Y296046D02*
D03*
Y396046D02*
D03*
D26*
X94000Y196046D02*
D03*
Y296046D02*
D03*
Y396046D02*
D03*
D27*
X96250Y237000D02*
D03*
X83750D02*
D03*
X96250Y339000D02*
D03*
X83750D02*
D03*
X96250Y437000D02*
D03*
X83750D02*
D03*
X517000Y425000D02*
D03*
X529500D02*
D03*
D28*
X114000Y209546D02*
D03*
Y198546D02*
D03*
X124954Y220546D02*
D03*
Y209546D02*
D03*
X114000Y309546D02*
D03*
Y298546D02*
D03*
Y409546D02*
D03*
Y398546D02*
D03*
X125000Y421000D02*
D03*
Y410000D02*
D03*
Y321000D02*
D03*
Y310000D02*
D03*
X206000Y377500D02*
D03*
Y366500D02*
D03*
X285000Y96000D02*
D03*
Y85000D02*
D03*
X588000Y182500D02*
D03*
Y171500D02*
D03*
X579000Y160500D02*
D03*
Y171500D02*
D03*
X377000Y85000D02*
D03*
Y96000D02*
D03*
X86000Y85000D02*
D03*
Y96000D02*
D03*
X78000Y85000D02*
D03*
Y96000D02*
D03*
X185000Y85000D02*
D03*
Y96000D02*
D03*
X177000Y85000D02*
D03*
Y96000D02*
D03*
X277000Y85000D02*
D03*
Y96000D02*
D03*
X385000Y85000D02*
D03*
Y96000D02*
D03*
X485000Y85000D02*
D03*
Y96000D02*
D03*
X477000Y85000D02*
D03*
Y96000D02*
D03*
X396000Y405500D02*
D03*
Y416500D02*
D03*
X456000Y417500D02*
D03*
Y406500D02*
D03*
X447000D02*
D03*
Y417500D02*
D03*
X475000Y259500D02*
D03*
Y270500D02*
D03*
X536000Y269000D02*
D03*
Y258000D02*
D03*
X462000Y259500D02*
D03*
Y270500D02*
D03*
X285500Y244500D02*
D03*
Y255500D02*
D03*
X295000D02*
D03*
Y244500D02*
D03*
X175138Y394863D02*
D03*
Y405863D02*
D03*
X165000Y406000D02*
D03*
Y395000D02*
D03*
X460000Y351000D02*
D03*
Y362000D02*
D03*
X258000Y255500D02*
D03*
Y244500D02*
D03*
X310000Y482500D02*
D03*
Y493500D02*
D03*
X272500Y244500D02*
D03*
Y255500D02*
D03*
X319000Y493500D02*
D03*
Y482500D02*
D03*
D29*
X270120Y352500D02*
D03*
Y347500D02*
D03*
Y342500D02*
D03*
Y337500D02*
D03*
Y332500D02*
D03*
Y327500D02*
D03*
Y322500D02*
D03*
Y317500D02*
D03*
Y312500D02*
D03*
Y307500D02*
D03*
Y302500D02*
D03*
Y297500D02*
D03*
X225880D02*
D03*
Y302500D02*
D03*
Y307500D02*
D03*
Y312500D02*
D03*
Y317500D02*
D03*
Y322500D02*
D03*
Y327500D02*
D03*
Y332500D02*
D03*
Y337500D02*
D03*
Y342500D02*
D03*
Y347500D02*
D03*
Y352500D02*
D03*
D30*
X208954Y98500D02*
D03*
X308954D02*
D03*
X508954D02*
D03*
X108954D02*
D03*
X408954D02*
D03*
D31*
X208954Y94000D02*
D03*
X308954D02*
D03*
X508954D02*
D03*
X108954D02*
D03*
X408954D02*
D03*
D32*
X273500Y190000D02*
D03*
X278500D02*
D03*
X283500D02*
D03*
X288500D02*
D03*
Y220000D02*
D03*
X283500D02*
D03*
X278500D02*
D03*
X273500D02*
D03*
D33*
X296000Y197500D02*
D03*
Y202500D02*
D03*
Y207500D02*
D03*
Y212500D02*
D03*
X266000D02*
D03*
Y207500D02*
D03*
Y202500D02*
D03*
Y197500D02*
D03*
D34*
X281000Y205000D02*
D03*
D35*
X519957Y345250D02*
D03*
Y376250D02*
D03*
D36*
X488764Y237000D02*
D03*
X463237D02*
D03*
D37*
X580162Y226250D02*
D03*
Y232750D02*
D03*
Y239250D02*
D03*
Y245750D02*
D03*
X535839D02*
D03*
Y239250D02*
D03*
Y232750D02*
D03*
Y226250D02*
D03*
D38*
X558000Y236000D02*
D03*
D39*
X408000Y404750D02*
D03*
Y417250D02*
D03*
X367000Y96000D02*
D03*
Y83500D02*
D03*
X68000Y83750D02*
D03*
Y96250D02*
D03*
X167000Y83750D02*
D03*
Y96250D02*
D03*
X267000Y83750D02*
D03*
Y96250D02*
D03*
X467000D02*
D03*
Y83750D02*
D03*
D63*
X430000Y375000D02*
D03*
Y349600D02*
D03*
Y298800D02*
D03*
Y248000D02*
D03*
D64*
X35000Y35000D02*
D03*
X615000D02*
D03*
X35000Y525000D02*
D03*
X615000D02*
D03*
D65*
X332000Y279500D02*
G03*
X331500Y280000I-500J0D01*
G01*
X344000Y257000D02*
G03*
X351000Y264000I0J7000D01*
G01*
X305793Y244500D02*
G03*
X307000Y245000I0J1707D01*
G01*
X317000Y146000D02*
X340000D01*
X332000Y268000D02*
Y279500D01*
X331500Y280000D02*
Y292000D01*
X351000Y264000D02*
Y372000D01*
X335000Y382000D02*
Y400000D01*
X345000Y378000D02*
X351000Y372000D01*
X337000Y257000D02*
X344000D01*
X311252D02*
X337000D01*
X168500Y266500D02*
Y280000D01*
Y266500D02*
X169000Y266000D01*
X462500Y237736D02*
Y259000D01*
X462000Y259500D02*
X462500Y259000D01*
Y237736D02*
X463237Y237000D01*
X339000Y378000D02*
X345000D01*
X335000Y382000D02*
X339000Y378000D01*
X182000Y394875D02*
X191375D01*
X165125D02*
X182000D01*
X268000Y386000D02*
X284000D01*
X258000D02*
X268000D01*
X267500Y385500D02*
X268000Y386000D01*
X267500Y370000D02*
Y385500D01*
X238175Y395125D02*
X238300Y395000D01*
X249000D01*
X258000Y386000D01*
X284000D02*
X302000Y368000D01*
X326000D01*
X330250Y363750D01*
Y357500D02*
X330750Y357000D01*
X330250Y357500D02*
Y363750D01*
X330750Y357000D02*
X331500D01*
X267500Y361000D02*
Y370000D01*
X168000Y357500D02*
X168500Y357000D01*
X168000Y357500D02*
Y371000D01*
X168500Y357000D02*
X168500D01*
X165000Y374000D02*
Y395000D01*
Y374000D02*
X168000Y371000D01*
X165000Y395000D02*
X165125Y394875D01*
X462000Y259500D02*
X475000D01*
X499000Y398875D02*
X515125D01*
X498125D02*
X499000D01*
Y370500D02*
Y398875D01*
X519957Y376250D02*
X520000Y376293D01*
Y394000D01*
X515125Y398875D02*
X520000Y394000D01*
X498500Y370000D02*
X499000Y370500D01*
X258000Y466000D02*
X258110Y466110D01*
X228050Y465120D02*
X244880D01*
X246000Y464000D01*
X295000Y255500D02*
Y267000D01*
X285250Y255750D02*
X285500Y255500D01*
X285250Y255750D02*
Y266750D01*
X285000Y267000D02*
X285250Y266750D01*
X295000Y244500D02*
X305793D01*
X279000D02*
X285500D01*
X272500D02*
X279000D01*
X285500D02*
X295000D01*
X285500Y255500D02*
X295000D01*
X322000Y243000D02*
X322250Y242750D01*
Y233250D02*
X322500Y233000D01*
X322250Y233250D02*
Y242750D01*
X322500Y222000D02*
Y233000D01*
X322500Y211000D02*
X322500Y211000D01*
Y222000D01*
X322750Y203250D02*
X323000Y203000D01*
X322500Y211000D02*
X322750Y210750D01*
Y203250D02*
Y210750D01*
X331500Y346000D02*
Y357000D01*
Y336000D02*
Y346000D01*
Y325000D02*
Y336000D01*
Y314000D02*
Y325000D01*
Y303000D02*
Y314000D01*
Y292000D02*
Y303000D01*
X168500Y346000D02*
Y357000D01*
Y336000D02*
Y346000D01*
Y325000D02*
Y336000D01*
Y314000D02*
Y325000D01*
Y303000D02*
Y314000D01*
Y292000D02*
Y303000D01*
Y280000D02*
Y292000D01*
D66*
X93962Y301120D02*
G03*
X93960Y301000I3014J-121D01*
G01*
X93962Y401120D02*
G03*
X93960Y401000I3014J-121D01*
G01*
X93962Y201120D02*
G03*
X93960Y201000I3014J-121D01*
G01*
X103880Y93962D02*
G03*
X104000Y93960I121J3014D01*
G01*
X203880Y93962D02*
G03*
X204000Y93960I121J3014D01*
G01*
X303880Y93962D02*
G03*
X304000Y93960I121J3014D01*
G01*
X403880Y93962D02*
G03*
X404000Y93960I121J3014D01*
G01*
X503880Y93962D02*
G03*
X504000Y93960I121J3014D01*
G01*
X87999Y388500D02*
Y388546D01*
Y303546D02*
X88116Y303429D01*
X87999Y403546D02*
X88116Y403429D01*
X93960Y390460D02*
Y401000D01*
Y190460D02*
Y201000D01*
X87999Y188500D02*
Y188546D01*
Y203546D02*
X88116Y203429D01*
X87999Y288500D02*
Y288546D01*
X93960Y290460D02*
Y301000D01*
X101454Y87999D02*
X101571Y88116D01*
X116454Y87999D02*
X116500D01*
X104000Y93960D02*
X114540D01*
X201454Y87999D02*
X201571Y88116D01*
X216454Y87999D02*
X216500D01*
X204000Y93960D02*
X214540D01*
X301454Y87999D02*
X301571Y88116D01*
X316454Y87999D02*
X316500D01*
X304000Y93960D02*
X314540D01*
X401454Y87999D02*
X401571Y88116D01*
X416454Y87999D02*
X416500D01*
X404000Y93960D02*
X414540D01*
X504000D02*
X514540D01*
X516454Y87999D02*
X516500D01*
X501454D02*
X501571Y88116D01*
D67*
X498125Y398875D02*
D03*
D68*
X496500Y418750D02*
D03*
X473500D02*
D03*
D69*
X472186Y399242D02*
D03*
D70*
X582000Y190500D02*
X591500Y181000D01*
X599000D01*
X609000Y171000D01*
X227000Y149000D02*
X252607D01*
X257000Y144607D01*
Y129000D02*
Y144607D01*
X208000Y218000D02*
Y255000D01*
X169000Y266000D02*
X197000D01*
X208000Y255000D01*
D71*
X430000Y248000D02*
X441000Y237000D01*
X463237D01*
X596000Y410000D02*
Y449000D01*
D72*
X310000Y466290D02*
X310180Y466110D01*
X267000Y256000D02*
X272000D01*
X266000Y231000D02*
X269000Y228000D01*
X266000Y231000D02*
Y255000D01*
X269000Y228000D02*
X278000D01*
X266000Y255000D02*
X267000Y256000D01*
X278500Y220000D02*
Y227500D01*
X278000Y228000D02*
X278500Y227500D01*
D73*
X437500Y417500D02*
X447000D01*
X456000D02*
X466809D01*
X447000D02*
X456000D01*
D74*
X519957Y322043D02*
Y345250D01*
X525000Y317000D02*
X593000D01*
X519957Y322043D02*
X525000Y317000D01*
X593000D02*
X596000Y320000D01*
Y340000D01*
D75*
X487500Y360000D02*
Y370000D01*
X472000Y360000D02*
X487500D01*
X258110Y466110D02*
X284780D01*
X311500Y211000D02*
Y222000D01*
D76*
X31300Y398000D02*
X31846Y398546D01*
X44000Y410700D02*
X45446Y409254D01*
X31846Y398546D02*
X87999D01*
X45446Y409254D02*
X91000D01*
X31300Y198000D02*
X31846Y198546D01*
X44000Y210700D02*
X45446Y209254D01*
X31846Y198546D02*
X87999D01*
X45446Y209254D02*
X91000D01*
X31300Y298000D02*
X31846Y298546D01*
X87999D01*
X44000Y310700D02*
X45446Y309254D01*
X91000D01*
X94300Y44000D02*
X95746Y45446D01*
Y91000D01*
X106454Y31846D02*
X107000Y31300D01*
X106454Y31846D02*
Y87999D01*
X194300Y44000D02*
X195746Y45446D01*
Y91000D01*
X206454Y31846D02*
X207000Y31300D01*
X206454Y31846D02*
Y87999D01*
X294300Y44000D02*
X295746Y45446D01*
Y91000D01*
X306454Y31846D02*
X307000Y31300D01*
X306454Y31846D02*
Y87999D01*
X394300Y44000D02*
X395746Y45446D01*
Y91000D01*
X406454Y31846D02*
X407000Y31300D01*
X406454Y31846D02*
Y87999D01*
X506454Y31846D02*
Y87999D01*
Y31846D02*
X507000Y31300D01*
X495746Y45446D02*
Y91000D01*
X496000D01*
X494300Y44000D02*
X495746Y45446D01*
D77*
X501500Y413650D02*
D03*
Y418650D02*
D03*
Y423650D02*
D03*
X468500Y413650D02*
D03*
Y418650D02*
D03*
Y423650D02*
D03*
X491500Y413650D02*
D03*
Y418650D02*
D03*
Y423650D02*
D03*
X478500Y413650D02*
D03*
Y418650D02*
D03*
Y423650D02*
D03*
X286800Y199200D02*
D03*
X281000Y205000D02*
D03*
X286800Y210800D02*
D03*
X275200D02*
D03*
Y199200D02*
D03*
X563080Y229650D02*
D03*
Y242350D02*
D03*
X552920D02*
D03*
Y229650D02*
D03*
X558000Y236000D02*
D03*
X269000Y399000D02*
D03*
X302000Y385000D02*
D03*
X311000Y377000D02*
D03*
X215000Y378000D02*
D03*
Y395000D02*
D03*
X293000Y392000D02*
D03*
X296000Y233000D02*
D03*
X288000D02*
D03*
X307000Y346000D02*
D03*
Y336000D02*
D03*
Y291210D02*
D03*
Y303290D02*
D03*
Y357000D02*
D03*
Y325000D02*
D03*
Y314000D02*
D03*
Y280000D02*
D03*
X189000D02*
D03*
Y292000D02*
D03*
Y303000D02*
D03*
Y314000D02*
D03*
Y325000D02*
D03*
Y336000D02*
D03*
Y346000D02*
D03*
Y357000D02*
D03*
D78*
X44000Y385300D02*
D03*
Y185300D02*
D03*
Y285300D02*
D03*
D79*
Y410700D02*
D03*
X31300Y398000D02*
D03*
Y198000D02*
D03*
X44000Y210700D02*
D03*
Y310700D02*
D03*
X31300Y298000D02*
D03*
X94300Y44000D02*
D03*
X107000Y31300D02*
D03*
X194300Y44000D02*
D03*
X207000Y31300D02*
D03*
X294300Y44000D02*
D03*
X307000Y31300D02*
D03*
X394300Y44000D02*
D03*
X407000Y31300D02*
D03*
X507000D02*
D03*
X494300Y44000D02*
D03*
D80*
X546000Y375000D02*
D03*
D81*
X596000Y410000D02*
D03*
Y340000D02*
D03*
D82*
X83700Y512300D02*
D03*
D83*
X109100D02*
D03*
X134500D02*
D03*
X159900D02*
D03*
X185300D02*
D03*
X210700D02*
D03*
X83700Y537700D02*
D03*
X109100D02*
D03*
X134500D02*
D03*
X159900D02*
D03*
X185300D02*
D03*
X210700D02*
D03*
X236100Y512300D02*
D03*
Y537700D02*
D03*
X261500Y512300D02*
D03*
X286900D02*
D03*
X312300D02*
D03*
X337700D02*
D03*
X363100D02*
D03*
X388500D02*
D03*
X261500Y537700D02*
D03*
X286900D02*
D03*
X312300D02*
D03*
X337700D02*
D03*
X363100D02*
D03*
X388500D02*
D03*
X413900Y512300D02*
D03*
Y537700D02*
D03*
X439300Y512300D02*
D03*
X464700D02*
D03*
X490100D02*
D03*
X515500D02*
D03*
X540900D02*
D03*
X566300D02*
D03*
X439300Y537700D02*
D03*
X464700D02*
D03*
X490100D02*
D03*
X515500D02*
D03*
X540900D02*
D03*
X566300D02*
D03*
D84*
X119700Y44000D02*
D03*
X219700D02*
D03*
X319700D02*
D03*
X419700D02*
D03*
X519700D02*
D03*
D85*
X317000Y146000D02*
D03*
X340000D02*
D03*
X609000Y171000D02*
D03*
X257000Y129000D02*
D03*
X227000Y149000D02*
D03*
X265000Y43000D02*
D03*
Y58000D02*
D03*
X208000Y218000D02*
D03*
X224000Y228000D02*
D03*
X504000Y203000D02*
D03*
X514000D02*
D03*
X504000Y217000D02*
D03*
X514000D02*
D03*
X448000Y284000D02*
D03*
Y294000D02*
D03*
X558000Y268000D02*
D03*
Y258000D02*
D03*
X597000Y256000D02*
D03*
X585000D02*
D03*
X609000D02*
D03*
X620000D02*
D03*
X616000Y243000D02*
D03*
X572000Y141000D02*
D03*
X561000D02*
D03*
X616000Y190000D02*
D03*
Y204000D02*
D03*
X566000Y158000D02*
D03*
X616000Y215000D02*
D03*
X530000Y451000D02*
D03*
Y438000D02*
D03*
X575000Y449000D02*
D03*
X588000D02*
D03*
X602000D02*
D03*
X616000D02*
D03*
X226000Y366000D02*
D03*
X288000D02*
D03*
X165000Y418000D02*
D03*
X175000D02*
D03*
X462000Y202000D02*
D03*
Y214000D02*
D03*
X216000Y270520D02*
D03*
X216500Y292000D02*
D03*
X234960Y246000D02*
D03*
X261000Y286000D02*
D03*
X269000Y411000D02*
D03*
X257000D02*
D03*
X245000D02*
D03*
X356000Y389000D02*
D03*
Y398000D02*
D03*
X396000Y428000D02*
D03*
X408000D02*
D03*
X422000Y412000D02*
D03*
Y424000D02*
D03*
X436000D02*
D03*
X450000D02*
D03*
X504000Y245000D02*
D03*
Y231000D02*
D03*
X514000Y245000D02*
D03*
Y231000D02*
D03*
X462000Y284000D02*
D03*
X476000D02*
D03*
X462000Y294000D02*
D03*
X476000D02*
D03*
X492000Y341000D02*
D03*
X478000D02*
D03*
X464000D02*
D03*
X451000D02*
D03*
X458000Y391000D02*
D03*
X449000D02*
D03*
X369000Y459000D02*
D03*
X381000Y466000D02*
D03*
X472000Y380000D02*
D03*
Y360000D02*
D03*
X356000Y477000D02*
D03*
X346000D02*
D03*
X258000Y461000D02*
D03*
Y471000D02*
D03*
X244000D02*
D03*
Y461000D02*
D03*
X273000D02*
D03*
Y471000D02*
D03*
X285000Y267000D02*
D03*
X295000D02*
D03*
X307000Y256000D02*
D03*
Y245000D02*
D03*
X322000Y243000D02*
D03*
X323000Y203000D02*
D03*
X98000Y165000D02*
D03*
X84000D02*
D03*
X86000Y264000D02*
D03*
X99000D02*
D03*
X518000Y114000D02*
D03*
X518000Y124000D02*
D03*
X80000Y352000D02*
D03*
X44000Y367000D02*
D03*
X54000D02*
D03*
Y385000D02*
D03*
X71000Y450000D02*
D03*
X75000Y419000D02*
D03*
X71000Y439000D02*
D03*
X80000Y450000D02*
D03*
X75000Y428000D02*
D03*
X135000Y432000D02*
D03*
X125000Y432000D02*
D03*
X44000Y167000D02*
D03*
X54000Y185000D02*
D03*
Y167000D02*
D03*
X114000Y187000D02*
D03*
X124000Y187000D02*
D03*
X75000Y219000D02*
D03*
Y228000D02*
D03*
X71000Y239000D02*
D03*
Y250000D02*
D03*
X80000D02*
D03*
X54000Y267000D02*
D03*
X44000D02*
D03*
X54000Y285000D02*
D03*
X71000Y352000D02*
D03*
Y341000D02*
D03*
X75000Y319000D02*
D03*
X75500Y330000D02*
D03*
X94000Y364000D02*
D03*
X124000Y387000D02*
D03*
X98999Y373035D02*
D03*
X114000Y387000D02*
D03*
X135000Y232000D02*
D03*
X125000Y232000D02*
D03*
X114000Y287000D02*
D03*
X124000Y287000D02*
D03*
X131000Y332000D02*
D03*
X121000Y332000D02*
D03*
X149750Y475000D02*
D03*
X149500Y453000D02*
D03*
X149750Y465000D02*
D03*
X165000Y475000D02*
D03*
X179000Y460000D02*
D03*
Y450000D02*
D03*
X178750Y473750D02*
D03*
X198000Y493000D02*
D03*
X197500Y482000D02*
D03*
X473000Y135000D02*
D03*
X373000D02*
D03*
X73000D02*
D03*
X273000D02*
D03*
X173000D02*
D03*
X520000Y54000D02*
D03*
X538000D02*
D03*
Y44000D02*
D03*
X120000Y54000D02*
D03*
X138000D02*
D03*
Y44000D02*
D03*
X420000Y54000D02*
D03*
X438000D02*
D03*
Y44000D02*
D03*
X320000Y54000D02*
D03*
X338000D02*
D03*
Y44000D02*
D03*
X238000D02*
D03*
Y54000D02*
D03*
X220000D02*
D03*
X285000Y75000D02*
D03*
X131965Y98998D02*
D03*
X418000Y124000D02*
D03*
X318000D02*
D03*
X218000D02*
D03*
X118000D02*
D03*
X73000Y125000D02*
D03*
X118000Y114000D02*
D03*
X173000Y125000D02*
D03*
X218000Y114000D02*
D03*
X273000Y125000D02*
D03*
X318000Y114000D02*
D03*
X373000Y125000D02*
D03*
X418000Y114000D02*
D03*
X231965Y98998D02*
D03*
X473000Y125000D02*
D03*
X55000Y80000D02*
D03*
X66000Y71000D02*
D03*
X55000D02*
D03*
X154000Y80000D02*
D03*
X165000Y71000D02*
D03*
X154000D02*
D03*
X265000D02*
D03*
X354000Y80000D02*
D03*
X365000Y71000D02*
D03*
X354000D02*
D03*
X454000D02*
D03*
X465000D02*
D03*
X454000Y80000D02*
D03*
X86000Y75000D02*
D03*
X77000D02*
D03*
X185000D02*
D03*
X176000D02*
D03*
X276000D02*
D03*
X485000D02*
D03*
X476000D02*
D03*
X376000D02*
D03*
X385000D02*
D03*
X141000Y94000D02*
D03*
X241000D02*
D03*
X331965Y98998D02*
D03*
X341000Y94000D02*
D03*
X431965Y98998D02*
D03*
X441000Y94000D02*
D03*
X541000D02*
D03*
X531965Y98998D02*
D03*
D86*
X332000Y268000D02*
D03*
D87*
X588000Y208540D02*
D03*
X336000Y389000D02*
D03*
M02*
