%TF.GenerationSoftware,Altium Limited,Altium Designer,25.8.1 (18)*%
G04 Layer_Physical_Order=4*
G04 Layer_Color=16711680*
%FSLAX45Y45*%
%MOMM*%
%TF.SameCoordinates,BF0F68BB-AFD6-4D4C-9B9D-8FCE2B414C20*%
%TF.FilePolarity,Positive*%
%TF.FileFunction,Copper,L4,Bot,Signal*%
%TF.Part,Single*%
G01*
G75*
%TA.AperFunction,Conductor*%
%ADD10C,0.20000*%
%ADD11C,0.50000*%
%ADD12C,0.30000*%
%ADD39C,0.75000*%
%TA.AperFunction,ComponentPad*%
%ADD46C,0.50000*%
%ADD47R,1.05000X1.05000*%
%ADD48C,1.05000*%
%ADD49R,2.40000X5.60000*%
%ADD50R,5.60000X2.80000*%
%ADD51R,1.52400X1.52400*%
%ADD52C,1.52400*%
%ADD53R,1.05000X1.05000*%
%ADD54C,1.49860*%
%TA.AperFunction,WasherPad*%
%ADD55C,3.00000*%
%TA.AperFunction,ViaPad*%
%ADD56C,0.70000*%
%ADD57C,1.00000*%
%ADD58C,1.40000*%
%ADD59C,0.50000*%
D10*
X3464142Y994142D02*
G03*
X3470000Y1008267I-14143J14142D01*
G01*
X3470400Y1459760D02*
G03*
X3470400Y1460019I-70400J240D01*
G01*
X3470000Y2910000D02*
G03*
X3470000Y2909994I20001J0D01*
G01*
X3319652Y2530000D02*
G03*
X3269652Y2580000I-50000J0D01*
G01*
X3160000Y2610000D02*
G03*
X3190000Y2580000I30000J0D01*
G01*
X2990000Y3000000D02*
G03*
X3017500Y2972500I27500J0D01*
G01*
X3160000Y2950000D02*
G03*
X3137500Y2972500I-22500J0D01*
G01*
X3470000Y2910000D02*
G03*
X3350000Y3030000I-120000J0D01*
G01*
X3580000Y3270000D02*
G03*
X3490000Y3360000I-90000J0D01*
G01*
X3580000Y1640000D02*
G03*
X3650000Y1570000I70000J0D01*
G01*
X3530000Y1500000D02*
G03*
X3570000Y1460000I40000J0D01*
G01*
X4410000Y1420000D02*
G03*
X4370000Y1460000I-40000J0D01*
G01*
X3530000Y3160000D02*
G03*
X3440000Y3250000I-90000J0D01*
G01*
X4480000Y1530000D02*
G03*
X4440000Y1570000I-40000J0D01*
G01*
X3630000Y3380000D02*
G03*
X3550000Y3460000I-80000J0D01*
G01*
X3630000Y1770000D02*
G03*
X3680000Y1720000I50000J0D01*
G01*
X3670000Y1860000D02*
G03*
X3730000Y1800000I60000J0D01*
G01*
X2410000Y940000D02*
G03*
X2490000Y1020000I0J80000D01*
G01*
X2530000Y2660000D02*
G03*
X2490000Y2620000I0J-40000D01*
G01*
X2590000Y3990000D02*
G03*
X2400000Y3800000I0J-190000D01*
G01*
X2370000Y2920000D02*
G03*
X2400000Y2950000I0J30000D01*
G01*
X2590000Y3920000D02*
G03*
X2460000Y3790000I0J-130000D01*
G01*
X2355000Y2920000D02*
G03*
X2160000Y2725000I0J-195000D01*
G01*
X2310000Y2840000D02*
G03*
X2240000Y2770000I0J-70000D01*
G01*
X2410000Y2790000D02*
G03*
X2349600Y2729600I0J-60400D01*
G01*
X2400000Y2840000D02*
G03*
X2460000Y2900000I0J60000D01*
G01*
X2480000Y2790000D02*
G03*
X2520000Y2830000I0J40000D01*
G01*
X2490000Y2720000D02*
G03*
X2420000Y2650000I0J-70000D01*
G01*
X2570000Y2900000D02*
G03*
X2610000Y2860000I40000J0D01*
G01*
X2590000Y3850000D02*
G03*
X2520000Y3780000I0J-70000D01*
G01*
X2630000Y3770000D02*
G03*
X2570000Y3710000I0J-60000D01*
G01*
X3070000Y2912100D02*
G03*
X3062100Y2920000I-7900J0D01*
G01*
X2740000D02*
G03*
X2690000Y2870000I0J-50000D01*
G01*
X2640000Y2720000D02*
G03*
X2690000Y2770000I0J50000D01*
G01*
X2800000Y2800000D02*
G03*
X2760000Y2760000I0J-40000D01*
G01*
X2730000Y2660000D02*
G03*
X2760000Y2690000I0J30000D01*
G01*
X1890000Y3570000D02*
G03*
X1820000Y3640000I-70000J0D01*
G01*
X1950000Y3460000D02*
G03*
X1990000Y3500000I0J40000D01*
G01*
Y3700000D02*
G03*
X1959652Y3730348I-30348J0D01*
G01*
X1990000Y2690000D02*
G03*
X2030000Y2730000I0J40000D01*
G01*
Y2880000D02*
G03*
X1990000Y2920000I-40000J0D01*
G01*
X1900000Y2930000D02*
G03*
X1890000Y2920000I0J-10000D01*
G01*
X1600000Y1540000D02*
G03*
X1550000Y1490000I0J-50000D01*
G01*
X1620000Y1540000D02*
G03*
X1670000Y1590000I0J50000D01*
G01*
X1750000Y2800000D02*
G03*
X1670000Y2720000I0J-80000D01*
G01*
X1800000Y2690000D02*
G03*
X1760000Y2650000I0J-40000D01*
G01*
X1700000Y1470000D02*
G03*
X1760000Y1530000I0J60000D01*
G01*
X1570000Y1140000D02*
G03*
X1610000Y1180000I0J40000D01*
G01*
X1660000Y1470000D02*
G03*
X1610000Y1420000I0J-50000D01*
G01*
X1490000Y1210000D02*
G03*
X1550000Y1270000I0J60000D01*
G01*
X1560000Y3140000D02*
G03*
X1520000Y3100000I0J-40000D01*
G01*
X1460000Y1750000D02*
G03*
X1520000Y1810000I0J60000D01*
G01*
X890000Y1750000D02*
G03*
X840000Y1700000I0J-50000D01*
G01*
X1640000Y3030000D02*
G03*
X1590000Y2980000I0J-50000D01*
G01*
X1540000Y1650000D02*
G03*
X1590000Y1700000I0J50000D01*
G01*
X1380000Y2640000D02*
G03*
X1460000Y2720000I0J80000D01*
G01*
X1360000Y2740000D02*
G03*
X1400000Y2780000I0J40000D01*
G01*
X1450000Y3360000D02*
G03*
X1400000Y3310000I0J-50000D01*
G01*
X890000Y2740000D02*
G03*
X860000Y2710000I0J-30000D01*
G01*
X1540000Y3250000D02*
G03*
X1460000Y3170000I0J-80000D01*
G01*
X4320000Y870000D02*
G03*
X4360000Y830000I40000J0D01*
G01*
X4430000D02*
G03*
X4480000Y880000I0J50000D01*
G01*
X4480080Y933296D02*
G03*
X4480000Y931605I19920J-1791D01*
G01*
X4480080Y933296D02*
G03*
X4480080Y946707I-70080J6704D01*
G01*
X4480000Y948394D02*
G03*
X4480080Y946707I20000J101D01*
G01*
X5320000Y860000D02*
G03*
X5350000Y830000I30000J0D01*
G01*
X5480000Y948394D02*
G03*
X5480080Y946707I20000J101D01*
G01*
X5480080Y933296D02*
G03*
X5480000Y931605I19920J-1791D01*
G01*
X5480080Y933296D02*
G03*
X5480080Y946707I-70080J6704D01*
G01*
X5430000Y830000D02*
G03*
X5480000Y880000I0J50000D01*
G01*
Y1370000D02*
G03*
X5400000Y1450000I-80000J0D01*
G01*
X5230000Y1500000D02*
G03*
X5280000Y1450000I50000J0D01*
G01*
X5230000Y1690000D02*
G03*
X5120000Y1800000I-110000J0D01*
G01*
X3670000Y3500000D02*
G03*
X3600000Y3570000I-70000J0D01*
G01*
X5410000Y1330000D02*
G03*
X5370000Y1370000I-40000J0D01*
G01*
X5160000Y1660000D02*
G03*
X5100000Y1720000I-60000J0D01*
G01*
X5160000Y1420000D02*
G03*
X5210000Y1370000I50000J0D01*
G01*
X3020000Y3140000D02*
G03*
X2990000Y3110000I0J-30000D01*
G01*
X3134103Y3030020D02*
G03*
X3135001Y3030000I898J19981D01*
G01*
X1440000Y1140000D02*
G03*
X1410000Y1110000I0J-30000D01*
G01*
X1390000Y1210000D02*
G03*
X1320000Y1140000I0J-70000D01*
G01*
X2319652Y989985D02*
G03*
X2420000Y1090333I0J100348D01*
G01*
X3470000Y1008267D02*
X3470400Y1459760D01*
X3470000Y2909994D02*
X3470400Y1460019D01*
X3410000Y940000D02*
X3464142Y994142D01*
X3319652Y989985D02*
Y2530000D01*
X3190000Y2580000D02*
X3269652D01*
X3160000Y2610000D02*
Y2950000D01*
X3017500Y2972500D02*
X3137500D01*
X3580000Y1640000D02*
Y3270000D01*
X3530000Y1500000D02*
Y3160000D01*
X3570000Y1460000D02*
X4370000D01*
X3650000Y1570000D02*
X4440000D01*
X3630000Y1770000D02*
Y3380000D01*
X3670000Y1860000D02*
Y3500000D01*
X2490000Y1020000D02*
Y2620000D01*
X2240000Y2280000D02*
Y2770000D01*
X2460000Y2900000D02*
Y3790000D01*
X2400000Y2950000D02*
Y3800000D01*
X2355000Y2920000D02*
X2370000D01*
X2160000Y2705200D02*
Y2725000D01*
X2349600Y2460000D02*
Y2469600D01*
Y2729600D01*
X2410000Y2790000D02*
X2480000D01*
X2310000Y2840000D02*
X2400000D01*
X2590000Y3920000D02*
X2930000D01*
X2520000Y2830000D02*
Y3780000D01*
X2590000Y3990000D02*
X2690000D01*
X2420000Y1090333D02*
Y2650000D01*
X2530000Y2660000D02*
X2730000D01*
X2490000Y2720000D02*
X2640000D01*
X2570000Y2900000D02*
Y3710000D01*
X2630000Y3770000D02*
X3110000D01*
X2590000Y3850000D02*
X3020000D01*
X2150000Y3780000D02*
Y3950000D01*
X3070000Y3570000D02*
X3600000D01*
X3070000Y3460000D02*
X3550000D01*
X3070000Y3250000D02*
X3440000D01*
X2740000Y2920000D02*
X3062100D01*
X2690000Y2770000D02*
Y2870000D01*
X2800000Y2800000D02*
X3070000D01*
X2760000Y2690000D02*
Y2760000D01*
X940000Y3640000D02*
X1820000D01*
X1990000Y3500000D02*
Y3700000D01*
X1890000Y3460000D02*
X1950000D01*
X989986Y3730348D02*
X1959652D01*
X2030000Y2730000D02*
Y2880000D01*
X1890000Y2920000D02*
X1990000D01*
X1600000Y1540000D02*
X1620000D01*
X1670000Y1590000D02*
Y2720000D01*
X1750000Y2800000D02*
X1890000D01*
X1800000Y2690000D02*
X1990000D01*
X1760000Y1530000D02*
Y2650000D01*
X1660000Y1470000D02*
X1700000D01*
X1610000Y1180000D02*
Y1420000D01*
X1550000Y1270000D02*
Y1490000D01*
X1560000Y3140000D02*
X1890000D01*
X1520000Y1810000D02*
Y3100000D01*
X890000Y1750000D02*
X1460000D01*
X840000Y1650000D02*
Y1700000D01*
X1590000Y1700000D02*
Y2980000D01*
X1640000Y3030000D02*
X1890000D01*
X980000Y1650000D02*
X1540000D01*
X990000Y2640000D02*
X1380000D01*
X1460000Y2720000D02*
Y3170000D01*
X890000Y2740000D02*
X1360000D01*
X1450000Y3360000D02*
X1890000D01*
X1400000Y2780000D02*
Y3310000D01*
X1890000Y3360000D02*
Y3360000D01*
X860000Y2640000D02*
Y2710000D01*
X1540000Y3250000D02*
X1890000D01*
X4320000Y870000D02*
Y989985D01*
X4360000Y830000D02*
X4430000D01*
X4480000Y880000D02*
Y931605D01*
Y931605D01*
Y948394D02*
Y1530000D01*
X5320000Y860000D02*
Y989985D01*
X5350000Y830000D02*
X5430000D01*
X5480000Y931605D02*
Y931605D01*
Y880000D02*
Y931605D01*
Y948394D02*
Y1370000D01*
X5280000Y1450000D02*
X5400000D01*
X5230000Y1500000D02*
Y1690000D01*
X3730000Y1800000D02*
X5120000D01*
X5319652Y989985D02*
X5320000D01*
X5210000Y1370000D02*
X5370000D01*
X5160000Y1420000D02*
Y1660000D01*
X3680000Y1720000D02*
X5100000D01*
X5410000Y940000D02*
Y1330000D01*
X5410000Y940000D02*
X5410000D01*
X3070000Y3360000D02*
X3490000D01*
X4319652Y989985D02*
X4320000D01*
X4410000Y940000D02*
Y1420000D01*
X4410000Y940000D02*
X4410000D01*
X2990000Y3000000D02*
Y3110000D01*
X3020000Y3140000D02*
X3070000D01*
Y3032900D02*
X3134103Y3030020D01*
X3135001Y3030000D02*
X3350000D01*
X1440000Y1140000D02*
X1570000D01*
X1410000Y940000D02*
Y1110000D01*
X1320000Y989985D02*
Y1140000D01*
X1390000Y1210000D02*
X1490000D01*
X1319652Y989985D02*
X1320000D01*
X1890000Y2790000D02*
Y2800000D01*
D11*
X2640000Y1460000D02*
G03*
X2570000Y1390000I0J-70000D01*
G01*
X3400000Y2600000D02*
G03*
X3320000Y2680000I-80000J0D01*
G01*
X2570000Y1290000D02*
Y1390000D01*
X2640000Y1460000D02*
X3170000D01*
X3400000D02*
Y2600000D01*
X5897221Y2102621D02*
Y2227931D01*
X5880000Y2085400D02*
X5897221Y2102621D01*
Y2227931D02*
X5949290Y2280000D01*
X3360000Y3760000D02*
Y3890000D01*
Y3760000D02*
X3410000Y3710000D01*
X3710000D01*
X5150000Y2870000D02*
X6300000D01*
X4870000Y3150000D02*
X5150000Y2870000D01*
X5949290Y2280000D02*
X6310000D01*
X6350000Y2320000D02*
Y2820000D01*
X6310000Y2280000D02*
X6350000Y2320000D01*
X6300000Y2870000D02*
X6350000Y2820000D01*
X4060000Y3150000D02*
X4870000D01*
X3750000Y3460000D02*
X4060000Y3150000D01*
X3710000Y3710000D02*
X3750000Y3670000D01*
Y3460000D02*
Y3670000D01*
X3360000Y3890000D02*
X3377221Y3872779D01*
X4720000Y3600000D02*
Y3800000D01*
D12*
X1345000Y4970000D02*
X1385000Y4930000D01*
X1980000D01*
X1681232Y4825400D02*
X1686632Y4820000D01*
X1125600Y4825400D02*
X1681232D01*
X1686632Y4820000D02*
X1980000D01*
X1091000Y4860000D02*
X1125600Y4825400D01*
X1091000Y4860000D02*
Y5123000D01*
X1345000Y4970000D02*
Y5123000D01*
D39*
X6090000Y1710000D02*
X6130000Y1670000D01*
X6010000Y1210000D02*
X6130000Y1330000D01*
Y1670000D01*
X5780000Y1210000D02*
X6010000D01*
X5660000Y1090000D02*
X5780000Y1210000D01*
X5660000Y210000D02*
Y1090000D01*
X5580000Y130000D02*
X5660000Y210000D01*
X2510000Y190000D02*
Y860000D01*
Y190000D02*
X2570000Y130000D01*
X5580000D01*
X2510000Y860000D02*
X2570000Y920000D01*
Y1290000D01*
X2150000Y1490000D02*
X2270000D01*
X2080000Y1560000D02*
Y2180000D01*
Y1560000D02*
X2150000Y1490000D01*
D46*
X5015000Y4136500D02*
D03*
Y4186500D02*
D03*
Y4236500D02*
D03*
X4685000Y4136500D02*
D03*
Y4186500D02*
D03*
Y4236500D02*
D03*
X4915000Y4136500D02*
D03*
Y4186500D02*
D03*
Y4236500D02*
D03*
X4785000Y4136500D02*
D03*
Y4186500D02*
D03*
Y4236500D02*
D03*
X2868000Y1992000D02*
D03*
X2810000Y2050000D02*
D03*
X2868000Y2108000D02*
D03*
X2752000D02*
D03*
Y1992000D02*
D03*
X5630800Y2296500D02*
D03*
Y2423500D02*
D03*
X5529200D02*
D03*
Y2296500D02*
D03*
X5580000Y2360000D02*
D03*
D47*
X440001Y3853000D02*
D03*
Y1853000D02*
D03*
Y2853000D02*
D03*
D48*
Y4107000D02*
D03*
X313001Y3980000D02*
D03*
Y1980000D02*
D03*
X440001Y2107000D02*
D03*
Y3107000D02*
D03*
X313001Y2980000D02*
D03*
X943000Y440000D02*
D03*
X1070000Y313000D02*
D03*
X1943000Y440000D02*
D03*
X2070000Y313000D02*
D03*
X2943000Y440000D02*
D03*
X3070000Y313000D02*
D03*
X3943000Y440000D02*
D03*
X4070000Y313000D02*
D03*
X5070000D02*
D03*
X4943000Y440000D02*
D03*
D49*
X5460000Y3750000D02*
D03*
D50*
X5960000Y4100000D02*
D03*
Y3400000D02*
D03*
D51*
X837000Y5123000D02*
D03*
D52*
X1091000D02*
D03*
X1345000D02*
D03*
X1599000D02*
D03*
X1853000D02*
D03*
X2107000D02*
D03*
X837000Y5377000D02*
D03*
X1091000D02*
D03*
X1345000D02*
D03*
X1599000D02*
D03*
X1853000D02*
D03*
X2107000D02*
D03*
X2361000Y5123000D02*
D03*
Y5377000D02*
D03*
X2615000Y5123000D02*
D03*
X2869000D02*
D03*
X3123000D02*
D03*
X3377000D02*
D03*
X3631000D02*
D03*
X3885000D02*
D03*
X2615000Y5377000D02*
D03*
X2869000D02*
D03*
X3123000D02*
D03*
X3377000D02*
D03*
X3631000D02*
D03*
X3885000D02*
D03*
X4139000Y5123000D02*
D03*
Y5377000D02*
D03*
X4393000Y5123000D02*
D03*
X4647000D02*
D03*
X4901000D02*
D03*
X5155000D02*
D03*
X5409000D02*
D03*
X5663000D02*
D03*
X4393000Y5377000D02*
D03*
X4647000D02*
D03*
X4901000D02*
D03*
X5155000D02*
D03*
X5409000D02*
D03*
X5663000D02*
D03*
D53*
X1197000Y440000D02*
D03*
X2197000D02*
D03*
X3197000D02*
D03*
X4197000D02*
D03*
X5197000D02*
D03*
D54*
X4300000Y3750000D02*
D03*
Y3496000D02*
D03*
Y2988000D02*
D03*
Y2480000D02*
D03*
D55*
X350000Y350000D02*
D03*
X6150000D02*
D03*
X350000Y5250000D02*
D03*
X6150000D02*
D03*
D56*
X3170000Y1460000D02*
D03*
X3400000D02*
D03*
X6090000Y1710000D02*
D03*
X2570000Y1290000D02*
D03*
X2270000Y1490000D02*
D03*
X2650000Y430000D02*
D03*
Y580000D02*
D03*
X2080000Y2180000D02*
D03*
X2240000Y2280000D02*
D03*
X5040000Y2030000D02*
D03*
X5140000D02*
D03*
X5040000Y2170000D02*
D03*
X5140000D02*
D03*
X4480000Y2840000D02*
D03*
Y2940000D02*
D03*
X5580000Y2680000D02*
D03*
Y2580000D02*
D03*
X5970000Y2560000D02*
D03*
X5850000D02*
D03*
X6090000D02*
D03*
X6200000D02*
D03*
X6160000Y2430000D02*
D03*
X5720000Y1410000D02*
D03*
X5610000D02*
D03*
X6160000Y1900000D02*
D03*
Y2040000D02*
D03*
X5660000Y1580000D02*
D03*
X6160000Y2150000D02*
D03*
X5300000Y4510000D02*
D03*
Y4380000D02*
D03*
X5750000Y4490000D02*
D03*
X5880000D02*
D03*
X6020000D02*
D03*
X6160000D02*
D03*
X2260000Y3660000D02*
D03*
X2880000D02*
D03*
X1650000Y4180000D02*
D03*
X1750000D02*
D03*
X4620000Y2020000D02*
D03*
Y2140000D02*
D03*
X2160000Y2705200D02*
D03*
X2165000Y2920000D02*
D03*
X2349600Y2460000D02*
D03*
X2610000Y2860000D02*
D03*
X2690000Y4110000D02*
D03*
X2570000D02*
D03*
X2450000D02*
D03*
X3560000Y3890000D02*
D03*
Y3980000D02*
D03*
X3960000Y4280000D02*
D03*
X4080000D02*
D03*
X4220000Y4120000D02*
D03*
Y4240000D02*
D03*
X4360000D02*
D03*
X4500000D02*
D03*
X5040000Y2450000D02*
D03*
Y2310000D02*
D03*
X5140000Y2450000D02*
D03*
Y2310000D02*
D03*
X4620000Y2840000D02*
D03*
X4760000D02*
D03*
X4620000Y2940000D02*
D03*
X4760000D02*
D03*
X4920000Y3410000D02*
D03*
X4780000D02*
D03*
X4640000D02*
D03*
X4510000D02*
D03*
X4580000Y3910000D02*
D03*
X4490000D02*
D03*
X3690000Y4590000D02*
D03*
X3810000Y4660000D02*
D03*
X4720000Y3800000D02*
D03*
Y3600000D02*
D03*
X3560000Y4770000D02*
D03*
X3460000D02*
D03*
X2580000Y4610000D02*
D03*
Y4710000D02*
D03*
X2440000D02*
D03*
Y4610000D02*
D03*
X2730000D02*
D03*
Y4710000D02*
D03*
X2850000Y2670000D02*
D03*
X2950000D02*
D03*
X3070000Y2560000D02*
D03*
Y2450000D02*
D03*
X3220000Y2430000D02*
D03*
X3230000Y2030000D02*
D03*
X980000Y1650000D02*
D03*
X840000D02*
D03*
X860000Y2640000D02*
D03*
X990000D02*
D03*
X5180000Y1140000D02*
D03*
X5180000Y1240000D02*
D03*
X800000Y3520000D02*
D03*
X440000Y3670000D02*
D03*
X540000D02*
D03*
Y3850000D02*
D03*
X710000Y4500000D02*
D03*
X750000Y4190000D02*
D03*
X710000Y4390000D02*
D03*
X800000Y4500000D02*
D03*
X750000Y4280000D02*
D03*
X1350000Y4320000D02*
D03*
X1250000Y4320000D02*
D03*
X440000Y1670000D02*
D03*
X540000Y1850000D02*
D03*
Y1670000D02*
D03*
X1140000Y1870000D02*
D03*
X1240000Y1870000D02*
D03*
X750000Y2190000D02*
D03*
Y2280000D02*
D03*
X710000Y2390000D02*
D03*
Y2500000D02*
D03*
X800000D02*
D03*
X540000Y2670000D02*
D03*
X440000D02*
D03*
X540000Y2850000D02*
D03*
X710000Y3520000D02*
D03*
Y3410000D02*
D03*
X750000Y3190000D02*
D03*
X755000Y3300000D02*
D03*
X940000Y3640000D02*
D03*
X1240000Y3870000D02*
D03*
X989986Y3730348D02*
D03*
X1140000Y3870000D02*
D03*
X1350000Y2320000D02*
D03*
X1250000Y2320000D02*
D03*
X1140000Y2870000D02*
D03*
X1240000Y2870000D02*
D03*
X1310000Y3320000D02*
D03*
X1210000Y3320000D02*
D03*
X1497500Y4750000D02*
D03*
X1495000Y4530000D02*
D03*
X1497500Y4650000D02*
D03*
X1650000Y4750000D02*
D03*
X1790000Y4600000D02*
D03*
Y4500000D02*
D03*
X1787500Y4737500D02*
D03*
X1980000Y4930000D02*
D03*
X1975000Y4820000D02*
D03*
X4730000Y1350000D02*
D03*
X3730000D02*
D03*
X730000D02*
D03*
X2730000D02*
D03*
X1730000D02*
D03*
X5200000Y540000D02*
D03*
X5380000D02*
D03*
Y440000D02*
D03*
X1200000Y540000D02*
D03*
X1380000D02*
D03*
Y440000D02*
D03*
X4200000Y540000D02*
D03*
X4380000D02*
D03*
Y440000D02*
D03*
X3200000Y540000D02*
D03*
X3380000D02*
D03*
Y440000D02*
D03*
X2380000D02*
D03*
Y540000D02*
D03*
X2200000D02*
D03*
X2850000Y750000D02*
D03*
X1319652Y989985D02*
D03*
X4180000Y1240000D02*
D03*
X3180000D02*
D03*
X2180000D02*
D03*
X1180000D02*
D03*
X730000Y1250000D02*
D03*
X1180000Y1140000D02*
D03*
X1730000Y1250000D02*
D03*
X2180000Y1140000D02*
D03*
X2730000Y1250000D02*
D03*
X3180000Y1140000D02*
D03*
X3730000Y1250000D02*
D03*
X4180000Y1140000D02*
D03*
X2319652Y989985D02*
D03*
X4730000Y1250000D02*
D03*
X550000Y800000D02*
D03*
X660000Y710000D02*
D03*
X550000D02*
D03*
X1540000Y800000D02*
D03*
X1650000Y710000D02*
D03*
X1540000D02*
D03*
X2650000D02*
D03*
X3540000Y800000D02*
D03*
X3650000Y710000D02*
D03*
X3540000D02*
D03*
X4540000D02*
D03*
X4650000D02*
D03*
X4540000Y800000D02*
D03*
X860000Y750000D02*
D03*
X770000D02*
D03*
X1850000D02*
D03*
X1760000D02*
D03*
X2760000D02*
D03*
X4850000D02*
D03*
X4760000D02*
D03*
X3760000D02*
D03*
X3850000D02*
D03*
X1410000Y940000D02*
D03*
X2410000D02*
D03*
X3319652Y989985D02*
D03*
X3410000Y940000D02*
D03*
X4319652Y989985D02*
D03*
X4410000Y940000D02*
D03*
X5410000D02*
D03*
X5319652Y989985D02*
D03*
D57*
X3320000Y2680000D02*
D03*
D58*
X5880000Y2085400D02*
D03*
X3360000Y3890000D02*
D03*
D59*
X2690000Y3990000D02*
D03*
X3020000Y3850000D02*
D03*
X3110000Y3770000D02*
D03*
X2150000Y3780000D02*
D03*
Y3950000D02*
D03*
X2930000Y3920000D02*
D03*
X2960000Y2330000D02*
D03*
X2880000D02*
D03*
X3070000Y3460000D02*
D03*
Y3360000D02*
D03*
Y2912100D02*
D03*
Y3032900D02*
D03*
Y3570000D02*
D03*
Y3250000D02*
D03*
Y3140000D02*
D03*
Y2800000D02*
D03*
X1890000D02*
D03*
Y2920000D02*
D03*
Y3030000D02*
D03*
Y3140000D02*
D03*
Y3250000D02*
D03*
Y3360000D02*
D03*
Y3460000D02*
D03*
Y3570000D02*
D03*
%TF.MD5,6e6b346ddc927f0496ce7e09d610af33*%
M02*
