%TF.GenerationSoftware,Altium Limited,Altium Designer,25.8.1 (18)*%
G04 Layer_Color=32896*
%FSLAX45Y45*%
%MOMM*%
%TF.SameCoordinates,BF0F68BB-AFD6-4D4C-9B9D-8FCE2B414C20*%
%TF.FilePolarity,Positive*%
%TF.FileFunction,Legend,Bot*%
%TF.Part,Single*%
G01*
G75*
%TA.AperFunction,NonConductor*%
%ADD76C,0.20000*%
G36*
X6184658Y1597937D02*
X6186849D01*
Y1596841D01*
X6189041D01*
Y1595745D01*
X6191233D01*
Y1594649D01*
X6193425D01*
Y1593553D01*
X6195617D01*
Y1592457D01*
X6197808D01*
Y1591361D01*
X6200000D01*
Y1590266D01*
X6202192D01*
Y1578211D01*
X6204383D01*
Y1577115D01*
X6206575D01*
Y1576019D01*
X6208767D01*
Y1574923D01*
X6210959D01*
Y1573827D01*
X6213150D01*
Y1572731D01*
X6215342D01*
Y1571636D01*
X6217534D01*
Y1570540D01*
X6219726D01*
Y1569444D01*
X6223013D01*
Y1568348D01*
X6225205D01*
Y1567252D01*
X6227397D01*
Y1566156D01*
X6229589D01*
Y1565060D01*
X6231781D01*
Y1563964D01*
X6233972D01*
Y1562869D01*
X6236164D01*
Y1561773D01*
X6238356D01*
Y1548622D01*
X6237260D01*
Y1549718D01*
X6235068D01*
Y1550814D01*
X6232876D01*
Y1551910D01*
X6230685D01*
Y1553006D01*
X6228493D01*
Y1554102D01*
X6226301D01*
Y1555198D01*
X6224109D01*
Y1556293D01*
X6221917D01*
Y1557389D01*
X6219726D01*
Y1558485D01*
X6217534D01*
Y1559581D01*
X6215342D01*
Y1560677D01*
X6213150D01*
Y1561773D01*
X6210959D01*
Y1562869D01*
X6208767D01*
Y1563964D01*
X6206575D01*
Y1565060D01*
X6204383D01*
Y1566156D01*
X6202192D01*
Y1567252D01*
X6201096D01*
Y1578211D01*
X6198904D01*
Y1579307D01*
X6196712D01*
Y1580402D01*
X6194521D01*
Y1581498D01*
X6192329D01*
Y1582594D01*
X6190137D01*
Y1583690D01*
X6187945D01*
Y1584786D01*
X6185754D01*
Y1585882D01*
X6183562D01*
Y1586978D01*
X6182466D01*
Y1599033D01*
X6184658D01*
Y1597937D01*
D02*
G37*
G36*
X6139727Y1599033D02*
X6141919D01*
Y1597937D01*
X6144110D01*
Y1596841D01*
X6146302D01*
Y1595745D01*
X6148494D01*
Y1594649D01*
X6150685D01*
Y1593553D01*
X6152877D01*
Y1592457D01*
X6155069D01*
Y1591361D01*
X6157261D01*
Y1590266D01*
X6159453D01*
Y1589170D01*
X6161644D01*
Y1588074D01*
X6163836D01*
Y1586978D01*
X6166028D01*
Y1574923D01*
X6168220D01*
Y1573827D01*
X6170411D01*
Y1572731D01*
X6172603D01*
Y1571636D01*
X6174795D01*
Y1570540D01*
X6176987D01*
Y1569444D01*
X6179178D01*
Y1568348D01*
X6181370D01*
Y1567252D01*
X6183562D01*
Y1566156D01*
X6185754D01*
Y1565060D01*
X6187945D01*
Y1563964D01*
X6190137D01*
Y1562869D01*
X6192329D01*
Y1561773D01*
X6194521D01*
Y1560677D01*
X6196712D01*
Y1559581D01*
X6198904D01*
Y1558485D01*
X6201096D01*
Y1557389D01*
X6203288D01*
Y1556293D01*
X6205479D01*
Y1555198D01*
X6207671D01*
Y1554102D01*
X6209863D01*
Y1553006D01*
X6212055D01*
Y1551910D01*
X6214246D01*
Y1550814D01*
X6216438D01*
Y1549718D01*
X6218630D01*
Y1548622D01*
X6220821D01*
Y1547526D01*
X6223013D01*
Y1546430D01*
X6225205D01*
Y1545334D01*
X6227397D01*
Y1544239D01*
X6229589D01*
Y1543143D01*
X6231781D01*
Y1542047D01*
X6233972D01*
Y1540951D01*
X6236164D01*
Y1539855D01*
X6238356D01*
Y1527801D01*
X6236164D01*
Y1528897D01*
X6233972D01*
Y1529992D01*
X6231781D01*
Y1531088D01*
X6229589D01*
Y1532184D01*
X6227397D01*
Y1533280D01*
X6225205D01*
Y1534376D01*
X6223013D01*
Y1535472D01*
X6220821D01*
Y1536568D01*
X6218630D01*
Y1537663D01*
X6216438D01*
Y1538759D01*
X6214246D01*
Y1539855D01*
X6212055D01*
Y1540951D01*
X6209863D01*
Y1542047D01*
X6207671D01*
Y1543143D01*
X6205479D01*
Y1544239D01*
X6203288D01*
Y1545334D01*
X6201096D01*
Y1546430D01*
X6198904D01*
Y1547526D01*
X6196712D01*
Y1548622D01*
X6194521D01*
Y1549718D01*
X6192329D01*
Y1550814D01*
X6190137D01*
Y1551910D01*
X6187945D01*
Y1553006D01*
X6185754D01*
Y1554102D01*
X6183562D01*
Y1555198D01*
X6181370D01*
Y1556293D01*
X6179178D01*
Y1557389D01*
X6176987D01*
Y1558485D01*
X6174795D01*
Y1559581D01*
X6172603D01*
Y1560677D01*
X6170411D01*
Y1561773D01*
X6168220D01*
Y1562869D01*
X6166028D01*
Y1563964D01*
X6164932D01*
Y1572731D01*
Y1573827D01*
Y1574923D01*
X6162740D01*
Y1576019D01*
X6160548D01*
Y1577115D01*
X6158356D01*
Y1578211D01*
X6156165D01*
Y1579307D01*
X6153973D01*
Y1580402D01*
X6151781D01*
Y1581498D01*
X6149590D01*
Y1582594D01*
X6147398D01*
Y1583690D01*
X6145206D01*
Y1584786D01*
X6143014D01*
Y1585882D01*
X6140823D01*
Y1586978D01*
X6138631D01*
Y1588074D01*
X6137535D01*
Y1600128D01*
X6139727D01*
Y1599033D01*
D02*
G37*
G36*
X6175891Y1548622D02*
X6178082D01*
Y1547526D01*
X6180274D01*
Y1546430D01*
X6182466D01*
Y1545334D01*
X6184658D01*
Y1544239D01*
X6186849D01*
Y1543143D01*
X6189041D01*
Y1542047D01*
X6191233D01*
Y1540951D01*
X6193425D01*
Y1539855D01*
X6195617D01*
Y1538759D01*
X6197808D01*
Y1537663D01*
X6200000D01*
Y1536568D01*
X6202192D01*
Y1535472D01*
X6204383D01*
Y1534376D01*
X6206575D01*
Y1533280D01*
X6208767D01*
Y1532184D01*
X6210959D01*
Y1531088D01*
X6213150D01*
Y1529992D01*
X6215342D01*
Y1528897D01*
X6217534D01*
Y1527801D01*
X6219726D01*
Y1526705D01*
X6221917D01*
Y1525609D01*
X6224109D01*
Y1524513D01*
X6226301D01*
Y1523417D01*
X6228493D01*
Y1522321D01*
X6230685D01*
Y1521225D01*
X6232876D01*
Y1520129D01*
X6235068D01*
Y1519034D01*
X6237260D01*
Y1517938D01*
X6238356D01*
Y1505883D01*
X6237260D01*
Y1506979D01*
X6235068D01*
Y1508075D01*
X6232876D01*
Y1509171D01*
X6230685D01*
Y1510266D01*
X6228493D01*
Y1511362D01*
X6226301D01*
Y1512458D01*
X6224109D01*
Y1513554D01*
X6221917D01*
Y1514650D01*
X6219726D01*
Y1515746D01*
X6217534D01*
Y1516842D01*
X6215342D01*
Y1517938D01*
X6213150D01*
Y1519034D01*
X6210959D01*
Y1520129D01*
X6208767D01*
Y1521225D01*
X6206575D01*
Y1522321D01*
X6204383D01*
Y1523417D01*
X6202192D01*
Y1524513D01*
X6200000D01*
Y1525609D01*
X6197808D01*
Y1526705D01*
X6195617D01*
Y1527801D01*
X6193425D01*
Y1528897D01*
X6191233D01*
Y1529992D01*
X6189041D01*
Y1531088D01*
X6186849D01*
Y1532184D01*
X6184658D01*
Y1533280D01*
X6182466D01*
Y1534376D01*
X6180274D01*
Y1535472D01*
X6178082D01*
Y1536568D01*
X6175891D01*
Y1537663D01*
X6173699D01*
Y1549718D01*
X6175891D01*
Y1548622D01*
D02*
G37*
G36*
X6157261Y1547526D02*
X6159453D01*
Y1546430D01*
X6161644D01*
Y1545334D01*
X6163836D01*
Y1544239D01*
X6166028D01*
Y1532184D01*
X6167124D01*
Y1531088D01*
X6169315D01*
Y1529992D01*
X6171507D01*
Y1528897D01*
X6173699D01*
Y1527801D01*
X6175891D01*
Y1526705D01*
X6178082D01*
Y1525609D01*
X6180274D01*
Y1524513D01*
X6182466D01*
Y1523417D01*
X6184658D01*
Y1522321D01*
X6186849D01*
Y1521225D01*
X6189041D01*
Y1520129D01*
X6191233D01*
Y1519034D01*
X6193425D01*
Y1517938D01*
X6195617D01*
Y1516842D01*
X6197808D01*
Y1515746D01*
X6200000D01*
Y1514650D01*
X6202192D01*
Y1513554D01*
X6204383D01*
Y1512458D01*
X6206575D01*
Y1511362D01*
X6208767D01*
Y1510266D01*
X6210959D01*
Y1509171D01*
X6213150D01*
Y1508075D01*
X6215342D01*
Y1506979D01*
X6217534D01*
Y1505883D01*
X6219726D01*
Y1504787D01*
X6221917D01*
Y1503691D01*
X6224109D01*
Y1502595D01*
X6226301D01*
Y1501500D01*
X6228493D01*
Y1500404D01*
X6230685D01*
Y1499308D01*
X6232876D01*
Y1498212D01*
X6235068D01*
Y1497116D01*
X6237260D01*
Y1483966D01*
X6235068D01*
Y1482870D01*
X6232876D01*
Y1481774D01*
X6230685D01*
Y1480678D01*
X6228493D01*
Y1479582D01*
X6226301D01*
Y1478486D01*
X6224109D01*
Y1477390D01*
X6221917D01*
Y1476294D01*
X6219726D01*
Y1475198D01*
X6217534D01*
Y1474103D01*
X6215342D01*
Y1473007D01*
X6213150D01*
Y1471911D01*
X6210959D01*
Y1470815D01*
X6208767D01*
Y1469719D01*
X6206575D01*
Y1468623D01*
X6204383D01*
Y1467527D01*
X6202192D01*
Y1466432D01*
X6200000D01*
Y1465336D01*
X6197808D01*
Y1464240D01*
X6195617D01*
Y1463144D01*
X6193425D01*
Y1462048D01*
X6191233D01*
Y1460952D01*
X6189041D01*
Y1459856D01*
X6186849D01*
Y1458760D01*
X6184658D01*
Y1457665D01*
X6182466D01*
Y1456569D01*
X6180274D01*
Y1455473D01*
X6178082D01*
Y1454377D01*
X6175891D01*
Y1453281D01*
X6173699D01*
Y1452185D01*
X6171507D01*
Y1451089D01*
X6169315D01*
Y1449993D01*
X6167124D01*
Y1448898D01*
X6164932D01*
Y1447802D01*
X6162740D01*
Y1459856D01*
X6163836D01*
Y1460952D01*
X6166028D01*
Y1462048D01*
X6168220D01*
Y1463144D01*
X6170411D01*
Y1464240D01*
X6172603D01*
Y1465336D01*
X6174795D01*
Y1466432D01*
X6176987D01*
Y1467527D01*
X6179178D01*
Y1468623D01*
X6181370D01*
Y1469719D01*
X6183562D01*
Y1470815D01*
X6185754D01*
Y1471911D01*
X6187945D01*
Y1473007D01*
X6190137D01*
Y1474103D01*
X6192329D01*
Y1475198D01*
X6194521D01*
Y1476294D01*
X6196712D01*
Y1477390D01*
X6198904D01*
Y1478486D01*
X6201096D01*
Y1479582D01*
X6203288D01*
Y1480678D01*
X6205479D01*
Y1481774D01*
X6207671D01*
Y1482870D01*
X6209863D01*
Y1483966D01*
X6212055D01*
Y1485062D01*
X6214246D01*
Y1486157D01*
X6216438D01*
Y1487253D01*
X6218630D01*
Y1488349D01*
X6220821D01*
Y1489445D01*
X6223013D01*
Y1491637D01*
X6220821D01*
Y1492733D01*
X6218630D01*
Y1493828D01*
X6216438D01*
Y1494924D01*
X6214246D01*
Y1496020D01*
X6212055D01*
Y1497116D01*
X6209863D01*
Y1498212D01*
X6207671D01*
Y1499308D01*
X6205479D01*
Y1500404D01*
X6203288D01*
Y1501500D01*
X6201096D01*
Y1502595D01*
X6198904D01*
Y1503691D01*
X6196712D01*
Y1504787D01*
X6194521D01*
Y1505883D01*
X6192329D01*
Y1506979D01*
X6190137D01*
Y1508075D01*
X6187945D01*
Y1509171D01*
X6185754D01*
Y1510266D01*
X6183562D01*
Y1511362D01*
X6181370D01*
Y1512458D01*
X6179178D01*
Y1513554D01*
X6176987D01*
Y1514650D01*
X6174795D01*
Y1515746D01*
X6172603D01*
Y1516842D01*
X6170411D01*
Y1517938D01*
X6168220D01*
Y1519034D01*
X6166028D01*
Y1520129D01*
X6163836D01*
Y1521225D01*
X6162740D01*
Y1533280D01*
X6160548D01*
Y1534376D01*
X6158356D01*
Y1535472D01*
X6156165D01*
Y1536568D01*
X6155069D01*
Y1548622D01*
X6157261D01*
Y1547526D01*
D02*
G37*
G36*
X6237260Y1422597D02*
X6162740D01*
Y1433555D01*
X6237260D01*
Y1422597D01*
D02*
G37*
G36*
X6031157Y1566986D02*
X6035187D01*
Y1566583D01*
X6037605D01*
Y1566179D01*
X6039620D01*
Y1565776D01*
X6041233D01*
Y1565374D01*
X6042845D01*
Y1564970D01*
X6044457D01*
Y1564567D01*
X6045666D01*
Y1564164D01*
X6046875D01*
Y1563761D01*
X6048084D01*
Y1563358D01*
X6048890D01*
Y1562955D01*
X6050099D01*
Y1562552D01*
X6050906D01*
Y1562149D01*
X6052115D01*
Y1561746D01*
X6052921D01*
Y1561343D01*
X6053727D01*
Y1560940D01*
X6054533D01*
Y1560537D01*
X6055339D01*
Y1560134D01*
X6055742D01*
Y1559731D01*
X6056548D01*
Y1559328D01*
X6057354D01*
Y1558925D01*
X6058160D01*
Y1558522D01*
X6058563D01*
Y1558119D01*
X6059369D01*
Y1557716D01*
X6059772D01*
Y1557313D01*
X6060578D01*
Y1556910D01*
X6060981D01*
Y1556507D01*
X6061384D01*
Y1556104D01*
X6062191D01*
Y1555700D01*
X6062593D01*
Y1555298D01*
X6062997D01*
Y1554895D01*
X6063400D01*
Y1554491D01*
X6064206D01*
Y1554088D01*
X6064609D01*
Y1553685D01*
X6065012D01*
Y1553282D01*
X6065415D01*
Y1552879D01*
X6065818D01*
Y1552476D01*
X6066221D01*
Y1552073D01*
X6066624D01*
Y1551670D01*
X6067027D01*
Y1551267D01*
X6067430D01*
Y1550864D01*
X6067833D01*
Y1550461D01*
X6068236D01*
Y1550058D01*
X6068639D01*
Y1549655D01*
X6069042D01*
Y1548849D01*
X6069445D01*
Y1548446D01*
X6069848D01*
Y1548043D01*
X6070251D01*
Y1547237D01*
X6070654D01*
Y1546834D01*
X6071057D01*
Y1546431D01*
X6071460D01*
Y1545625D01*
X6071863D01*
Y1545221D01*
X6072266D01*
Y1544416D01*
X6072670D01*
Y1543610D01*
X6073072D01*
Y1542803D01*
X6073476D01*
Y1541997D01*
X6073879D01*
Y1541191D01*
X6074281D01*
Y1540385D01*
X6074685D01*
Y1539176D01*
X6075088D01*
Y1537967D01*
X6075491D01*
Y1536355D01*
X6075894D01*
Y1534340D01*
X6076297D01*
Y1526682D01*
X6075894D01*
Y1524264D01*
X6075491D01*
Y1522652D01*
X6075088D01*
Y1520636D01*
X6074685D01*
Y1519427D01*
X6074281D01*
Y1517815D01*
X6073879D01*
Y1516606D01*
X6073476D01*
Y1514994D01*
X6073072D01*
Y1513785D01*
X6072670D01*
Y1512576D01*
X6072266D01*
Y1511769D01*
X6071863D01*
Y1510560D01*
X6071460D01*
Y1509351D01*
X6071057D01*
Y1508142D01*
X6070654D01*
Y1507336D01*
X6070251D01*
Y1506127D01*
X6069848D01*
Y1505321D01*
X6069445D01*
Y1504112D01*
X6069042D01*
Y1503306D01*
X6068639D01*
Y1502500D01*
X6068236D01*
Y1501291D01*
X6067833D01*
Y1500484D01*
X6067430D01*
Y1499678D01*
X6067027D01*
Y1498469D01*
X6066624D01*
Y1497663D01*
X6066221D01*
Y1496857D01*
X6065818D01*
Y1496051D01*
X6065415D01*
Y1495245D01*
X6065012D01*
Y1494439D01*
X6064609D01*
Y1493230D01*
X6064206D01*
Y1492424D01*
X6063803D01*
Y1491618D01*
X6063400D01*
Y1490812D01*
X6062997D01*
Y1490005D01*
X6062593D01*
Y1489199D01*
X6062191D01*
Y1488393D01*
X6061787D01*
Y1487587D01*
X6061384D01*
Y1486781D01*
X6060981D01*
Y1485975D01*
X6060578D01*
Y1485169D01*
X6060175D01*
Y1484363D01*
X6059772D01*
Y1483557D01*
X6059369D01*
Y1482751D01*
X6058966D01*
Y1481945D01*
X6058563D01*
Y1481139D01*
X6058160D01*
Y1479929D01*
X6057757D01*
Y1479124D01*
X6057354D01*
Y1478317D01*
X6056951D01*
Y1477511D01*
X6056548D01*
Y1476705D01*
X6056145D01*
Y1475899D01*
X6055742D01*
Y1475093D01*
X6055339D01*
Y1474287D01*
X6054936D01*
Y1473481D01*
X6054533D01*
Y1472675D01*
X6054130D01*
Y1471869D01*
X6053727D01*
Y1471063D01*
X6053324D01*
Y1470257D01*
X6052921D01*
Y1469450D01*
X6052517D01*
Y1468645D01*
X6052115D01*
Y1467838D01*
X6051712D01*
Y1467032D01*
X6051308D01*
Y1466226D01*
X6050906D01*
Y1465420D01*
X6050503D01*
Y1464614D01*
X6050099D01*
Y1463808D01*
X6049696D01*
Y1462599D01*
X6049293D01*
Y1461793D01*
X6048890D01*
Y1460987D01*
X6048487D01*
Y1460181D01*
X6048084D01*
Y1459375D01*
X6047681D01*
Y1458165D01*
X6047278D01*
Y1457360D01*
X6046875D01*
Y1456553D01*
X6046472D01*
Y1455747D01*
X6046069D01*
Y1454538D01*
X6045666D01*
Y1453732D01*
X6045263D01*
Y1452926D01*
X6044860D01*
Y1451717D01*
X6044457D01*
Y1450911D01*
X6044054D01*
Y1449702D01*
X6043651D01*
Y1448896D01*
X6043248D01*
Y1447686D01*
X6042845D01*
Y1446477D01*
X6042442D01*
Y1445671D01*
X6042039D01*
Y1444462D01*
X6041636D01*
Y1443253D01*
X6041233D01*
Y1442044D01*
X6040829D01*
Y1440835D01*
X6040426D01*
Y1439626D01*
X6040023D01*
Y1438417D01*
X6039620D01*
Y1436805D01*
X6039217D01*
Y1435192D01*
X6038814D01*
Y1433580D01*
X6038411D01*
Y1431968D01*
X6038008D01*
Y1429953D01*
X6037605D01*
Y1427535D01*
X6037202D01*
Y1424310D01*
X6036799D01*
Y1414638D01*
X6037202D01*
Y1412219D01*
X6037605D01*
Y1410204D01*
X6038008D01*
Y1408592D01*
X6038411D01*
Y1407383D01*
X6038814D01*
Y1406174D01*
X6039217D01*
Y1404964D01*
X6039620D01*
Y1404158D01*
X6040023D01*
Y1402949D01*
X6040426D01*
Y1402143D01*
X6040829D01*
Y1401337D01*
X6040426D01*
Y1401740D01*
X6040023D01*
Y1402546D01*
X6039620D01*
Y1403352D01*
X6039217D01*
Y1404158D01*
X6038814D01*
Y1404964D01*
X6038411D01*
Y1405771D01*
X6038008D01*
Y1406577D01*
X6037605D01*
Y1407383D01*
X6037202D01*
Y1408189D01*
X6036799D01*
Y1408995D01*
X6036396D01*
Y1410204D01*
X6035993D01*
Y1411010D01*
X6035590D01*
Y1412219D01*
X6035187D01*
Y1413428D01*
X6034784D01*
Y1414638D01*
X6034381D01*
Y1415847D01*
X6033978D01*
Y1417056D01*
X6033575D01*
Y1418265D01*
X6033172D01*
Y1419877D01*
X6032769D01*
Y1421892D01*
X6032366D01*
Y1423907D01*
X6031963D01*
Y1425922D01*
X6031560D01*
Y1429147D01*
X6031157D01*
Y1433983D01*
X6030753D01*
Y1443253D01*
X6031157D01*
Y1448493D01*
X6031560D01*
Y1451717D01*
X6031963D01*
Y1454538D01*
X6032366D01*
Y1456553D01*
X6032769D01*
Y1458971D01*
X6033172D01*
Y1460584D01*
X6033575D01*
Y1462599D01*
X6033978D01*
Y1464211D01*
X6034381D01*
Y1465823D01*
X6034784D01*
Y1467435D01*
X6035187D01*
Y1469048D01*
X6035590D01*
Y1470257D01*
X6035993D01*
Y1471869D01*
X6036396D01*
Y1473078D01*
X6036799D01*
Y1474287D01*
X6037202D01*
Y1475496D01*
X6037605D01*
Y1476705D01*
X6038008D01*
Y1477914D01*
X6038411D01*
Y1479124D01*
X6038814D01*
Y1480333D01*
X6039217D01*
Y1481542D01*
X6039620D01*
Y1482348D01*
X6040023D01*
Y1483557D01*
X6040426D01*
Y1484766D01*
X6040829D01*
Y1485572D01*
X6041233D01*
Y1486781D01*
X6041636D01*
Y1487990D01*
X6042039D01*
Y1488796D01*
X6042442D01*
Y1490005D01*
X6042845D01*
Y1490812D01*
X6043248D01*
Y1491618D01*
X6043651D01*
Y1492827D01*
X6044054D01*
Y1493633D01*
X6044457D01*
Y1494842D01*
X6044860D01*
Y1495648D01*
X6045263D01*
Y1496454D01*
X6045666D01*
Y1497260D01*
X6046069D01*
Y1498469D01*
X6046472D01*
Y1499275D01*
X6046875D01*
Y1500081D01*
X6047278D01*
Y1500888D01*
X6047681D01*
Y1502097D01*
X6048084D01*
Y1502903D01*
X6048487D01*
Y1503709D01*
X6048890D01*
Y1504515D01*
X6049293D01*
Y1505321D01*
X6049696D01*
Y1506127D01*
X6050099D01*
Y1507336D01*
X6050503D01*
Y1508142D01*
X6050906D01*
Y1508948D01*
X6051308D01*
Y1509754D01*
X6051712D01*
Y1510560D01*
X6052115D01*
Y1511366D01*
X6052517D01*
Y1512172D01*
X6052921D01*
Y1512979D01*
X6053324D01*
Y1513785D01*
X6053727D01*
Y1514591D01*
X6054130D01*
Y1515800D01*
X6054533D01*
Y1516606D01*
X6054936D01*
Y1517412D01*
X6055339D01*
Y1518218D01*
X6055742D01*
Y1519024D01*
X6056145D01*
Y1519830D01*
X6056548D01*
Y1520636D01*
X6056951D01*
Y1521442D01*
X6057354D01*
Y1522248D01*
X6057757D01*
Y1523055D01*
X6058160D01*
Y1523861D01*
X6058563D01*
Y1525070D01*
X6058966D01*
Y1525876D01*
X6059369D01*
Y1526682D01*
X6059772D01*
Y1527488D01*
X6060175D01*
Y1528294D01*
X6060578D01*
Y1529100D01*
X6060981D01*
Y1530309D01*
X6061384D01*
Y1531115D01*
X6061787D01*
Y1531921D01*
X6062191D01*
Y1532727D01*
X6062593D01*
Y1533936D01*
X6062997D01*
Y1534743D01*
X6063400D01*
Y1535952D01*
X6063803D01*
Y1536758D01*
X6064206D01*
Y1537967D01*
X6064609D01*
Y1539176D01*
X6065012D01*
Y1540385D01*
X6065415D01*
Y1541594D01*
X6065818D01*
Y1543206D01*
X6066221D01*
Y1544819D01*
X6066624D01*
Y1549655D01*
X6066221D01*
Y1550864D01*
X6065818D01*
Y1551267D01*
X6065415D01*
Y1552073D01*
X6065012D01*
Y1552476D01*
X6064609D01*
Y1552879D01*
X6063803D01*
Y1553282D01*
X6063400D01*
Y1553685D01*
X6062593D01*
Y1554088D01*
X6061384D01*
Y1554491D01*
X6060175D01*
Y1554895D01*
X6057757D01*
Y1555298D01*
X6049293D01*
Y1554895D01*
X6046069D01*
Y1554491D01*
X6043248D01*
Y1554088D01*
X6041233D01*
Y1553685D01*
X6039217D01*
Y1553282D01*
X6037605D01*
Y1552879D01*
X6035993D01*
Y1552476D01*
X6034381D01*
Y1552073D01*
X6033172D01*
Y1551670D01*
X6031560D01*
Y1551267D01*
X6030351D01*
Y1550864D01*
X6029141D01*
Y1550461D01*
X6027932D01*
Y1550058D01*
X6026723D01*
Y1549655D01*
X6025514D01*
Y1549252D01*
X6024305D01*
Y1548849D01*
X6023096D01*
Y1548446D01*
X6022290D01*
Y1548043D01*
X6021081D01*
Y1547640D01*
X6020275D01*
Y1547237D01*
X6019065D01*
Y1546834D01*
X6018259D01*
Y1546431D01*
X6017453D01*
Y1546028D01*
X6016647D01*
Y1545625D01*
X6015438D01*
Y1545221D01*
X6014632D01*
Y1544819D01*
X6013826D01*
Y1544416D01*
X6013020D01*
Y1544012D01*
X6012214D01*
Y1543610D01*
X6011408D01*
Y1543206D01*
X6011005D01*
Y1542803D01*
X6010199D01*
Y1542400D01*
X6009393D01*
Y1541997D01*
X6008586D01*
Y1541594D01*
X6008184D01*
Y1541191D01*
X6007377D01*
Y1540788D01*
X6006974D01*
Y1540385D01*
X6006168D01*
Y1539982D01*
X6005765D01*
Y1539579D01*
X6004959D01*
Y1539176D01*
X6004556D01*
Y1538773D01*
X6004153D01*
Y1538370D01*
X6003347D01*
Y1538773D01*
X6002944D01*
Y1539176D01*
X6002541D01*
Y1539982D01*
X6002138D01*
Y1540788D01*
X6001735D01*
Y1541191D01*
X6001332D01*
Y1541997D01*
X6000929D01*
Y1542803D01*
X6000526D01*
Y1543206D01*
X6000123D01*
Y1544012D01*
X5999720D01*
Y1544819D01*
X5999317D01*
Y1545221D01*
X5998914D01*
Y1546028D01*
X5998510D01*
Y1546834D01*
X5998108D01*
Y1547237D01*
X5997705D01*
Y1548043D01*
X5997301D01*
Y1548849D01*
X5996898D01*
Y1549252D01*
X5996495D01*
Y1550058D01*
X5996092D01*
Y1550864D01*
X5995689D01*
Y1551267D01*
X5995286D01*
Y1552073D01*
X5994883D01*
Y1552879D01*
X5994480D01*
Y1553282D01*
X5994077D01*
Y1554088D01*
X5993674D01*
Y1554895D01*
X5993271D01*
Y1555298D01*
X5992868D01*
Y1556104D01*
X5992465D01*
Y1556910D01*
X5992062D01*
Y1557716D01*
X5992465D01*
Y1558119D01*
X5993271D01*
Y1558522D01*
X5994077D01*
Y1558925D01*
X5994883D01*
Y1559328D01*
X5995689D01*
Y1559731D01*
X5996092D01*
Y1560134D01*
X5996898D01*
Y1560537D01*
X5998108D01*
Y1560940D01*
X5998914D01*
Y1561343D01*
X5999720D01*
Y1561746D01*
X6000526D01*
Y1562149D01*
X6001735D01*
Y1562552D01*
X6002541D01*
Y1562955D01*
X6003750D01*
Y1563358D01*
X6004556D01*
Y1563761D01*
X6005765D01*
Y1564164D01*
X6006974D01*
Y1564567D01*
X6008586D01*
Y1564970D01*
X6009796D01*
Y1565374D01*
X6011408D01*
Y1565776D01*
X6013423D01*
Y1566179D01*
X6015438D01*
Y1566583D01*
X6018259D01*
Y1566986D01*
X6022290D01*
Y1567389D01*
X6031157D01*
Y1566986D01*
D02*
G37*
G36*
X5981583Y1613335D02*
X5984807D01*
Y1612932D01*
X5987629D01*
Y1612529D01*
X5990047D01*
Y1612126D01*
X5992062D01*
Y1611723D01*
X5994077D01*
Y1611320D01*
X5995689D01*
Y1610917D01*
X5997301D01*
Y1610514D01*
X5999317D01*
Y1610111D01*
X6000526D01*
Y1609707D01*
X6002138D01*
Y1609305D01*
X6003347D01*
Y1608902D01*
X6004959D01*
Y1608498D01*
X6006168D01*
Y1608096D01*
X6007377D01*
Y1607692D01*
X6008586D01*
Y1607289D01*
X6009796D01*
Y1606886D01*
X6011005D01*
Y1606483D01*
X6012214D01*
Y1606080D01*
X6013423D01*
Y1605677D01*
X6014229D01*
Y1605274D01*
X6015438D01*
Y1604871D01*
X6016647D01*
Y1604468D01*
X6017453D01*
Y1604065D01*
X6018662D01*
Y1603662D01*
X6019469D01*
Y1603259D01*
X6020275D01*
Y1602856D01*
X6021484D01*
Y1602453D01*
X6022290D01*
Y1602050D01*
X6023096D01*
Y1601647D01*
X6024305D01*
Y1601244D01*
X6025111D01*
Y1600841D01*
X6025917D01*
Y1600438D01*
X6026723D01*
Y1600035D01*
X6027529D01*
Y1599632D01*
X6028335D01*
Y1599229D01*
X6029141D01*
Y1598826D01*
X6029948D01*
Y1598423D01*
X6030753D01*
Y1598019D01*
X6031560D01*
Y1597617D01*
X6032366D01*
Y1597213D01*
X6033172D01*
Y1596810D01*
X6033978D01*
Y1596407D01*
X6034784D01*
Y1596004D01*
X6035590D01*
Y1595601D01*
X6035993D01*
Y1595198D01*
X6036799D01*
Y1594795D01*
X6037605D01*
Y1594392D01*
X6038411D01*
Y1593989D01*
X6039217D01*
Y1593586D01*
X6039620D01*
Y1593183D01*
X6040426D01*
Y1592780D01*
X6041233D01*
Y1592377D01*
X6041636D01*
Y1591974D01*
X6042442D01*
Y1591571D01*
X6043248D01*
Y1591168D01*
X6043651D01*
Y1590765D01*
X6044457D01*
Y1590362D01*
X6044860D01*
Y1589959D01*
X6045666D01*
Y1589556D01*
X6046069D01*
Y1589153D01*
X6046875D01*
Y1588750D01*
X6047278D01*
Y1588347D01*
X6048084D01*
Y1587943D01*
X6048487D01*
Y1587541D01*
X6049293D01*
Y1587138D01*
X6049696D01*
Y1586734D01*
X6050503D01*
Y1586331D01*
X6050906D01*
Y1585929D01*
X6051712D01*
Y1585525D01*
X6052115D01*
Y1585122D01*
X6052517D01*
Y1584719D01*
X6053324D01*
Y1584316D01*
X6053727D01*
Y1583913D01*
X6054130D01*
Y1583510D01*
X6054936D01*
Y1583107D01*
X6055339D01*
Y1582704D01*
X6055742D01*
Y1582301D01*
X6056548D01*
Y1581898D01*
X6056951D01*
Y1581495D01*
X6057354D01*
Y1581092D01*
X6057757D01*
Y1580689D01*
X6058563D01*
Y1580286D01*
X6058966D01*
Y1579883D01*
X6059369D01*
Y1579480D01*
X6059772D01*
Y1579077D01*
X6060578D01*
Y1578674D01*
X6060981D01*
Y1578271D01*
X6061384D01*
Y1577868D01*
X6061787D01*
Y1577465D01*
X6062191D01*
Y1577062D01*
X6062593D01*
Y1576659D01*
X6062997D01*
Y1576255D01*
X6063803D01*
Y1575852D01*
X6064206D01*
Y1575449D01*
X6064609D01*
Y1575046D01*
X6065012D01*
Y1574643D01*
X6065415D01*
Y1574240D01*
X6065818D01*
Y1573837D01*
X6066221D01*
Y1573434D01*
X6066624D01*
Y1573031D01*
X6067027D01*
Y1572628D01*
X6067430D01*
Y1572225D01*
X6067833D01*
Y1571822D01*
X6068236D01*
Y1571419D01*
X6068639D01*
Y1571016D01*
X6069042D01*
Y1570613D01*
X6069445D01*
Y1570210D01*
X6069848D01*
Y1569807D01*
X6070251D01*
Y1569404D01*
X6070654D01*
Y1569001D01*
X6071057D01*
Y1568598D01*
X6071460D01*
Y1568195D01*
X6071863D01*
Y1567792D01*
X6072266D01*
Y1567389D01*
X6072670D01*
Y1566986D01*
X6073072D01*
Y1566583D01*
X6073476D01*
Y1565776D01*
X6073879D01*
Y1565374D01*
X6074281D01*
Y1564970D01*
X6074685D01*
Y1564567D01*
X6075088D01*
Y1564164D01*
X6075491D01*
Y1563358D01*
X6075894D01*
Y1562955D01*
X6076297D01*
Y1562552D01*
X6076700D01*
Y1562149D01*
X6077103D01*
Y1561746D01*
X6077506D01*
Y1560940D01*
X6077909D01*
Y1560537D01*
X6078312D01*
Y1560134D01*
X6078715D01*
Y1559328D01*
X6079118D01*
Y1558925D01*
X6079521D01*
Y1558522D01*
X6079924D01*
Y1557716D01*
X6080327D01*
Y1557313D01*
X6080730D01*
Y1556507D01*
X6081133D01*
Y1556104D01*
X6081536D01*
Y1555298D01*
X6081939D01*
Y1554895D01*
X6082342D01*
Y1554088D01*
X6082745D01*
Y1553685D01*
X6083148D01*
Y1552879D01*
X6083551D01*
Y1552476D01*
X6083955D01*
Y1551670D01*
X6084358D01*
Y1550864D01*
X6084760D01*
Y1550461D01*
X6085164D01*
Y1549655D01*
X6085567D01*
Y1548849D01*
X6085970D01*
Y1548043D01*
X6086373D01*
Y1547237D01*
X6086776D01*
Y1546431D01*
X6087179D01*
Y1545625D01*
X6087582D01*
Y1544819D01*
X6087985D01*
Y1544012D01*
X6088388D01*
Y1543206D01*
X6088791D01*
Y1542400D01*
X6089194D01*
Y1541191D01*
X6089597D01*
Y1540385D01*
X6090000D01*
Y1539176D01*
X6090403D01*
Y1537967D01*
X6090806D01*
Y1536758D01*
X6091209D01*
Y1535549D01*
X6091612D01*
Y1534340D01*
X6092015D01*
Y1532727D01*
X6092418D01*
Y1531115D01*
X6092821D01*
Y1529503D01*
X6093224D01*
Y1527085D01*
X6093627D01*
Y1524667D01*
X6094030D01*
Y1520636D01*
X6094434D01*
Y1510560D01*
X6094030D01*
Y1506530D01*
X6093627D01*
Y1503709D01*
X6093224D01*
Y1501291D01*
X6092821D01*
Y1499678D01*
X6092418D01*
Y1498066D01*
X6092015D01*
Y1496857D01*
X6091612D01*
Y1495648D01*
X6091209D01*
Y1494439D01*
X6090806D01*
Y1493230D01*
X6090403D01*
Y1492424D01*
X6090000D01*
Y1491215D01*
X6089597D01*
Y1490409D01*
X6089194D01*
Y1489199D01*
X6088791D01*
Y1488393D01*
X6088388D01*
Y1487587D01*
X6087985D01*
Y1486781D01*
X6087582D01*
Y1485975D01*
X6087179D01*
Y1485169D01*
X6086776D01*
Y1484363D01*
X6086373D01*
Y1483557D01*
X6085970D01*
Y1482751D01*
X6085567D01*
Y1481945D01*
X6085164D01*
Y1481542D01*
X6084760D01*
Y1480735D01*
X6084358D01*
Y1479929D01*
X6083955D01*
Y1479124D01*
X6083551D01*
Y1478720D01*
X6083148D01*
Y1477914D01*
X6082745D01*
Y1477108D01*
X6082342D01*
Y1476705D01*
X6081939D01*
Y1475899D01*
X6081536D01*
Y1475496D01*
X6081133D01*
Y1474690D01*
X6080730D01*
Y1473884D01*
X6080327D01*
Y1473481D01*
X6079924D01*
Y1472675D01*
X6079521D01*
Y1472272D01*
X6079118D01*
Y1471466D01*
X6078715D01*
Y1471063D01*
X6078312D01*
Y1470257D01*
X6077909D01*
Y1469854D01*
X6077506D01*
Y1469048D01*
X6077103D01*
Y1468645D01*
X6076700D01*
Y1467838D01*
X6076297D01*
Y1467435D01*
X6075894D01*
Y1466629D01*
X6075491D01*
Y1466226D01*
X6075088D01*
Y1465420D01*
X6074685D01*
Y1465017D01*
X6074281D01*
Y1464614D01*
X6073879D01*
Y1463808D01*
X6073476D01*
Y1463405D01*
X6073072D01*
Y1462599D01*
X6072670D01*
Y1462196D01*
X6072266D01*
Y1461793D01*
X6071863D01*
Y1460987D01*
X6071460D01*
Y1460584D01*
X6071057D01*
Y1459778D01*
X6070654D01*
Y1459375D01*
X6070251D01*
Y1458971D01*
X6069848D01*
Y1458165D01*
X6069445D01*
Y1457762D01*
X6069042D01*
Y1456956D01*
X6068639D01*
Y1456553D01*
X6068236D01*
Y1456150D01*
X6067833D01*
Y1455344D01*
X6067430D01*
Y1454941D01*
X6067027D01*
Y1454538D01*
X6066624D01*
Y1453732D01*
X6066221D01*
Y1453329D01*
X6065818D01*
Y1452523D01*
X6065415D01*
Y1452120D01*
X6065012D01*
Y1451717D01*
X6064609D01*
Y1450911D01*
X6064206D01*
Y1450508D01*
X6063803D01*
Y1450105D01*
X6063400D01*
Y1449299D01*
X6062997D01*
Y1448896D01*
X6062593D01*
Y1448493D01*
X6062191D01*
Y1447686D01*
X6061787D01*
Y1447283D01*
X6061384D01*
Y1446477D01*
X6060981D01*
Y1446074D01*
X6060578D01*
Y1445671D01*
X6060175D01*
Y1444865D01*
X6059772D01*
Y1444462D01*
X6059369D01*
Y1443656D01*
X6058966D01*
Y1443253D01*
X6058563D01*
Y1442850D01*
X6058160D01*
Y1442044D01*
X6057757D01*
Y1441641D01*
X6057354D01*
Y1440835D01*
X6056951D01*
Y1440432D01*
X6056548D01*
Y1440029D01*
X6056145D01*
Y1439223D01*
X6055742D01*
Y1438820D01*
X6055339D01*
Y1438014D01*
X6054936D01*
Y1437611D01*
X6054533D01*
Y1436805D01*
X6054130D01*
Y1436401D01*
X6053727D01*
Y1435595D01*
X6053324D01*
Y1435192D01*
X6052921D01*
Y1434386D01*
X6052517D01*
Y1433983D01*
X6052115D01*
Y1433177D01*
X6051712D01*
Y1432774D01*
X6051308D01*
Y1431968D01*
X6050906D01*
Y1431162D01*
X6050503D01*
Y1430759D01*
X6050099D01*
Y1429953D01*
X6049696D01*
Y1429147D01*
X6049293D01*
Y1428744D01*
X6048890D01*
Y1427938D01*
X6048487D01*
Y1427132D01*
X6048084D01*
Y1426326D01*
X6047681D01*
Y1425922D01*
X6047278D01*
Y1425116D01*
X6046875D01*
Y1424310D01*
X6046472D01*
Y1423504D01*
X6046069D01*
Y1422698D01*
X6045666D01*
Y1421892D01*
X6045263D01*
Y1421086D01*
X6044860D01*
Y1419877D01*
X6044457D01*
Y1419071D01*
X6044054D01*
Y1417862D01*
X6043651D01*
Y1417056D01*
X6043248D01*
Y1415847D01*
X6042845D01*
Y1414234D01*
X6042442D01*
Y1412622D01*
X6042039D01*
Y1410607D01*
X6041636D01*
Y1404562D01*
X6042039D01*
Y1402546D01*
X6042442D01*
Y1401337D01*
X6042845D01*
Y1400531D01*
X6043248D01*
Y1399725D01*
X6043651D01*
Y1398919D01*
X6043248D01*
Y1399322D01*
X6042845D01*
Y1399725D01*
X6042442D01*
Y1400531D01*
X6042039D01*
Y1401337D01*
X6041636D01*
Y1402143D01*
X6041233D01*
Y1402949D01*
X6040829D01*
Y1404158D01*
X6040426D01*
Y1405771D01*
X6040023D01*
Y1407786D01*
X6039620D01*
Y1410607D01*
X6039217D01*
Y1419071D01*
X6039620D01*
Y1422295D01*
X6040023D01*
Y1424713D01*
X6040426D01*
Y1427132D01*
X6040829D01*
Y1428744D01*
X6041233D01*
Y1430356D01*
X6041636D01*
Y1431968D01*
X6042039D01*
Y1433177D01*
X6042442D01*
Y1434789D01*
X6042845D01*
Y1435998D01*
X6043248D01*
Y1437207D01*
X6043651D01*
Y1438417D01*
X6044054D01*
Y1439626D01*
X6044457D01*
Y1440432D01*
X6044860D01*
Y1441641D01*
X6045263D01*
Y1442447D01*
X6045666D01*
Y1443656D01*
X6046069D01*
Y1444462D01*
X6046472D01*
Y1445671D01*
X6046875D01*
Y1446477D01*
X6047278D01*
Y1447283D01*
X6047681D01*
Y1448493D01*
X6048084D01*
Y1449299D01*
X6048487D01*
Y1450105D01*
X6048890D01*
Y1450911D01*
X6049293D01*
Y1451717D01*
X6049696D01*
Y1452523D01*
X6050099D01*
Y1453329D01*
X6050503D01*
Y1454135D01*
X6050906D01*
Y1454941D01*
X6051308D01*
Y1455747D01*
X6051712D01*
Y1456553D01*
X6052115D01*
Y1457360D01*
X6052517D01*
Y1458165D01*
X6052921D01*
Y1458971D01*
X6053324D01*
Y1459778D01*
X6053727D01*
Y1460584D01*
X6054130D01*
Y1461390D01*
X6054533D01*
Y1462196D01*
X6054936D01*
Y1463002D01*
X6055339D01*
Y1463808D01*
X6055742D01*
Y1464614D01*
X6056145D01*
Y1465420D01*
X6056548D01*
Y1466226D01*
X6056951D01*
Y1467032D01*
X6057354D01*
Y1467838D01*
X6057757D01*
Y1468645D01*
X6058160D01*
Y1469450D01*
X6058563D01*
Y1470257D01*
X6058966D01*
Y1471063D01*
X6059369D01*
Y1471869D01*
X6059772D01*
Y1472675D01*
X6060175D01*
Y1473481D01*
X6060578D01*
Y1474690D01*
X6060981D01*
Y1475496D01*
X6061384D01*
Y1476302D01*
X6061787D01*
Y1477108D01*
X6062191D01*
Y1477914D01*
X6062593D01*
Y1478720D01*
X6062997D01*
Y1479526D01*
X6063400D01*
Y1480333D01*
X6063803D01*
Y1481139D01*
X6064206D01*
Y1482348D01*
X6064609D01*
Y1483154D01*
X6065012D01*
Y1483960D01*
X6065415D01*
Y1484766D01*
X6065818D01*
Y1485572D01*
X6066221D01*
Y1486378D01*
X6066624D01*
Y1487587D01*
X6067027D01*
Y1488393D01*
X6067430D01*
Y1489199D01*
X6067833D01*
Y1490005D01*
X6068236D01*
Y1490812D01*
X6068639D01*
Y1492021D01*
X6069042D01*
Y1492827D01*
X6069445D01*
Y1493633D01*
X6069848D01*
Y1494439D01*
X6070251D01*
Y1495245D01*
X6070654D01*
Y1496454D01*
X6071057D01*
Y1497260D01*
X6071460D01*
Y1498066D01*
X6071863D01*
Y1499275D01*
X6072266D01*
Y1500081D01*
X6072670D01*
Y1500888D01*
X6073072D01*
Y1502097D01*
X6073476D01*
Y1502903D01*
X6073879D01*
Y1504112D01*
X6074281D01*
Y1504918D01*
X6074685D01*
Y1505724D01*
X6075088D01*
Y1506933D01*
X6075491D01*
Y1507739D01*
X6075894D01*
Y1508948D01*
X6076297D01*
Y1510157D01*
X6076700D01*
Y1510963D01*
X6077103D01*
Y1512172D01*
X6077506D01*
Y1513382D01*
X6077909D01*
Y1514591D01*
X6078312D01*
Y1515800D01*
X6078715D01*
Y1517009D01*
X6079118D01*
Y1518621D01*
X6079521D01*
Y1520233D01*
X6079924D01*
Y1522248D01*
X6080327D01*
Y1524667D01*
X6080730D01*
Y1527488D01*
X6081133D01*
Y1532324D01*
X6081536D01*
Y1539982D01*
X6081133D01*
Y1544416D01*
X6080730D01*
Y1546834D01*
X6080327D01*
Y1548849D01*
X6079924D01*
Y1550461D01*
X6079521D01*
Y1551670D01*
X6079118D01*
Y1552879D01*
X6078715D01*
Y1554088D01*
X6078312D01*
Y1555298D01*
X6077909D01*
Y1556104D01*
X6077506D01*
Y1557313D01*
X6077103D01*
Y1558119D01*
X6076700D01*
Y1558925D01*
X6076297D01*
Y1559731D01*
X6075894D01*
Y1560537D01*
X6075491D01*
Y1561343D01*
X6075088D01*
Y1561746D01*
X6074685D01*
Y1562552D01*
X6074281D01*
Y1563358D01*
X6073879D01*
Y1563761D01*
X6073476D01*
Y1564164D01*
X6073072D01*
Y1564970D01*
X6072670D01*
Y1565374D01*
X6072266D01*
Y1566179D01*
X6071863D01*
Y1566583D01*
X6071460D01*
Y1566986D01*
X6071057D01*
Y1567389D01*
X6070654D01*
Y1567792D01*
X6070251D01*
Y1568598D01*
X6069848D01*
Y1569001D01*
X6069445D01*
Y1569404D01*
X6069042D01*
Y1569807D01*
X6068639D01*
Y1570210D01*
X6068236D01*
Y1570613D01*
X6067833D01*
Y1571016D01*
X6067430D01*
Y1571419D01*
X6067027D01*
Y1571822D01*
X6066221D01*
Y1572225D01*
X6065818D01*
Y1572628D01*
X6065415D01*
Y1573031D01*
X6065012D01*
Y1573434D01*
X6064609D01*
Y1573837D01*
X6063803D01*
Y1574240D01*
X6063400D01*
Y1574643D01*
X6062997D01*
Y1575046D01*
X6062191D01*
Y1575449D01*
X6061787D01*
Y1575852D01*
X6061384D01*
Y1576255D01*
X6060578D01*
Y1576659D01*
X6060175D01*
Y1577062D01*
X6059369D01*
Y1577465D01*
X6058563D01*
Y1577868D01*
X6058160D01*
Y1578271D01*
X6057354D01*
Y1578674D01*
X6056548D01*
Y1579077D01*
X6055742D01*
Y1579480D01*
X6054936D01*
Y1579883D01*
X6054130D01*
Y1580286D01*
X6053324D01*
Y1580689D01*
X6052517D01*
Y1581092D01*
X6051712D01*
Y1581495D01*
X6050906D01*
Y1581898D01*
X6049696D01*
Y1582301D01*
X6048890D01*
Y1582704D01*
X6047681D01*
Y1583107D01*
X6046472D01*
Y1583510D01*
X6045666D01*
Y1583913D01*
X6044457D01*
Y1584316D01*
X6042845D01*
Y1584719D01*
X6041636D01*
Y1585122D01*
X6040426D01*
Y1585525D01*
X6038814D01*
Y1585929D01*
X6037202D01*
Y1586331D01*
X6035187D01*
Y1586734D01*
X6033575D01*
Y1587138D01*
X6031157D01*
Y1587541D01*
X6028739D01*
Y1587943D01*
X6025917D01*
Y1588347D01*
X6022693D01*
Y1588750D01*
X6018259D01*
Y1589153D01*
X6010199D01*
Y1589556D01*
X6002541D01*
Y1589153D01*
X5993674D01*
Y1588750D01*
X5993271D01*
Y1589153D01*
X5992868D01*
Y1589959D01*
X5992465D01*
Y1590765D01*
X5992062D01*
Y1591168D01*
X5991659D01*
Y1591974D01*
X5991256D01*
Y1592780D01*
X5990853D01*
Y1593586D01*
X5990450D01*
Y1593989D01*
X5990047D01*
Y1594795D01*
X5989644D01*
Y1595601D01*
X5989241D01*
Y1596004D01*
X5988838D01*
Y1596810D01*
X5988435D01*
Y1597617D01*
X5988031D01*
Y1598423D01*
X5987629D01*
Y1598826D01*
X5987226D01*
Y1599632D01*
X5986822D01*
Y1600438D01*
X5986420D01*
Y1600841D01*
X5986016D01*
Y1601647D01*
X5985613D01*
Y1602453D01*
X5985210D01*
Y1602856D01*
X5984807D01*
Y1603662D01*
X5984404D01*
Y1604468D01*
X5984001D01*
Y1605274D01*
X5983598D01*
Y1605677D01*
X5983195D01*
Y1606483D01*
X5982792D01*
Y1607289D01*
X5982389D01*
Y1607692D01*
X5981986D01*
Y1608498D01*
X5981583D01*
Y1609305D01*
X5981180D01*
Y1610111D01*
X5980777D01*
Y1610514D01*
X5980374D01*
Y1611320D01*
X5979971D01*
Y1612126D01*
X5979568D01*
Y1612529D01*
X5979165D01*
Y1613335D01*
X5978762D01*
Y1613738D01*
X5981583D01*
Y1613335D01*
D02*
G37*
G36*
X6111764Y1414234D02*
X6114585D01*
Y1413831D01*
X6115794D01*
Y1413428D01*
X6117004D01*
Y1413025D01*
X6117810D01*
Y1412622D01*
X6118213D01*
Y1412219D01*
X6119019D01*
Y1411816D01*
X6119422D01*
Y1411413D01*
X6119825D01*
Y1411010D01*
X6120228D01*
Y1410607D01*
X6120631D01*
Y1410204D01*
X6121034D01*
Y1409398D01*
X6121437D01*
Y1408995D01*
X6121840D01*
Y1408189D01*
X6122243D01*
Y1406980D01*
X6122646D01*
Y1405771D01*
X6123049D01*
Y1403352D01*
X6123452D01*
Y1396098D01*
X6123049D01*
Y1386828D01*
X6122646D01*
Y1379170D01*
X6122243D01*
Y1373528D01*
X6121840D01*
Y1371915D01*
X6111361D01*
Y1399322D01*
X6110958D01*
Y1400531D01*
X6110555D01*
Y1400934D01*
X6110152D01*
Y1401337D01*
X6109346D01*
Y1401740D01*
X6097255D01*
Y1395292D01*
X6096852D01*
Y1381991D01*
X6096449D01*
Y1375946D01*
X6085970D01*
Y1380379D01*
X6085567D01*
Y1392470D01*
X6085164D01*
Y1401740D01*
X6072670D01*
Y1401337D01*
X6071863D01*
Y1400934D01*
X6071460D01*
Y1400531D01*
X6071057D01*
Y1399725D01*
X6070654D01*
Y1371915D01*
X6060175D01*
Y1372319D01*
X6059772D01*
Y1376752D01*
X6059369D01*
Y1384007D01*
X6058966D01*
Y1394485D01*
X6058563D01*
Y1403352D01*
X6058966D01*
Y1405771D01*
X6059369D01*
Y1406980D01*
X6059772D01*
Y1407786D01*
X6060175D01*
Y1408592D01*
X6060578D01*
Y1409398D01*
X6060981D01*
Y1409801D01*
X6061384D01*
Y1410607D01*
X6061787D01*
Y1411010D01*
X6062191D01*
Y1411413D01*
X6062593D01*
Y1411816D01*
X6063400D01*
Y1412219D01*
X6063803D01*
Y1412622D01*
X6064609D01*
Y1413025D01*
X6065415D01*
Y1413428D01*
X6066221D01*
Y1413831D01*
X6067833D01*
Y1414234D01*
X6070654D01*
Y1414638D01*
X6111764D01*
Y1414234D01*
D02*
G37*
G36*
X6164932Y1407254D02*
X6167124D01*
Y1406158D01*
X6169315D01*
Y1405062D01*
X6171507D01*
Y1403967D01*
X6173699D01*
Y1356844D01*
X6174795D01*
Y1352461D01*
X6175891D01*
Y1349173D01*
X6176987D01*
Y1348077D01*
X6178082D01*
Y1346981D01*
X6179178D01*
Y1345885D01*
X6181370D01*
Y1344789D01*
X6192329D01*
Y1345885D01*
X6194521D01*
Y1346981D01*
X6195617D01*
Y1348077D01*
X6196712D01*
Y1350269D01*
X6197808D01*
Y1353556D01*
X6198904D01*
Y1361227D01*
X6200000D01*
Y1406158D01*
X6237260D01*
Y1395200D01*
X6209863D01*
Y1359036D01*
X6210959D01*
Y1357940D01*
X6213150D01*
Y1356844D01*
X6215342D01*
Y1355748D01*
X6217534D01*
Y1354652D01*
X6219726D01*
Y1353556D01*
X6221917D01*
Y1352461D01*
X6224109D01*
Y1351365D01*
X6226301D01*
Y1350269D01*
X6228493D01*
Y1349173D01*
X6230685D01*
Y1348077D01*
X6232876D01*
Y1346981D01*
X6235068D01*
Y1345885D01*
X6237260D01*
Y1333831D01*
X6233972D01*
Y1334926D01*
X6231781D01*
Y1336022D01*
X6229589D01*
Y1337118D01*
X6227397D01*
Y1338214D01*
X6225205D01*
Y1339310D01*
X6223013D01*
Y1340406D01*
X6220821D01*
Y1341502D01*
X6218630D01*
Y1342598D01*
X6216438D01*
Y1343694D01*
X6214246D01*
Y1344789D01*
X6212055D01*
Y1345885D01*
X6209863D01*
Y1346981D01*
X6207671D01*
Y1345885D01*
X6206575D01*
Y1343694D01*
X6205479D01*
Y1342598D01*
X6204383D01*
Y1340406D01*
X6203288D01*
Y1339310D01*
X6202192D01*
Y1338214D01*
X6201096D01*
Y1337118D01*
X6200000D01*
Y1336022D01*
X6197808D01*
Y1334926D01*
X6194521D01*
Y1333831D01*
X6178082D01*
Y1334926D01*
X6175891D01*
Y1336022D01*
X6173699D01*
Y1337118D01*
X6172603D01*
Y1338214D01*
X6171507D01*
Y1339310D01*
X6170411D01*
Y1340406D01*
X6169315D01*
Y1341502D01*
X6168220D01*
Y1343694D01*
X6167124D01*
Y1345885D01*
X6166028D01*
Y1348077D01*
X6164932D01*
Y1349173D01*
Y1350269D01*
Y1352461D01*
X6163836D01*
Y1363419D01*
X6162740D01*
Y1408350D01*
X6164932D01*
Y1407254D01*
D02*
G37*
G36*
X6123049Y1353779D02*
X6121437D01*
Y1353376D01*
X6116601D01*
Y1352973D01*
X6112167D01*
Y1352570D01*
X6107331D01*
Y1352167D01*
X6102897D01*
Y1351764D01*
X6098464D01*
Y1351361D01*
X6093627D01*
Y1350957D01*
X6089194D01*
Y1350555D01*
X6084760D01*
Y1350151D01*
X6081536D01*
Y1349748D01*
X6083148D01*
Y1349345D01*
X6084760D01*
Y1348942D01*
X6086373D01*
Y1348539D01*
X6087985D01*
Y1348136D01*
X6089597D01*
Y1347733D01*
X6091209D01*
Y1347330D01*
X6092821D01*
Y1346927D01*
X6094434D01*
Y1346524D01*
X6096046D01*
Y1346121D01*
X6097658D01*
Y1345718D01*
X6099270D01*
Y1345315D01*
X6100882D01*
Y1344912D01*
X6102494D01*
Y1344509D01*
X6104106D01*
Y1344106D01*
X6105719D01*
Y1343703D01*
X6107331D01*
Y1343300D01*
X6108943D01*
Y1342897D01*
X6110555D01*
Y1342494D01*
X6112167D01*
Y1342091D01*
X6113779D01*
Y1341688D01*
X6115391D01*
Y1341285D01*
X6117004D01*
Y1340881D01*
X6118616D01*
Y1340479D01*
X6120228D01*
Y1340076D01*
X6121840D01*
Y1339672D01*
X6123049D01*
Y1325566D01*
X6122243D01*
Y1325163D01*
X6120631D01*
Y1324760D01*
X6119019D01*
Y1324357D01*
X6117407D01*
Y1323954D01*
X6115794D01*
Y1323551D01*
X6114182D01*
Y1323148D01*
X6112570D01*
Y1322745D01*
X6110555D01*
Y1322342D01*
X6108943D01*
Y1321939D01*
X6107331D01*
Y1321536D01*
X6105719D01*
Y1321133D01*
X6104106D01*
Y1320730D01*
X6102494D01*
Y1320327D01*
X6100882D01*
Y1319924D01*
X6098867D01*
Y1319521D01*
X6097255D01*
Y1319118D01*
X6095643D01*
Y1318714D01*
X6094030D01*
Y1318312D01*
X6092418D01*
Y1317908D01*
X6090806D01*
Y1317505D01*
X6089194D01*
Y1317102D01*
X6087179D01*
Y1316699D01*
X6085567D01*
Y1316296D01*
X6083955D01*
Y1315893D01*
X6082342D01*
Y1315490D01*
X6082745D01*
Y1315087D01*
X6086776D01*
Y1314684D01*
X6090806D01*
Y1314281D01*
X6094837D01*
Y1313878D01*
X6099270D01*
Y1313475D01*
X6103300D01*
Y1313072D01*
X6107331D01*
Y1312669D01*
X6111361D01*
Y1312266D01*
X6115391D01*
Y1311863D01*
X6119422D01*
Y1311460D01*
X6123049D01*
Y1298966D01*
X6119422D01*
Y1299369D01*
X6115391D01*
Y1299772D01*
X6110958D01*
Y1300175D01*
X6106525D01*
Y1300578D01*
X6102091D01*
Y1300981D01*
X6098061D01*
Y1301384D01*
X6093627D01*
Y1301787D01*
X6089194D01*
Y1302190D01*
X6084760D01*
Y1302593D01*
X6080730D01*
Y1302996D01*
X6076297D01*
Y1303399D01*
X6071863D01*
Y1303802D01*
X6067430D01*
Y1304205D01*
X6062997D01*
Y1304608D01*
X6058966D01*
Y1305011D01*
X6058563D01*
Y1322342D01*
X6060175D01*
Y1322745D01*
X6061787D01*
Y1323148D01*
X6063400D01*
Y1323551D01*
X6065012D01*
Y1323954D01*
X6066624D01*
Y1324357D01*
X6068639D01*
Y1324760D01*
X6070251D01*
Y1325163D01*
X6071863D01*
Y1325566D01*
X6073476D01*
Y1325969D01*
X6075088D01*
Y1326372D01*
X6076700D01*
Y1326775D01*
X6078312D01*
Y1327178D01*
X6079924D01*
Y1327581D01*
X6081939D01*
Y1327984D01*
X6083551D01*
Y1328387D01*
X6085164D01*
Y1328790D01*
X6086776D01*
Y1329193D01*
X6088388D01*
Y1329597D01*
X6090000D01*
Y1330000D01*
X6091612D01*
Y1330402D01*
X6093224D01*
Y1330806D01*
X6095240D01*
Y1331209D01*
X6096852D01*
Y1331612D01*
X6098464D01*
Y1332015D01*
X6100076D01*
Y1332418D01*
X6101688D01*
Y1332821D01*
X6100076D01*
Y1333224D01*
X6098464D01*
Y1333627D01*
X6096852D01*
Y1334030D01*
X6095240D01*
Y1334433D01*
X6093627D01*
Y1334836D01*
X6092015D01*
Y1335239D01*
X6090000D01*
Y1335642D01*
X6088388D01*
Y1336045D01*
X6086776D01*
Y1336448D01*
X6085164D01*
Y1336851D01*
X6083551D01*
Y1337254D01*
X6081939D01*
Y1337657D01*
X6080327D01*
Y1338060D01*
X6078715D01*
Y1338463D01*
X6077103D01*
Y1338866D01*
X6075491D01*
Y1339269D01*
X6073476D01*
Y1339672D01*
X6071863D01*
Y1340076D01*
X6070251D01*
Y1340479D01*
X6068639D01*
Y1340881D01*
X6067027D01*
Y1341285D01*
X6065415D01*
Y1341688D01*
X6063803D01*
Y1342091D01*
X6062191D01*
Y1342494D01*
X6060578D01*
Y1342897D01*
X6058966D01*
Y1343300D01*
X6058563D01*
Y1360630D01*
X6061384D01*
Y1361033D01*
X6066221D01*
Y1361436D01*
X6070654D01*
Y1361840D01*
X6075491D01*
Y1362243D01*
X6079924D01*
Y1362646D01*
X6084760D01*
Y1363049D01*
X6089194D01*
Y1363452D01*
X6093627D01*
Y1363855D01*
X6098464D01*
Y1364258D01*
X6102897D01*
Y1364661D01*
X6107734D01*
Y1365064D01*
X6112167D01*
Y1365467D01*
X6117004D01*
Y1365870D01*
X6121437D01*
Y1366273D01*
X6123049D01*
Y1353779D01*
D02*
G37*
G36*
X6164932Y1327255D02*
X6167124D01*
Y1326159D01*
X6169315D01*
Y1325064D01*
X6171507D01*
Y1323968D01*
X6173699D01*
Y1296571D01*
X6237260D01*
Y1285612D01*
X6173699D01*
Y1258215D01*
X6171507D01*
Y1257119D01*
X6169315D01*
Y1256023D01*
X6167124D01*
Y1254927D01*
X6164932D01*
Y1253832D01*
X6162740D01*
Y1328351D01*
X6164932D01*
Y1327255D01*
D02*
G37*
G36*
X6123049Y1259065D02*
X6122646D01*
Y1257050D01*
X6122243D01*
Y1255438D01*
X6121840D01*
Y1254228D01*
X6121437D01*
Y1253422D01*
X6121034D01*
Y1252213D01*
X6120631D01*
Y1251810D01*
X6120228D01*
Y1251004D01*
X6119825D01*
Y1250601D01*
X6119422D01*
Y1249795D01*
X6119019D01*
Y1249392D01*
X6118616D01*
Y1248989D01*
X6118213D01*
Y1248586D01*
X6117810D01*
Y1248183D01*
X6117004D01*
Y1247780D01*
X6116601D01*
Y1247377D01*
X6116198D01*
Y1246974D01*
X6115391D01*
Y1246571D01*
X6114585D01*
Y1246168D01*
X6113779D01*
Y1245765D01*
X6112570D01*
Y1245362D01*
X6111361D01*
Y1244959D01*
X6109346D01*
Y1244556D01*
X6104912D01*
Y1244152D01*
X6103300D01*
Y1244556D01*
X6100076D01*
Y1244959D01*
X6098464D01*
Y1245362D01*
X6097255D01*
Y1245765D01*
X6096046D01*
Y1246168D01*
X6095643D01*
Y1246571D01*
X6094837D01*
Y1246974D01*
X6094030D01*
Y1247377D01*
X6093627D01*
Y1247780D01*
X6093224D01*
Y1248183D01*
X6092821D01*
Y1248586D01*
X6092418D01*
Y1248989D01*
X6092015D01*
Y1249392D01*
X6091612D01*
Y1249795D01*
X6091209D01*
Y1250198D01*
X6090806D01*
Y1251004D01*
X6090403D01*
Y1251810D01*
X6090000D01*
Y1253019D01*
X6089597D01*
Y1252616D01*
X6089194D01*
Y1251810D01*
X6088791D01*
Y1251004D01*
X6088388D01*
Y1250601D01*
X6087985D01*
Y1249795D01*
X6087582D01*
Y1249392D01*
X6087179D01*
Y1248989D01*
X6086776D01*
Y1248586D01*
X6085970D01*
Y1248183D01*
X6085567D01*
Y1247780D01*
X6084760D01*
Y1247377D01*
X6083955D01*
Y1246974D01*
X6083148D01*
Y1246571D01*
X6082342D01*
Y1246168D01*
X6080730D01*
Y1245765D01*
X6078715D01*
Y1245362D01*
X6073072D01*
Y1245765D01*
X6070654D01*
Y1246168D01*
X6069042D01*
Y1246571D01*
X6068236D01*
Y1246974D01*
X6067027D01*
Y1247377D01*
X6066221D01*
Y1247780D01*
X6065818D01*
Y1248183D01*
X6065012D01*
Y1248586D01*
X6064609D01*
Y1248989D01*
X6064206D01*
Y1249392D01*
X6063803D01*
Y1249795D01*
X6063400D01*
Y1250198D01*
X6062997D01*
Y1250601D01*
X6062593D01*
Y1251004D01*
X6062191D01*
Y1251407D01*
X6061787D01*
Y1251810D01*
X6061384D01*
Y1252616D01*
X6060981D01*
Y1253422D01*
X6060578D01*
Y1254228D01*
X6060175D01*
Y1255035D01*
X6059772D01*
Y1256244D01*
X6059369D01*
Y1257856D01*
X6058966D01*
Y1260274D01*
X6058563D01*
Y1290099D01*
X6123049D01*
Y1259065D01*
D02*
G37*
G36*
Y1225613D02*
X6098867D01*
Y1215134D01*
X6099270D01*
Y1214731D01*
X6100076D01*
Y1214328D01*
X6101285D01*
Y1213925D01*
X6102091D01*
Y1213522D01*
X6102897D01*
Y1213119D01*
X6104106D01*
Y1212716D01*
X6104912D01*
Y1212313D01*
X6105719D01*
Y1211910D01*
X6106525D01*
Y1211507D01*
X6107734D01*
Y1211103D01*
X6108540D01*
Y1210700D01*
X6109346D01*
Y1210297D01*
X6110555D01*
Y1209894D01*
X6111361D01*
Y1209491D01*
X6112167D01*
Y1209088D01*
X6112973D01*
Y1208685D01*
X6114182D01*
Y1208282D01*
X6114989D01*
Y1207879D01*
X6115794D01*
Y1207476D01*
X6117004D01*
Y1207073D01*
X6117810D01*
Y1206670D01*
X6118616D01*
Y1206267D01*
X6119422D01*
Y1205864D01*
X6120631D01*
Y1205461D01*
X6121437D01*
Y1205058D01*
X6122243D01*
Y1204655D01*
X6123049D01*
Y1190549D01*
X6121840D01*
Y1190952D01*
X6121034D01*
Y1191354D01*
X6120228D01*
Y1191758D01*
X6119422D01*
Y1192161D01*
X6118616D01*
Y1192564D01*
X6117810D01*
Y1192967D01*
X6117004D01*
Y1193370D01*
X6116198D01*
Y1193773D01*
X6115391D01*
Y1194176D01*
X6114585D01*
Y1194579D01*
X6113779D01*
Y1194982D01*
X6112973D01*
Y1195385D01*
X6112167D01*
Y1195788D01*
X6110958D01*
Y1196191D01*
X6110152D01*
Y1196594D01*
X6109346D01*
Y1196997D01*
X6108540D01*
Y1197400D01*
X6107734D01*
Y1197803D01*
X6106928D01*
Y1198206D01*
X6106122D01*
Y1198609D01*
X6105315D01*
Y1199012D01*
X6104510D01*
Y1199415D01*
X6103703D01*
Y1199819D01*
X6102897D01*
Y1200221D01*
X6102091D01*
Y1200624D01*
X6101285D01*
Y1201028D01*
X6100479D01*
Y1201431D01*
X6099270D01*
Y1201834D01*
X6098464D01*
Y1202237D01*
X6097658D01*
Y1201431D01*
X6097255D01*
Y1200221D01*
X6096852D01*
Y1199415D01*
X6096449D01*
Y1198609D01*
X6096046D01*
Y1198206D01*
X6095643D01*
Y1197803D01*
X6095240D01*
Y1196997D01*
X6094837D01*
Y1196594D01*
X6094030D01*
Y1196191D01*
X6093627D01*
Y1195788D01*
X6093224D01*
Y1195385D01*
X6092418D01*
Y1194982D01*
X6092015D01*
Y1194579D01*
X6091209D01*
Y1194176D01*
X6090000D01*
Y1193773D01*
X6088791D01*
Y1193370D01*
X6087582D01*
Y1192967D01*
X6085567D01*
Y1192564D01*
X6081536D01*
Y1192161D01*
X6076297D01*
Y1192564D01*
X6072670D01*
Y1192967D01*
X6070654D01*
Y1193370D01*
X6069042D01*
Y1193773D01*
X6068236D01*
Y1194176D01*
X6067027D01*
Y1194579D01*
X6066221D01*
Y1194982D01*
X6065415D01*
Y1195385D01*
X6065012D01*
Y1195788D01*
X6064206D01*
Y1196191D01*
X6063803D01*
Y1196594D01*
X6063400D01*
Y1196997D01*
X6062997D01*
Y1197400D01*
X6062593D01*
Y1197803D01*
X6062191D01*
Y1198206D01*
X6061787D01*
Y1199012D01*
X6061384D01*
Y1199415D01*
X6060981D01*
Y1200221D01*
X6060578D01*
Y1201028D01*
X6060175D01*
Y1201834D01*
X6059772D01*
Y1203043D01*
X6059369D01*
Y1204252D01*
X6058966D01*
Y1206670D01*
X6058563D01*
Y1238107D01*
X6123049D01*
Y1225613D01*
D02*
G37*
G36*
X6218630Y1241777D02*
X6223013D01*
Y1240681D01*
X6225205D01*
Y1239585D01*
X6226301D01*
Y1238490D01*
X6227397D01*
Y1237394D01*
X6229589D01*
Y1236298D01*
X6230685D01*
Y1234106D01*
X6231781D01*
Y1233010D01*
X6232876D01*
Y1230818D01*
X6233972D01*
Y1228627D01*
X6235068D01*
Y1226435D01*
X6236164D01*
Y1223147D01*
X6237260D01*
Y1218764D01*
X6238356D01*
Y1192463D01*
X6237260D01*
Y1188079D01*
X6236164D01*
Y1184792D01*
X6235068D01*
Y1181504D01*
X6233972D01*
Y1179312D01*
X6232876D01*
Y1178216D01*
X6231781D01*
Y1176025D01*
X6230685D01*
Y1174929D01*
X6229589D01*
Y1173833D01*
X6228493D01*
Y1172737D01*
X6227397D01*
Y1171641D01*
X6225205D01*
Y1170545D01*
X6223013D01*
Y1169449D01*
X6220821D01*
Y1168353D01*
X6162740D01*
Y1178216D01*
X6213150D01*
Y1179312D01*
X6217534D01*
Y1180408D01*
X6219726D01*
Y1181504D01*
X6220821D01*
Y1182600D01*
X6221917D01*
Y1183696D01*
X6223013D01*
Y1184792D01*
X6224109D01*
Y1186983D01*
X6225205D01*
Y1189175D01*
X6226301D01*
Y1191367D01*
X6227397D01*
Y1195750D01*
X6228493D01*
Y1214380D01*
X6227397D01*
Y1218764D01*
X6226301D01*
Y1222051D01*
X6225205D01*
Y1224243D01*
X6224109D01*
Y1226435D01*
X6223013D01*
Y1227531D01*
X6221917D01*
Y1228627D01*
X6220821D01*
Y1229722D01*
X6219726D01*
Y1230818D01*
X6217534D01*
Y1231914D01*
X6162740D01*
Y1242873D01*
X6218630D01*
Y1241777D01*
D02*
G37*
G36*
X6123049Y1172815D02*
X6121840D01*
Y1172412D01*
X6120631D01*
Y1172009D01*
X6119422D01*
Y1171606D01*
X6118213D01*
Y1171203D01*
X6117004D01*
Y1170800D01*
X6115794D01*
Y1170397D01*
X6114585D01*
Y1169994D01*
X6112973D01*
Y1169590D01*
X6111764D01*
Y1169188D01*
X6110555D01*
Y1168785D01*
X6109346D01*
Y1168381D01*
X6108943D01*
Y1147424D01*
X6110152D01*
Y1147021D01*
X6111361D01*
Y1146617D01*
X6112973D01*
Y1146214D01*
X6114182D01*
Y1145811D01*
X6115391D01*
Y1145408D01*
X6116601D01*
Y1145005D01*
X6117810D01*
Y1144602D01*
X6119019D01*
Y1144199D01*
X6120228D01*
Y1143796D01*
X6121437D01*
Y1143393D01*
X6123049D01*
Y1129690D01*
X6122243D01*
Y1130093D01*
X6121034D01*
Y1130496D01*
X6119825D01*
Y1130899D01*
X6118616D01*
Y1131302D01*
X6117407D01*
Y1131705D01*
X6116198D01*
Y1132108D01*
X6114989D01*
Y1132511D01*
X6113779D01*
Y1132914D01*
X6112167D01*
Y1133317D01*
X6110958D01*
Y1133720D01*
X6109749D01*
Y1134123D01*
X6108540D01*
Y1134526D01*
X6107331D01*
Y1134929D01*
X6106122D01*
Y1135333D01*
X6104912D01*
Y1135735D01*
X6103703D01*
Y1136138D01*
X6102494D01*
Y1136542D01*
X6101285D01*
Y1136945D01*
X6100076D01*
Y1137347D01*
X6098867D01*
Y1137751D01*
X6097658D01*
Y1138154D01*
X6096046D01*
Y1138557D01*
X6094837D01*
Y1138960D01*
X6093627D01*
Y1139363D01*
X6092418D01*
Y1139766D01*
X6091209D01*
Y1140169D01*
X6090000D01*
Y1140572D01*
X6088791D01*
Y1140975D01*
X6087582D01*
Y1141378D01*
X6086373D01*
Y1141781D01*
X6085164D01*
Y1142184D01*
X6083955D01*
Y1142587D01*
X6082745D01*
Y1142990D01*
X6081536D01*
Y1143393D01*
X6080327D01*
Y1143796D01*
X6078715D01*
Y1144199D01*
X6077506D01*
Y1144602D01*
X6076297D01*
Y1145005D01*
X6075088D01*
Y1145408D01*
X6073879D01*
Y1145811D01*
X6072670D01*
Y1146214D01*
X6071460D01*
Y1146617D01*
X6070251D01*
Y1147021D01*
X6069042D01*
Y1147424D01*
X6067833D01*
Y1147827D01*
X6066624D01*
Y1148230D01*
X6065415D01*
Y1148633D01*
X6064206D01*
Y1149036D01*
X6062593D01*
Y1149439D01*
X6061384D01*
Y1149842D01*
X6060175D01*
Y1150245D01*
X6058966D01*
Y1150648D01*
X6058563D01*
Y1164754D01*
X6058966D01*
Y1165157D01*
X6060175D01*
Y1165560D01*
X6061384D01*
Y1165963D01*
X6062593D01*
Y1166366D01*
X6063803D01*
Y1166769D01*
X6065012D01*
Y1167172D01*
X6066221D01*
Y1167576D01*
X6067430D01*
Y1167978D01*
X6068639D01*
Y1168381D01*
X6069848D01*
Y1168785D01*
X6070654D01*
Y1169188D01*
X6071863D01*
Y1169590D01*
X6073072D01*
Y1169994D01*
X6074281D01*
Y1170397D01*
X6075491D01*
Y1170800D01*
X6076700D01*
Y1171203D01*
X6077909D01*
Y1171606D01*
X6079118D01*
Y1172009D01*
X6080327D01*
Y1172412D01*
X6081536D01*
Y1172815D01*
X6082745D01*
Y1173218D01*
X6083955D01*
Y1173621D01*
X6085164D01*
Y1174024D01*
X6086373D01*
Y1174427D01*
X6087582D01*
Y1174830D01*
X6088791D01*
Y1175233D01*
X6090000D01*
Y1175636D01*
X6091209D01*
Y1176039D01*
X6092418D01*
Y1176442D01*
X6093627D01*
Y1176845D01*
X6094837D01*
Y1177248D01*
X6096046D01*
Y1177651D01*
X6097255D01*
Y1178054D01*
X6098464D01*
Y1178457D01*
X6099673D01*
Y1178860D01*
X6100882D01*
Y1179264D01*
X6102091D01*
Y1179666D01*
X6103300D01*
Y1180070D01*
X6104510D01*
Y1180473D01*
X6105315D01*
Y1180876D01*
X6106525D01*
Y1181279D01*
X6107734D01*
Y1181682D01*
X6108943D01*
Y1182085D01*
X6110152D01*
Y1182488D01*
X6111361D01*
Y1182891D01*
X6112570D01*
Y1183294D01*
X6113779D01*
Y1183697D01*
X6114989D01*
Y1184100D01*
X6116198D01*
Y1184503D01*
X6117407D01*
Y1184906D01*
X6118616D01*
Y1185309D01*
X6119825D01*
Y1185712D01*
X6121034D01*
Y1186115D01*
X6122243D01*
Y1186518D01*
X6123049D01*
Y1172815D01*
D02*
G37*
G36*
X6184658Y1156299D02*
X6189041D01*
Y1155203D01*
X6190137D01*
Y1154107D01*
X6192329D01*
Y1153011D01*
X6193425D01*
Y1151915D01*
X6194521D01*
Y1149723D01*
X6195617D01*
Y1148628D01*
X6196712D01*
Y1146436D01*
X6197808D01*
Y1144244D01*
X6198904D01*
Y1143148D01*
Y1140957D01*
X6200000D01*
Y1138765D01*
X6201096D01*
Y1134381D01*
X6202192D01*
Y1131094D01*
X6203288D01*
Y1125614D01*
X6204383D01*
Y1121231D01*
X6205479D01*
Y1116847D01*
X6206575D01*
Y1113560D01*
X6207671D01*
Y1110272D01*
X6208767D01*
Y1106984D01*
X6209863D01*
Y1104793D01*
X6210959D01*
Y1102601D01*
X6212055D01*
Y1101505D01*
X6213150D01*
Y1100409D01*
X6214246D01*
Y1099313D01*
X6215342D01*
Y1098217D01*
X6220821D01*
Y1099313D01*
X6223013D01*
Y1100409D01*
X6224109D01*
Y1102601D01*
X6225205D01*
Y1104793D01*
X6226301D01*
Y1106984D01*
X6227397D01*
Y1111368D01*
X6228493D01*
Y1135477D01*
X6227397D01*
Y1142052D01*
X6226301D01*
Y1147532D01*
X6225205D01*
Y1150819D01*
X6224109D01*
Y1153011D01*
X6226301D01*
Y1154107D01*
X6228493D01*
Y1155203D01*
X6230685D01*
Y1156299D01*
X6233972D01*
Y1153011D01*
X6235068D01*
Y1149723D01*
X6236164D01*
Y1145340D01*
X6237260D01*
Y1138765D01*
X6238356D01*
Y1109176D01*
X6237260D01*
Y1104793D01*
X6236164D01*
Y1101505D01*
X6235068D01*
Y1098217D01*
X6233972D01*
Y1096026D01*
X6232876D01*
Y1094930D01*
X6231781D01*
Y1092738D01*
X6230685D01*
Y1091642D01*
X6229589D01*
Y1090546D01*
X6227397D01*
Y1089450D01*
X6226301D01*
Y1088354D01*
X6223013D01*
Y1087259D01*
X6212055D01*
Y1088354D01*
X6209863D01*
Y1089450D01*
X6208767D01*
Y1090546D01*
X6206575D01*
Y1091642D01*
X6205479D01*
Y1092738D01*
X6204383D01*
Y1094930D01*
X6203288D01*
Y1096026D01*
X6202192D01*
Y1098217D01*
X6201096D01*
Y1100409D01*
X6200000D01*
Y1103697D01*
X6198904D01*
Y1106984D01*
X6197808D01*
Y1110272D01*
X6196712D01*
Y1113560D01*
X6195617D01*
Y1117943D01*
X6194521D01*
Y1122326D01*
X6193425D01*
Y1126710D01*
X6192329D01*
Y1131094D01*
X6191233D01*
Y1134381D01*
X6190137D01*
Y1137669D01*
X6189041D01*
Y1139861D01*
X6187945D01*
Y1142052D01*
X6186849D01*
Y1143148D01*
X6185754D01*
Y1144244D01*
X6184658D01*
Y1145340D01*
X6182466D01*
Y1146436D01*
X6180274D01*
Y1145340D01*
X6178082D01*
Y1144244D01*
X6176987D01*
Y1143148D01*
X6175891D01*
Y1142052D01*
X6174795D01*
Y1138765D01*
X6173699D01*
Y1135477D01*
X6172603D01*
Y1127806D01*
X6171507D01*
Y1120135D01*
X6172603D01*
Y1111368D01*
X6173699D01*
Y1104793D01*
X6174795D01*
Y1100409D01*
X6175891D01*
Y1097122D01*
X6174795D01*
Y1096026D01*
X6172603D01*
Y1094930D01*
X6170411D01*
Y1093834D01*
X6168220D01*
Y1092738D01*
X6166028D01*
Y1097122D01*
X6164932D01*
Y1101505D01*
X6163836D01*
Y1106984D01*
X6162740D01*
Y1115751D01*
X6161644D01*
Y1129998D01*
X6162740D01*
Y1137669D01*
X6163836D01*
Y1142052D01*
X6164932D01*
Y1145340D01*
X6166028D01*
Y1147532D01*
X6167124D01*
Y1149723D01*
X6168220D01*
Y1150819D01*
X6169315D01*
Y1151915D01*
X6170411D01*
Y1153011D01*
X6171507D01*
Y1154107D01*
X6172603D01*
Y1155203D01*
X6174795D01*
Y1156299D01*
X6179178D01*
Y1157395D01*
X6184658D01*
Y1156299D01*
D02*
G37*
G36*
X6123049Y1111553D02*
X6099270D01*
Y1090595D01*
X6098867D01*
Y1088983D01*
X6098464D01*
Y1087774D01*
X6098061D01*
Y1086968D01*
X6097658D01*
Y1086162D01*
X6097255D01*
Y1085759D01*
X6096852D01*
Y1084953D01*
X6096449D01*
Y1084550D01*
X6096046D01*
Y1084147D01*
X6095643D01*
Y1083744D01*
X6095240D01*
Y1083340D01*
X6094837D01*
Y1082938D01*
X6094434D01*
Y1082535D01*
X6094030D01*
Y1082131D01*
X6093224D01*
Y1081728D01*
X6092821D01*
Y1081325D01*
X6092015D01*
Y1080922D01*
X6091209D01*
Y1080519D01*
X6090000D01*
Y1080116D01*
X6088791D01*
Y1079713D01*
X6087179D01*
Y1079310D01*
X6085164D01*
Y1078907D01*
X6081536D01*
Y1078504D01*
X6075894D01*
Y1078907D01*
X6072266D01*
Y1079310D01*
X6070654D01*
Y1079713D01*
X6069042D01*
Y1080116D01*
X6067833D01*
Y1080519D01*
X6067027D01*
Y1080922D01*
X6066221D01*
Y1081325D01*
X6065415D01*
Y1081728D01*
X6065012D01*
Y1082131D01*
X6064206D01*
Y1082535D01*
X6063803D01*
Y1082938D01*
X6063400D01*
Y1083340D01*
X6062997D01*
Y1083744D01*
X6062593D01*
Y1084147D01*
X6062191D01*
Y1084550D01*
X6061787D01*
Y1084953D01*
X6061384D01*
Y1085759D01*
X6060981D01*
Y1086565D01*
X6060578D01*
Y1086968D01*
X6060175D01*
Y1088177D01*
X6059772D01*
Y1089386D01*
X6059369D01*
Y1090595D01*
X6058966D01*
Y1093013D01*
X6058563D01*
Y1124450D01*
X6123049D01*
Y1111553D01*
D02*
G37*
G36*
Y1057949D02*
X6058563D01*
Y1070846D01*
X6123049D01*
Y1057949D01*
D02*
G37*
G36*
X6122646Y1049082D02*
X6123049D01*
Y1036588D01*
X6058563D01*
Y1038603D01*
Y1039007D01*
Y1049082D01*
X6058966D01*
Y1049485D01*
X6122646D01*
Y1049082D01*
D02*
G37*
G36*
X6213150Y1057670D02*
X6217534D01*
Y1056574D01*
X6220821D01*
Y1055478D01*
X6224109D01*
Y1054382D01*
X6226301D01*
Y1053286D01*
X6227397D01*
Y1052190D01*
X6229589D01*
Y1051095D01*
X6230685D01*
Y1049999D01*
X6231781D01*
Y1048903D01*
X6232876D01*
Y1046711D01*
X6233972D01*
Y1045615D01*
X6235068D01*
Y1043424D01*
X6236164D01*
Y1040136D01*
X6237260D01*
Y989725D01*
X6226301D01*
Y1037944D01*
X6225205D01*
Y1040136D01*
X6224109D01*
Y1041232D01*
X6223013D01*
Y1042328D01*
X6221917D01*
Y1043424D01*
X6220821D01*
Y1044519D01*
X6218630D01*
Y1045615D01*
X6216438D01*
Y1046711D01*
X6213150D01*
Y1047807D01*
X6208767D01*
Y1048903D01*
X6191233D01*
Y1047807D01*
X6186849D01*
Y1046711D01*
X6183562D01*
Y1045615D01*
X6181370D01*
Y1044519D01*
X6179178D01*
Y1043424D01*
X6178082D01*
Y1042328D01*
X6176987D01*
Y1041232D01*
X6175891D01*
Y1040136D01*
X6174795D01*
Y1037944D01*
X6173699D01*
Y997397D01*
Y996301D01*
Y991917D01*
X6172603D01*
Y990821D01*
X6170411D01*
Y989725D01*
X6168220D01*
Y988630D01*
X6166028D01*
Y987534D01*
X6163836D01*
Y986438D01*
X6162740D01*
Y1040136D01*
X6163836D01*
Y1043424D01*
X6164932D01*
Y1045615D01*
X6166028D01*
Y1046711D01*
X6167124D01*
Y1048903D01*
X6168220D01*
Y1049999D01*
X6169315D01*
Y1051095D01*
X6171507D01*
Y1052190D01*
X6172603D01*
Y1053286D01*
X6174795D01*
Y1054382D01*
X6175891D01*
Y1055478D01*
X6179178D01*
Y1056574D01*
X6182466D01*
Y1057670D01*
X6186849D01*
Y1058766D01*
X6213150D01*
Y1057670D01*
D02*
G37*
G36*
Y978767D02*
X6217534D01*
Y977671D01*
X6220821D01*
Y976575D01*
X6224109D01*
Y975479D01*
X6226301D01*
Y974383D01*
X6227397D01*
Y973287D01*
X6229589D01*
Y972192D01*
X6230685D01*
Y971096D01*
X6231781D01*
Y970000D01*
X6232876D01*
Y967808D01*
X6233972D01*
Y966712D01*
X6235068D01*
Y964521D01*
X6236164D01*
Y961233D01*
X6237260D01*
Y910823D01*
X6226301D01*
Y934932D01*
Y936028D01*
Y959041D01*
X6225205D01*
Y961233D01*
X6224109D01*
Y962329D01*
X6223013D01*
Y963425D01*
X6221917D01*
Y964521D01*
X6220821D01*
Y965616D01*
X6218630D01*
Y966712D01*
X6216438D01*
Y967808D01*
X6213150D01*
Y968904D01*
X6208767D01*
Y970000D01*
X6191233D01*
Y968904D01*
X6186849D01*
Y967808D01*
X6183562D01*
Y966712D01*
X6181370D01*
Y965616D01*
X6179178D01*
Y964521D01*
X6178082D01*
Y963425D01*
X6176987D01*
Y962329D01*
X6175891D01*
Y961233D01*
X6174795D01*
Y959041D01*
X6173699D01*
Y913014D01*
X6172603D01*
Y911918D01*
X6170411D01*
Y910823D01*
X6168220D01*
Y909727D01*
X6166028D01*
Y908631D01*
X6163836D01*
Y907535D01*
X6162740D01*
Y961233D01*
X6163836D01*
Y964521D01*
X6164932D01*
Y966712D01*
X6166028D01*
Y967808D01*
X6167124D01*
Y970000D01*
X6168220D01*
Y971096D01*
X6169315D01*
Y972192D01*
X6171507D01*
Y973287D01*
X6172603D01*
Y974383D01*
X6174795D01*
Y975479D01*
X6175891D01*
Y976575D01*
X6179178D01*
Y977671D01*
X6182466D01*
Y978767D01*
X6186849D01*
Y979863D01*
X6213150D01*
Y978767D01*
D02*
G37*
G36*
X6348405Y1580677D02*
X6288022D01*
X6348405Y1565581D01*
Y1550596D01*
X6288022Y1535500D01*
X6348405Y1535389D01*
Y1521071D01*
X6271595D01*
Y1544380D01*
X6324097Y1558033D01*
X6271595Y1571797D01*
Y1594995D01*
X6348405D01*
Y1580677D01*
D02*
G37*
G36*
X6313885Y1508417D02*
X6317104Y1508084D01*
X6320101Y1507640D01*
X6322876Y1506974D01*
X6325429Y1506197D01*
X6327760Y1505309D01*
X6329980Y1504421D01*
X6331867Y1503422D01*
X6333643Y1502534D01*
X6335086Y1501646D01*
X6336418Y1500758D01*
X6337528Y1499981D01*
X6338305Y1499315D01*
X6338971Y1498871D01*
X6339304Y1498538D01*
X6339415Y1498427D01*
X6341302Y1496429D01*
X6342855Y1494320D01*
X6344298Y1492211D01*
X6345408Y1489880D01*
X6346407Y1487660D01*
X6347295Y1485329D01*
X6347961Y1483220D01*
X6348516Y1481000D01*
X6348960Y1479002D01*
X6349293Y1477115D01*
X6349515Y1475450D01*
X6349626Y1474007D01*
X6349737Y1472897D01*
X6349848Y1472010D01*
Y1471233D01*
X6349737Y1468125D01*
X6349404Y1465239D01*
X6348849Y1462464D01*
X6348183Y1459911D01*
X6347406Y1457469D01*
X6346518Y1455249D01*
X6345630Y1453251D01*
X6344631Y1451364D01*
X6343632Y1449810D01*
X6342744Y1448367D01*
X6341857Y1447146D01*
X6341080Y1446147D01*
X6340414Y1445259D01*
X6339859Y1444704D01*
X6339526Y1444371D01*
X6339415Y1444260D01*
X6337306Y1442484D01*
X6335086Y1440930D01*
X6332755Y1439487D01*
X6330424Y1438377D01*
X6327982Y1437378D01*
X6325540Y1436490D01*
X6323098Y1435824D01*
X6320767Y1435269D01*
X6318658Y1434936D01*
X6316549Y1434603D01*
X6314773Y1434381D01*
X6313219Y1434159D01*
X6311887D01*
X6310888Y1434048D01*
X6310333D01*
X6310111D01*
X6306670Y1434159D01*
X6303451Y1434492D01*
X6300454Y1434936D01*
X6297568Y1435602D01*
X6295015Y1436379D01*
X6292573Y1437267D01*
X6290353Y1438155D01*
X6288466Y1439154D01*
X6286690Y1440153D01*
X6285137Y1441041D01*
X6283805Y1441929D01*
X6282695Y1442706D01*
X6281918Y1443261D01*
X6281252Y1443816D01*
X6280919Y1444149D01*
X6280808Y1444260D01*
X6278921Y1446258D01*
X6277256Y1448367D01*
X6275813Y1450587D01*
X6274592Y1452807D01*
X6273593Y1455138D01*
X6272705Y1457358D01*
X6272039Y1459578D01*
X6271484Y1461687D01*
X6271040Y1463685D01*
X6270707Y1465572D01*
X6270485Y1467237D01*
X6270263Y1468680D01*
Y1469790D01*
X6270152Y1470678D01*
Y1471455D01*
X6270263Y1474784D01*
X6270596Y1478003D01*
X6271151Y1480778D01*
X6271706Y1483220D01*
X6272039Y1484219D01*
X6272261Y1485218D01*
X6272483Y1485995D01*
X6272816Y1486661D01*
X6272927Y1487216D01*
X6273149Y1487660D01*
X6273260Y1487882D01*
Y1487993D01*
X6274148Y1489991D01*
X6275258Y1491878D01*
X6276479Y1493543D01*
X6277589Y1494986D01*
X6278588Y1496207D01*
X6279476Y1497206D01*
X6280031Y1497761D01*
X6280142Y1497872D01*
X6280253Y1497983D01*
X6282029Y1499537D01*
X6283916Y1500980D01*
X6285581Y1502201D01*
X6287245Y1503200D01*
X6288688Y1503977D01*
X6289798Y1504643D01*
X6290242Y1504754D01*
X6290575Y1504976D01*
X6290686Y1505087D01*
X6290797D01*
X6293905Y1506197D01*
X6297235Y1507085D01*
X6300565Y1507640D01*
X6303673Y1508084D01*
X6305116Y1508195D01*
X6306448Y1508306D01*
X6307558Y1508417D01*
X6308557D01*
X6309445Y1508528D01*
X6310000D01*
X6310444D01*
X6310555D01*
X6313885Y1508417D01*
D02*
G37*
G36*
X6348405Y1406299D02*
X6319435D01*
Y1392535D01*
X6319324Y1390870D01*
Y1389316D01*
X6319213Y1387873D01*
X6319102Y1386541D01*
X6318991Y1385320D01*
X6318880Y1384321D01*
Y1383322D01*
X6318769Y1382545D01*
X6318658Y1381768D01*
X6318547Y1381213D01*
Y1380769D01*
X6318436Y1380436D01*
Y1380214D01*
X6317992Y1378660D01*
X6317437Y1377217D01*
X6316882Y1375885D01*
X6316216Y1374664D01*
X6315661Y1373665D01*
X6315217Y1372888D01*
X6314884Y1372444D01*
X6314773Y1372222D01*
X6313663Y1370779D01*
X6312442Y1369558D01*
X6311110Y1368337D01*
X6310000Y1367449D01*
X6308890Y1366672D01*
X6308002Y1366117D01*
X6307447Y1365784D01*
X6307225Y1365673D01*
X6305338Y1364785D01*
X6303340Y1364119D01*
X6301231Y1363675D01*
X6299344Y1363342D01*
X6297790Y1363120D01*
X6297013D01*
X6296458Y1363009D01*
X6295903D01*
X6295570D01*
X6295348D01*
X6295237D01*
X6292018Y1363231D01*
X6289021Y1363675D01*
X6286580Y1364452D01*
X6284360Y1365229D01*
X6283472Y1365673D01*
X6282695Y1366117D01*
X6282029Y1366450D01*
X6281363Y1366894D01*
X6280919Y1367116D01*
X6280586Y1367338D01*
X6280475Y1367560D01*
X6280364D01*
X6278366Y1369336D01*
X6276701Y1371112D01*
X6275369Y1372999D01*
X6274370Y1374664D01*
X6273704Y1376218D01*
X6273149Y1377439D01*
X6273038Y1377883D01*
X6272927Y1378216D01*
X6272816Y1378438D01*
Y1378549D01*
X6272594Y1379437D01*
X6272372Y1380547D01*
X6272261Y1381879D01*
X6272150Y1383211D01*
X6271928Y1386319D01*
X6271706Y1389427D01*
Y1392313D01*
X6271595Y1393534D01*
Y1421838D01*
X6348405D01*
Y1406299D01*
D02*
G37*
G36*
Y1341698D02*
X6330979Y1335371D01*
Y1304514D01*
X6348405Y1297854D01*
Y1281093D01*
X6271595Y1311950D01*
Y1328378D01*
X6348405Y1358126D01*
Y1341698D01*
D02*
G37*
G36*
Y1209610D02*
X6348294Y1207723D01*
Y1204393D01*
X6348183Y1203061D01*
Y1200952D01*
X6348072Y1200175D01*
Y1199065D01*
X6347961Y1198621D01*
Y1198177D01*
X6347628Y1195957D01*
X6347073Y1193960D01*
X6346518Y1192184D01*
X6345852Y1190630D01*
X6345297Y1189409D01*
X6344742Y1188521D01*
X6344409Y1187966D01*
X6344298Y1187744D01*
X6343077Y1186190D01*
X6341746Y1184969D01*
X6340525Y1183748D01*
X6339193Y1182860D01*
X6338083Y1182083D01*
X6337195Y1181528D01*
X6336640Y1181195D01*
X6336418Y1181084D01*
X6334531Y1180307D01*
X6332755Y1179641D01*
X6330979Y1179197D01*
X6329425Y1178975D01*
X6328093Y1178753D01*
X6327094Y1178642D01*
X6326428D01*
X6326317D01*
X6326206D01*
X6323764Y1178753D01*
X6321544Y1179197D01*
X6319657Y1179863D01*
X6317881Y1180529D01*
X6316549Y1181195D01*
X6315550Y1181861D01*
X6314884Y1182305D01*
X6314662Y1182416D01*
X6312886Y1183970D01*
X6311443Y1185635D01*
X6310222Y1187522D01*
X6309334Y1189187D01*
X6308557Y1190741D01*
X6308002Y1192073D01*
X6307891Y1192517D01*
X6307780Y1192850D01*
X6307669Y1193072D01*
Y1193183D01*
X6306670Y1191407D01*
X6305671Y1189853D01*
X6304450Y1188521D01*
X6303451Y1187411D01*
X6302452Y1186634D01*
X6301675Y1185968D01*
X6301120Y1185524D01*
X6300898Y1185413D01*
X6299122Y1184414D01*
X6297457Y1183637D01*
X6295792Y1183193D01*
X6294238Y1182749D01*
X6292906Y1182527D01*
X6291907Y1182416D01*
X6291241D01*
X6291130D01*
X6291019D01*
X6289243Y1182527D01*
X6287467Y1182749D01*
X6286025Y1183193D01*
X6284693Y1183637D01*
X6283583Y1184081D01*
X6282695Y1184525D01*
X6282251Y1184747D01*
X6282029Y1184858D01*
X6280586Y1185746D01*
X6279365Y1186745D01*
X6278255Y1187744D01*
X6277256Y1188632D01*
X6276590Y1189520D01*
X6276035Y1190186D01*
X6275702Y1190630D01*
X6275591Y1190741D01*
X6274703Y1192073D01*
X6274037Y1193516D01*
X6273482Y1194847D01*
X6273038Y1196068D01*
X6272705Y1197178D01*
X6272483Y1197955D01*
X6272372Y1198510D01*
Y1198732D01*
X6272150Y1200619D01*
X6271928Y1202728D01*
X6271817Y1204948D01*
X6271706Y1207168D01*
X6271595Y1209166D01*
Y1242910D01*
X6348405D01*
Y1209610D01*
D02*
G37*
G36*
X6323209Y1168874D02*
X6326428Y1168430D01*
X6329203Y1167875D01*
X6330424Y1167542D01*
X6331534Y1167209D01*
X6332533Y1166876D01*
X6333421Y1166543D01*
X6334198Y1166210D01*
X6334864Y1165988D01*
X6335419Y1165766D01*
X6335752Y1165544D01*
X6335974Y1165433D01*
X6336085D01*
X6338416Y1163879D01*
X6340414Y1162214D01*
X6342189Y1160438D01*
X6343632Y1158773D01*
X6344742Y1157219D01*
X6345519Y1155998D01*
X6345852Y1155554D01*
X6346074Y1155221D01*
X6346185Y1154999D01*
Y1154888D01*
X6347295Y1152224D01*
X6348183Y1149671D01*
X6348738Y1147229D01*
X6349182Y1144898D01*
X6349404Y1143011D01*
X6349515Y1142234D01*
Y1141568D01*
X6349626Y1141013D01*
Y1140236D01*
X6349515Y1137906D01*
X6349293Y1135797D01*
X6348849Y1133688D01*
X6348294Y1131801D01*
X6347739Y1129914D01*
X6347073Y1128249D01*
X6346296Y1126695D01*
X6345519Y1125252D01*
X6344742Y1124031D01*
X6343965Y1122921D01*
X6343299Y1121922D01*
X6342744Y1121145D01*
X6342189Y1120479D01*
X6341746Y1120035D01*
X6341524Y1119813D01*
X6341413Y1119702D01*
X6339748Y1118259D01*
X6338083Y1117038D01*
X6336418Y1115928D01*
X6334642Y1114929D01*
X6332866Y1114152D01*
X6331090Y1113486D01*
X6329425Y1112931D01*
X6327760Y1112487D01*
X6326317Y1112154D01*
X6324874Y1111932D01*
X6323653Y1111710D01*
X6322543Y1111599D01*
X6321655Y1111488D01*
X6320989D01*
X6320545D01*
X6320434D01*
X6318103Y1111599D01*
X6315883Y1111821D01*
X6313885Y1112265D01*
X6311887Y1112709D01*
X6310111Y1113375D01*
X6308335Y1114041D01*
X6306781Y1114818D01*
X6305338Y1115484D01*
X6304117Y1116261D01*
X6302896Y1117038D01*
X6302008Y1117704D01*
X6301120Y1118370D01*
X6300565Y1118814D01*
X6300010Y1119258D01*
X6299788Y1119480D01*
X6299677Y1119591D01*
X6298234Y1121145D01*
X6297013Y1122810D01*
X6295903Y1124475D01*
X6294904Y1126251D01*
X6294127Y1128027D01*
X6293461Y1129692D01*
X6292906Y1131357D01*
X6292462Y1133022D01*
X6292129Y1134465D01*
X6291907Y1135908D01*
X6291685Y1137129D01*
X6291574Y1138239D01*
X6291463Y1139126D01*
Y1140347D01*
X6291574Y1143344D01*
X6292018Y1146119D01*
X6292573Y1148672D01*
X6293239Y1150892D01*
X6293683Y1151780D01*
X6294016Y1152668D01*
X6294238Y1153445D01*
X6294571Y1154000D01*
X6294793Y1154555D01*
X6295015Y1154888D01*
X6295126Y1155110D01*
Y1155221D01*
X6296680Y1157552D01*
X6298345Y1159550D01*
X6300121Y1161326D01*
X6301786Y1162769D01*
X6303340Y1163879D01*
X6304561Y1164767D01*
X6305005Y1165100D01*
X6305338Y1165211D01*
X6305560Y1165433D01*
X6305671D01*
X6308224Y1166654D01*
X6310777Y1167431D01*
X6313108Y1168097D01*
X6315217Y1168541D01*
X6317104Y1168763D01*
X6317881Y1168874D01*
X6318547D01*
X6318991Y1168985D01*
X6319435D01*
X6319657D01*
X6319768D01*
X6323209Y1168874D01*
D02*
G37*
G36*
X6334642Y1103829D02*
X6335863Y1103718D01*
X6338194Y1103163D01*
X6340192Y1102386D01*
X6341857Y1101498D01*
X6343188Y1100610D01*
X6344187Y1099833D01*
X6344853Y1099278D01*
X6344964Y1099056D01*
X6345075D01*
X6346629Y1097058D01*
X6347739Y1094838D01*
X6348516Y1092618D01*
X6349071Y1090398D01*
X6349404Y1088511D01*
X6349515Y1087623D01*
Y1086957D01*
X6349626Y1086291D01*
Y1085514D01*
X6349515Y1083738D01*
X6349293Y1081963D01*
X6349071Y1080409D01*
X6348738Y1079077D01*
X6348405Y1077967D01*
X6348072Y1077079D01*
X6347961Y1076524D01*
X6347850Y1076302D01*
X6347073Y1074748D01*
X6346296Y1073194D01*
X6345297Y1071862D01*
X6344409Y1070641D01*
X6343632Y1069642D01*
X6342966Y1068865D01*
X6342522Y1068421D01*
X6342411Y1068199D01*
X6342855Y1068088D01*
X6343410Y1067866D01*
X6343854Y1067755D01*
X6343965Y1067644D01*
X6344076D01*
X6345075Y1067311D01*
X6345963Y1067089D01*
X6346740Y1066867D01*
X6347295Y1066645D01*
X6347739Y1066423D01*
X6348183Y1066312D01*
X6348294Y1066201D01*
X6348405D01*
Y1051660D01*
X6346962Y1052326D01*
X6345630Y1052881D01*
X6344409Y1053325D01*
X6343299Y1053769D01*
X6342411Y1053991D01*
X6341635Y1054213D01*
X6341191Y1054324D01*
X6341080D01*
X6339637Y1054546D01*
X6337861Y1054657D01*
X6336085Y1054879D01*
X6334309D01*
X6332755Y1054990D01*
X6331423D01*
X6330868D01*
X6330535D01*
X6330313D01*
X6330202D01*
X6312997Y1054768D01*
X6311221D01*
X6309667Y1054879D01*
X6308224Y1054990D01*
X6306892Y1055101D01*
X6305671Y1055212D01*
X6304561Y1055434D01*
X6303562Y1055545D01*
X6302785Y1055767D01*
X6302008Y1055989D01*
X6301453Y1056100D01*
X6300454Y1056433D01*
X6300010Y1056655D01*
X6299788Y1056766D01*
X6298567Y1057654D01*
X6297346Y1058653D01*
X6296347Y1059763D01*
X6295459Y1060984D01*
X6294793Y1061983D01*
X6294349Y1062871D01*
X6294016Y1063426D01*
X6293905Y1063537D01*
Y1063648D01*
X6293461Y1064647D01*
X6293128Y1065646D01*
X6292462Y1067977D01*
X6292018Y1070419D01*
X6291796Y1072750D01*
X6291574Y1074970D01*
Y1075858D01*
X6291463Y1076635D01*
Y1080298D01*
X6291685Y1082074D01*
X6291796Y1083849D01*
X6292129Y1085403D01*
X6292351Y1086957D01*
X6292684Y1088289D01*
X6293128Y1089510D01*
X6293461Y1090620D01*
X6293794Y1091508D01*
X6294238Y1092396D01*
X6294571Y1093062D01*
X6294793Y1093728D01*
X6295126Y1094172D01*
X6295237Y1094505D01*
X6295459Y1094616D01*
Y1094727D01*
X6297124Y1096614D01*
X6299011Y1098168D01*
X6301009Y1099500D01*
X6302896Y1100610D01*
X6304672Y1101387D01*
X6305449Y1101720D01*
X6306115Y1101942D01*
X6306670Y1102164D01*
X6307114Y1102275D01*
X6307336Y1102386D01*
X6307447D01*
X6309889Y1089177D01*
X6308557Y1088622D01*
X6307447Y1088067D01*
X6306448Y1087512D01*
X6305671Y1086846D01*
X6305116Y1086402D01*
X6304783Y1085958D01*
X6304561Y1085736D01*
X6304450Y1085625D01*
X6303895Y1084737D01*
X6303451Y1083738D01*
X6303229Y1082629D01*
X6303007Y1081630D01*
X6302896Y1080742D01*
X6302785Y1080076D01*
Y1079410D01*
X6302896Y1077412D01*
X6303118Y1075747D01*
X6303340Y1074415D01*
X6303673Y1073305D01*
X6304117Y1072528D01*
X6304339Y1071973D01*
X6304561Y1071640D01*
X6304672Y1071529D01*
X6305449Y1070752D01*
X6306337Y1070197D01*
X6307336Y1069864D01*
X6308335Y1069531D01*
X6309334Y1069420D01*
X6310111Y1069309D01*
X6310555D01*
X6310777D01*
X6312220D01*
X6312553Y1070086D01*
X6312886Y1071085D01*
X6313552Y1073194D01*
X6314107Y1075636D01*
X6314662Y1077967D01*
X6315217Y1080187D01*
X6315439Y1081186D01*
X6315550Y1082074D01*
X6315661Y1082740D01*
X6315772Y1083295D01*
X6315883Y1083628D01*
Y1083738D01*
X6316438Y1086402D01*
X6316993Y1088844D01*
X6317548Y1090842D01*
X6318103Y1092507D01*
X6318658Y1093839D01*
X6318991Y1094727D01*
X6319213Y1095282D01*
X6319324Y1095504D01*
X6320101Y1096947D01*
X6320989Y1098168D01*
X6321988Y1099278D01*
X6322876Y1100055D01*
X6323653Y1100832D01*
X6324319Y1101276D01*
X6324763Y1101609D01*
X6324985Y1101720D01*
X6326428Y1102497D01*
X6327871Y1103052D01*
X6329203Y1103385D01*
X6330535Y1103607D01*
X6331645Y1103829D01*
X6332533Y1103940D01*
X6333088D01*
X6333310D01*
X6334642Y1103829D01*
D02*
G37*
G36*
X6348405Y1026131D02*
X6331312D01*
X6328759D01*
X6326428D01*
X6324319Y1026020D01*
X6322432Y1025909D01*
X6320656D01*
X6319213Y1025798D01*
X6317770Y1025687D01*
X6316660Y1025576D01*
X6315661Y1025465D01*
X6314773Y1025354D01*
X6314107Y1025243D01*
X6313552D01*
X6313219Y1025132D01*
X6312886Y1025021D01*
X6312664D01*
X6311110Y1024577D01*
X6309778Y1024022D01*
X6308668Y1023467D01*
X6307891Y1022912D01*
X6307225Y1022468D01*
X6306781Y1022024D01*
X6306559Y1021802D01*
X6306448Y1021691D01*
X6305893Y1020803D01*
X6305449Y1019915D01*
X6305116Y1019027D01*
X6304894Y1018250D01*
X6304783Y1017584D01*
X6304672Y1016918D01*
Y1016474D01*
X6304783Y1015253D01*
X6305005Y1014032D01*
X6305449Y1012922D01*
X6305893Y1011812D01*
X6306337Y1010924D01*
X6306781Y1010258D01*
X6307003Y1009703D01*
X6307114Y1009592D01*
X6294349Y1004930D01*
X6293350Y1006706D01*
X6292684Y1008371D01*
X6292129Y1010036D01*
X6291796Y1011590D01*
X6291574Y1012811D01*
X6291463Y1013810D01*
Y1014698D01*
X6291574Y1016030D01*
X6291685Y1017140D01*
X6292018Y1018250D01*
X6292351Y1019138D01*
X6292684Y1019915D01*
X6292906Y1020581D01*
X6293128Y1020914D01*
X6293239Y1021025D01*
X6294016Y1022135D01*
X6295126Y1023134D01*
X6296347Y1024244D01*
X6297568Y1025132D01*
X6298789Y1026020D01*
X6299788Y1026686D01*
X6300454Y1027130D01*
X6300565Y1027241D01*
X6292684D01*
Y1040893D01*
X6348405D01*
Y1026131D01*
D02*
G37*
G36*
X6322987Y1001711D02*
X6325318Y1001489D01*
X6327538Y1001156D01*
X6329647Y1000712D01*
X6331534Y1000268D01*
X6333310Y999713D01*
X6334864Y999047D01*
X6336307Y998381D01*
X6337639Y997826D01*
X6338749Y997160D01*
X6339748Y996605D01*
X6340525Y996050D01*
X6341191Y995717D01*
X6341635Y995384D01*
X6341857Y995162D01*
X6341968Y995051D01*
X6343299Y993719D01*
X6344520Y992387D01*
X6345519Y990944D01*
X6346407Y989612D01*
X6347184Y988169D01*
X6347739Y986837D01*
X6348294Y985505D01*
X6348627Y984284D01*
X6348960Y983063D01*
X6349182Y981953D01*
X6349404Y981065D01*
X6349515Y980177D01*
X6349626Y979511D01*
Y978623D01*
X6349515Y976847D01*
X6349293Y975182D01*
X6348960Y973517D01*
X6348516Y972075D01*
X6348072Y970965D01*
X6347739Y969966D01*
X6347517Y969411D01*
X6347406Y969189D01*
X6346407Y967524D01*
X6345297Y965970D01*
X6344076Y964527D01*
X6342966Y963417D01*
X6341968Y962418D01*
X6341080Y961641D01*
X6340525Y961197D01*
X6340303Y961086D01*
X6348405D01*
Y947433D01*
X6271595D01*
Y962196D01*
X6299233D01*
X6297901Y963528D01*
X6296680Y964860D01*
X6295681Y966192D01*
X6294682Y967635D01*
X6294016Y968967D01*
X6293350Y970299D01*
X6292795Y971631D01*
X6292462Y972851D01*
X6292129Y974072D01*
X6291907Y975071D01*
X6291685Y976070D01*
X6291574Y976847D01*
X6291463Y977513D01*
Y978401D01*
X6291574Y980288D01*
X6291796Y982064D01*
X6292129Y983729D01*
X6292573Y985394D01*
X6293794Y988169D01*
X6294460Y989501D01*
X6295126Y990611D01*
X6295903Y991721D01*
X6296569Y992609D01*
X6297124Y993386D01*
X6297679Y994052D01*
X6298234Y994607D01*
X6298567Y994940D01*
X6298789Y995162D01*
X6298900Y995273D01*
X6300343Y996383D01*
X6301897Y997382D01*
X6303562Y998270D01*
X6305338Y999047D01*
X6307114Y999713D01*
X6308890Y1000268D01*
X6312442Y1001045D01*
X6313996Y1001267D01*
X6315550Y1001489D01*
X6316882Y1001600D01*
X6318103Y1001711D01*
X6319102Y1001822D01*
X6319768D01*
X6320323D01*
X6320434D01*
X6322987Y1001711D01*
D02*
G37*
G36*
X6348405Y883276D02*
Y866515D01*
X6271595Y839210D01*
Y855749D01*
X6328426Y874507D01*
X6271595Y894043D01*
Y910804D01*
X6348405Y883276D01*
D02*
G37*
G36*
X6302341Y826778D02*
X6300676Y823226D01*
X6299788Y821561D01*
X6298789Y820007D01*
X6297901Y818564D01*
X6297013Y817232D01*
X6296125Y816011D01*
X6295348Y814901D01*
X6294682Y814013D01*
X6294016Y813236D01*
X6293461Y812570D01*
X6293128Y812126D01*
X6292906Y811904D01*
X6292795Y811793D01*
X6348405D01*
Y797031D01*
X6271151D01*
Y809018D01*
X6273704Y810128D01*
X6276035Y811571D01*
X6278255Y813125D01*
X6280031Y814679D01*
X6281474Y816011D01*
X6282584Y817232D01*
X6283028Y817676D01*
X6283361Y818009D01*
X6283472Y818231D01*
X6283583Y818342D01*
X6285359Y820784D01*
X6286912Y823115D01*
X6288133Y825224D01*
X6289021Y827111D01*
X6289687Y828665D01*
X6290242Y829775D01*
X6290353Y830219D01*
X6290464Y830552D01*
X6290575Y830663D01*
Y830774D01*
X6303895D01*
X6302341Y826778D01*
D02*
G37*
G36*
X6348405Y757071D02*
X6333643D01*
Y771834D01*
X6348405D01*
Y757071D01*
D02*
G37*
G36*
X6314440Y744973D02*
X6318103Y744751D01*
X6321544Y744418D01*
X6324652Y743974D01*
X6327427Y743530D01*
X6329980Y742975D01*
X6332200Y742309D01*
X6334198Y741643D01*
X6335863Y741088D01*
X6337417Y740422D01*
X6338638Y739867D01*
X6339637Y739312D01*
X6340303Y738979D01*
X6340858Y738646D01*
X6341191Y738424D01*
X6341302Y738313D01*
X6342855Y736981D01*
X6344076Y735538D01*
X6345297Y734095D01*
X6346185Y732541D01*
X6347073Y731098D01*
X6347739Y729544D01*
X6348294Y728101D01*
X6348738Y726658D01*
X6349182Y725326D01*
X6349404Y724105D01*
X6349626Y722995D01*
X6349737Y722107D01*
Y721330D01*
X6349848Y720664D01*
Y720220D01*
X6349737Y718222D01*
X6349515Y716335D01*
X6349071Y714448D01*
X6348627Y712783D01*
X6348072Y711229D01*
X6347406Y709786D01*
X6346629Y708565D01*
X6345852Y707344D01*
X6345186Y706345D01*
X6344409Y705346D01*
X6343743Y704569D01*
X6343188Y703903D01*
X6342744Y703459D01*
X6342300Y703126D01*
X6342079Y702904D01*
X6341968Y702793D01*
X6340081Y701461D01*
X6337861Y700351D01*
X6335530Y699241D01*
X6332977Y698464D01*
X6330424Y697687D01*
X6327871Y697132D01*
X6325207Y696577D01*
X6322654Y696133D01*
X6320212Y695911D01*
X6317992Y695689D01*
X6315883Y695467D01*
X6314107Y695356D01*
X6312664Y695245D01*
X6311554D01*
X6311110D01*
X6310777D01*
X6310666D01*
X6310555D01*
X6306559Y695356D01*
X6302896Y695578D01*
X6299566Y695911D01*
X6296458Y696466D01*
X6293572Y697021D01*
X6291019Y697576D01*
X6288688Y698353D01*
X6286690Y699019D01*
X6284804Y699685D01*
X6283361Y700351D01*
X6282029Y701017D01*
X6280919Y701572D01*
X6280142Y702127D01*
X6279587Y702460D01*
X6279254Y702682D01*
X6279143Y702793D01*
X6277700Y704014D01*
X6276479Y705346D01*
X6275480Y706789D01*
X6274481Y708232D01*
X6273704Y709675D01*
X6273149Y711118D01*
X6272594Y712450D01*
X6272150Y713893D01*
X6271817Y715225D01*
X6271595Y716335D01*
X6271373Y717445D01*
X6271262Y718333D01*
X6271151Y719110D01*
Y720220D01*
X6271262Y722218D01*
X6271484Y724105D01*
X6271928Y725992D01*
X6272372Y727657D01*
X6273038Y729211D01*
X6273704Y730654D01*
X6274370Y731875D01*
X6275147Y733096D01*
X6275924Y734095D01*
X6276590Y735094D01*
X6277256Y735871D01*
X6277922Y736426D01*
X6278366Y736981D01*
X6278810Y737314D01*
X6279032Y737536D01*
X6279143Y737647D01*
X6281030Y738979D01*
X6283250Y740089D01*
X6285581Y741088D01*
X6288022Y741976D01*
X6290575Y742642D01*
X6293239Y743308D01*
X6295792Y743752D01*
X6298345Y744196D01*
X6300787Y744418D01*
X6303007Y744640D01*
X6305116Y744862D01*
X6306892Y744973D01*
X6308335Y745084D01*
X6309445D01*
X6309889D01*
X6310222D01*
X6310333D01*
X6310444D01*
X6314440Y744973D01*
D02*
G37*
G36*
X6348405Y667496D02*
X6333643D01*
Y682259D01*
X6348405D01*
Y667496D01*
D02*
G37*
G36*
X6329980Y655841D02*
X6331645Y655397D01*
X6334753Y654398D01*
X6337417Y653177D01*
X6338527Y652400D01*
X6339637Y651734D01*
X6340636Y651068D01*
X6341413Y650402D01*
X6342189Y649847D01*
X6342744Y649292D01*
X6343188Y648848D01*
X6343521Y648515D01*
X6343743Y648293D01*
X6343854Y648182D01*
X6344853Y646850D01*
X6345852Y645407D01*
X6346629Y644075D01*
X6347295Y642521D01*
X6348405Y639635D01*
X6349071Y636972D01*
X6349293Y635640D01*
X6349515Y634530D01*
X6349626Y633531D01*
X6349737Y632643D01*
X6349848Y631866D01*
Y630867D01*
X6349737Y628869D01*
X6349515Y626871D01*
X6349182Y625095D01*
X6348738Y623319D01*
X6348183Y621765D01*
X6347628Y620211D01*
X6346962Y618768D01*
X6346296Y617547D01*
X6345630Y616437D01*
X6344964Y615327D01*
X6344409Y614550D01*
X6343854Y613773D01*
X6343410Y613218D01*
X6343077Y612774D01*
X6342855Y612552D01*
X6342744Y612441D01*
X6341413Y611109D01*
X6339970Y609999D01*
X6338527Y609000D01*
X6337084Y608112D01*
X6335530Y607446D01*
X6334087Y606780D01*
X6331423Y605892D01*
X6330202Y605670D01*
X6328981Y605448D01*
X6327982Y605226D01*
X6327094Y605115D01*
X6326428Y605004D01*
X6325873D01*
X6325540D01*
X6325429D01*
X6322876Y605226D01*
X6320656Y605670D01*
X6318547Y606225D01*
X6316882Y607002D01*
X6315439Y607779D01*
X6314440Y608334D01*
X6313774Y608778D01*
X6313552Y609000D01*
X6311887Y610554D01*
X6310444Y612330D01*
X6309334Y614106D01*
X6308446Y615771D01*
X6307780Y617214D01*
X6307447Y618435D01*
X6307225Y618879D01*
Y619212D01*
X6307114Y619434D01*
Y619545D01*
X6305893Y617547D01*
X6304672Y615882D01*
X6303340Y614439D01*
X6302008Y613107D01*
X6300676Y611997D01*
X6299344Y611109D01*
X6298012Y610443D01*
X6296791Y609777D01*
X6295570Y609333D01*
X6294460Y609000D01*
X6293461Y608778D01*
X6292573Y608667D01*
X6291907Y608556D01*
X6291352Y608445D01*
X6291019D01*
X6290908D01*
X6289576Y608556D01*
X6288355Y608667D01*
X6285914Y609333D01*
X6283694Y610110D01*
X6281807Y611109D01*
X6280253Y612108D01*
X6279143Y612996D01*
X6278699Y613329D01*
X6278366Y613662D01*
X6278255Y613773D01*
X6278144Y613884D01*
X6276923Y615105D01*
X6275813Y616548D01*
X6274925Y617880D01*
X6274148Y619323D01*
X6273371Y620877D01*
X6272816Y622320D01*
X6272039Y625095D01*
X6271706Y626316D01*
X6271484Y627537D01*
X6271373Y628536D01*
X6271262Y629535D01*
X6271151Y630312D01*
Y631311D01*
X6271262Y633642D01*
X6271484Y635751D01*
X6271928Y637749D01*
X6272372Y639414D01*
X6272816Y640745D01*
X6273260Y641855D01*
X6273482Y642521D01*
X6273593Y642632D01*
Y642743D01*
X6274592Y644519D01*
X6275702Y646184D01*
X6276812Y647516D01*
X6277811Y648626D01*
X6278810Y649514D01*
X6279587Y650180D01*
X6280031Y650624D01*
X6280253Y650735D01*
X6281918Y651734D01*
X6283694Y652622D01*
X6285581Y653288D01*
X6287356Y653954D01*
X6289021Y654398D01*
X6290242Y654731D01*
X6290797Y654842D01*
X6291130D01*
X6291352Y654953D01*
X6291463D01*
X6293683Y641411D01*
X6291907Y641078D01*
X6290353Y640634D01*
X6289021Y640190D01*
X6288022Y639635D01*
X6287134Y639081D01*
X6286469Y638637D01*
X6286136Y638304D01*
X6286025Y638193D01*
X6285137Y637194D01*
X6284471Y636084D01*
X6284027Y634974D01*
X6283694Y633975D01*
X6283472Y633087D01*
X6283361Y632421D01*
Y631755D01*
X6283472Y630423D01*
X6283694Y629091D01*
X6284138Y628092D01*
X6284471Y627204D01*
X6284915Y626427D01*
X6285359Y625983D01*
X6285581Y625650D01*
X6285692Y625539D01*
X6286580Y624762D01*
X6287689Y624207D01*
X6288688Y623763D01*
X6289687Y623541D01*
X6290575Y623319D01*
X6291241Y623208D01*
X6291685D01*
X6291907D01*
X6293572Y623319D01*
X6295015Y623652D01*
X6296236Y624207D01*
X6297235Y624762D01*
X6298123Y625428D01*
X6298678Y625872D01*
X6299122Y626316D01*
X6299233Y626427D01*
X6300121Y627759D01*
X6300787Y629202D01*
X6301231Y630756D01*
X6301564Y632199D01*
X6301675Y633531D01*
X6301786Y634641D01*
Y635640D01*
X6313663Y637194D01*
X6313330Y635751D01*
X6312997Y634530D01*
X6312775Y633309D01*
X6312664Y632310D01*
X6312553Y631533D01*
Y630423D01*
X6312664Y628869D01*
X6313108Y627537D01*
X6313552Y626316D01*
X6314218Y625206D01*
X6314773Y624429D01*
X6315328Y623763D01*
X6315772Y623319D01*
X6315883Y623208D01*
X6317215Y622209D01*
X6318658Y621432D01*
X6320101Y620877D01*
X6321544Y620433D01*
X6322876Y620211D01*
X6323875Y620100D01*
X6324541D01*
X6324652D01*
X6324763D01*
X6326872Y620211D01*
X6328759Y620544D01*
X6330424Y621099D01*
X6331756Y621654D01*
X6332755Y622320D01*
X6333532Y622764D01*
X6334087Y623208D01*
X6334198Y623319D01*
X6335308Y624540D01*
X6336196Y625872D01*
X6336751Y627093D01*
X6337195Y628314D01*
X6337417Y629424D01*
X6337528Y630201D01*
X6337639Y630756D01*
Y630978D01*
X6337528Y632532D01*
X6337195Y633864D01*
X6336751Y635085D01*
X6336196Y636195D01*
X6335752Y636972D01*
X6335308Y637638D01*
X6334975Y638082D01*
X6334864Y638193D01*
X6333643Y639192D01*
X6332311Y640079D01*
X6330868Y640634D01*
X6329536Y641189D01*
X6328315Y641522D01*
X6327316Y641744D01*
X6326650Y641855D01*
X6326539D01*
X6326428D01*
X6328204Y656063D01*
X6329980Y655841D01*
D02*
G37*
%LPC*%
G36*
X6083955Y1277605D02*
X6069848D01*
Y1262289D01*
X6070251D01*
Y1261080D01*
X6070654D01*
Y1260677D01*
X6071057D01*
Y1259871D01*
X6071460D01*
Y1259468D01*
X6071863D01*
Y1259065D01*
X6072670D01*
Y1258662D01*
X6073476D01*
Y1258259D01*
X6074685D01*
Y1257856D01*
X6079118D01*
Y1258259D01*
X6080327D01*
Y1258662D01*
X6081133D01*
Y1259065D01*
X6081939D01*
Y1259468D01*
X6082342D01*
Y1259871D01*
X6082745D01*
Y1260677D01*
X6083148D01*
Y1261080D01*
X6083551D01*
Y1262289D01*
X6083955D01*
Y1277605D01*
D02*
G37*
G36*
X6111764D02*
X6094837D01*
Y1261886D01*
X6095240D01*
Y1260677D01*
X6095643D01*
Y1260274D01*
X6096046D01*
Y1259468D01*
X6096449D01*
Y1259065D01*
X6096852D01*
Y1258662D01*
X6097658D01*
Y1258259D01*
X6098464D01*
Y1257856D01*
X6099270D01*
Y1257453D01*
X6100882D01*
Y1257050D01*
X6106525D01*
Y1257453D01*
X6107734D01*
Y1257856D01*
X6108540D01*
Y1258259D01*
X6109346D01*
Y1258662D01*
X6109749D01*
Y1259065D01*
X6110152D01*
Y1259468D01*
X6110555D01*
Y1259871D01*
X6110958D01*
Y1260677D01*
X6111361D01*
Y1261483D01*
X6111764D01*
Y1277605D01*
D02*
G37*
G36*
X6087582Y1225613D02*
X6069848D01*
Y1209088D01*
X6070251D01*
Y1208282D01*
X6070654D01*
Y1207476D01*
X6071057D01*
Y1207073D01*
X6071460D01*
Y1206670D01*
X6071863D01*
Y1206267D01*
X6072670D01*
Y1205864D01*
X6073476D01*
Y1205461D01*
X6075491D01*
Y1205058D01*
X6082342D01*
Y1205461D01*
X6084358D01*
Y1205864D01*
X6085164D01*
Y1206267D01*
X6085970D01*
Y1206670D01*
X6086373D01*
Y1207073D01*
X6086776D01*
Y1207879D01*
X6087179D01*
Y1208685D01*
X6087582D01*
Y1225613D01*
D02*
G37*
G36*
X6097658Y1164754D02*
X6096449D01*
Y1164351D01*
X6095240D01*
Y1163948D01*
X6094030D01*
Y1163545D01*
X6092821D01*
Y1163142D01*
X6091612D01*
Y1162739D01*
X6090403D01*
Y1162336D01*
X6089194D01*
Y1161933D01*
X6087985D01*
Y1161530D01*
X6086776D01*
Y1161127D01*
X6085567D01*
Y1160724D01*
X6084358D01*
Y1160321D01*
X6083148D01*
Y1159918D01*
X6081939D01*
Y1159515D01*
X6080730D01*
Y1159112D01*
X6079521D01*
Y1158709D01*
X6078312D01*
Y1158306D01*
X6077103D01*
Y1157902D01*
X6075894D01*
Y1157499D01*
X6076700D01*
Y1157096D01*
X6077909D01*
Y1156693D01*
X6079118D01*
Y1156290D01*
X6080327D01*
Y1155887D01*
X6081536D01*
Y1155484D01*
X6083148D01*
Y1155081D01*
X6084358D01*
Y1154678D01*
X6085567D01*
Y1154275D01*
X6086776D01*
Y1153872D01*
X6087985D01*
Y1153469D01*
X6089597D01*
Y1153066D01*
X6090806D01*
Y1152663D01*
X6092015D01*
Y1152260D01*
X6093224D01*
Y1151857D01*
X6094434D01*
Y1151454D01*
X6096046D01*
Y1151051D01*
X6097255D01*
Y1150648D01*
X6097658D01*
Y1164754D01*
D02*
G37*
G36*
X6088388Y1111553D02*
X6069848D01*
Y1095835D01*
X6070251D01*
Y1094626D01*
X6070654D01*
Y1094223D01*
X6071057D01*
Y1093820D01*
X6071460D01*
Y1093416D01*
X6071863D01*
Y1093013D01*
X6072266D01*
Y1092610D01*
X6073072D01*
Y1092207D01*
X6073879D01*
Y1091804D01*
X6075894D01*
Y1091401D01*
X6082342D01*
Y1091804D01*
X6083955D01*
Y1092207D01*
X6085164D01*
Y1092610D01*
X6085970D01*
Y1093013D01*
X6086373D01*
Y1093416D01*
X6086776D01*
Y1093820D01*
X6087179D01*
Y1094223D01*
X6087582D01*
Y1095029D01*
X6087985D01*
Y1097447D01*
X6088388D01*
Y1111553D01*
D02*
G37*
G36*
X6311221Y1492544D02*
X6310555D01*
X6310111D01*
X6310000D01*
X6307558Y1492433D01*
X6305338Y1492322D01*
X6303229Y1491989D01*
X6301231Y1491656D01*
X6299455Y1491212D01*
X6297790Y1490768D01*
X6296347Y1490213D01*
X6295015Y1489658D01*
X6293794Y1489103D01*
X6292795Y1488548D01*
X6292018Y1488104D01*
X6291241Y1487660D01*
X6290686Y1487327D01*
X6290353Y1486994D01*
X6290131Y1486883D01*
X6290020Y1486772D01*
X6288799Y1485662D01*
X6287800Y1484441D01*
X6286912Y1483109D01*
X6286136Y1481888D01*
X6285470Y1480556D01*
X6285026Y1479224D01*
X6284138Y1476782D01*
X6283694Y1474562D01*
X6283583Y1473674D01*
X6283472Y1472786D01*
X6283361Y1472120D01*
Y1471233D01*
X6283472Y1469457D01*
X6283694Y1467792D01*
X6283916Y1466238D01*
X6284360Y1464795D01*
X6285470Y1462242D01*
X6286025Y1461021D01*
X6286580Y1460022D01*
X6287245Y1459023D01*
X6287800Y1458246D01*
X6288355Y1457580D01*
X6288910Y1456914D01*
X6289354Y1456470D01*
X6289576Y1456137D01*
X6289798Y1456026D01*
X6289909Y1455915D01*
X6291241Y1454916D01*
X6292684Y1453917D01*
X6294127Y1453140D01*
X6295792Y1452474D01*
X6299122Y1451475D01*
X6302341Y1450809D01*
X6303784Y1450476D01*
X6305227Y1450365D01*
X6306448Y1450254D01*
X6307558Y1450143D01*
X6308557Y1450032D01*
X6309223D01*
X6309667D01*
X6309778D01*
X6312220Y1450143D01*
X6314551Y1450254D01*
X6316660Y1450587D01*
X6318547Y1450920D01*
X6320434Y1451364D01*
X6322099Y1451919D01*
X6323542Y1452474D01*
X6324874Y1453029D01*
X6326095Y1453584D01*
X6327094Y1454139D01*
X6327982Y1454583D01*
X6328759Y1455138D01*
X6329314Y1455471D01*
X6329647Y1455804D01*
X6329869Y1455915D01*
X6329980Y1456026D01*
X6331201Y1457136D01*
X6332200Y1458357D01*
X6333088Y1459689D01*
X6333865Y1460910D01*
X6334420Y1462242D01*
X6334975Y1463463D01*
X6335752Y1465905D01*
X6336307Y1468014D01*
X6336418Y1468902D01*
X6336529Y1469679D01*
X6336640Y1470345D01*
Y1471233D01*
X6336529Y1472897D01*
X6336307Y1474562D01*
X6335974Y1476116D01*
X6335530Y1477559D01*
X6334531Y1480223D01*
X6333199Y1482332D01*
X6332644Y1483331D01*
X6331978Y1484108D01*
X6331423Y1484885D01*
X6330868Y1485440D01*
X6330535Y1485884D01*
X6330202Y1486217D01*
X6329980Y1486439D01*
X6329869Y1486550D01*
X6328537Y1487549D01*
X6327094Y1488548D01*
X6325540Y1489325D01*
X6323875Y1489991D01*
X6320656Y1491101D01*
X6317437Y1491767D01*
X6315883Y1491989D01*
X6314551Y1492211D01*
X6313219Y1492322D01*
X6312109Y1492433D01*
X6311221Y1492544D01*
D02*
G37*
G36*
X6306448Y1406299D02*
X6284582D01*
Y1394755D01*
X6284693Y1393645D01*
Y1392646D01*
X6284804Y1391647D01*
Y1390204D01*
X6284915Y1389094D01*
X6285026Y1388317D01*
X6285137Y1387873D01*
Y1387762D01*
X6285470Y1386430D01*
X6285914Y1385209D01*
X6286469Y1384099D01*
X6287134Y1383211D01*
X6287689Y1382545D01*
X6288133Y1381990D01*
X6288466Y1381657D01*
X6288577Y1381546D01*
X6289687Y1380658D01*
X6290797Y1380103D01*
X6292018Y1379659D01*
X6293128Y1379326D01*
X6294127Y1379104D01*
X6294904Y1378993D01*
X6295348D01*
X6295570D01*
X6296791Y1379104D01*
X6297901Y1379215D01*
X6298900Y1379548D01*
X6299788Y1379881D01*
X6300565Y1380214D01*
X6301120Y1380436D01*
X6301453Y1380658D01*
X6301564Y1380769D01*
X6302452Y1381435D01*
X6303229Y1382323D01*
X6303895Y1383100D01*
X6304450Y1383877D01*
X6304783Y1384543D01*
X6305116Y1385098D01*
X6305227Y1385542D01*
X6305338Y1385653D01*
X6305560Y1386319D01*
X6305671Y1387096D01*
X6306004Y1388872D01*
X6306226Y1390870D01*
X6306337Y1392868D01*
Y1394866D01*
X6306448Y1395643D01*
Y1406299D01*
D02*
G37*
G36*
X6317992Y1330709D02*
X6289465Y1320275D01*
X6317992Y1309508D01*
Y1330709D01*
D02*
G37*
G36*
X6302119Y1227370D02*
X6284360D01*
Y1211941D01*
X6284471Y1210720D01*
Y1207834D01*
X6284582Y1207168D01*
Y1205947D01*
X6284693Y1205503D01*
Y1205392D01*
X6284915Y1204060D01*
X6285248Y1202839D01*
X6285692Y1201840D01*
X6286136Y1200952D01*
X6286580Y1200397D01*
X6287023Y1199842D01*
X6287245Y1199620D01*
X6287356Y1199509D01*
X6288244Y1198843D01*
X6289243Y1198399D01*
X6290131Y1197955D01*
X6291019Y1197733D01*
X6291907Y1197622D01*
X6292573Y1197511D01*
X6293017D01*
X6293128D01*
X6294460Y1197622D01*
X6295681Y1197844D01*
X6296680Y1198288D01*
X6297568Y1198621D01*
X6298345Y1199065D01*
X6298789Y1199509D01*
X6299122Y1199731D01*
X6299233Y1199842D01*
X6300010Y1200730D01*
X6300565Y1201729D01*
X6301009Y1202728D01*
X6301342Y1203727D01*
X6301675Y1204726D01*
X6301786Y1205392D01*
X6301897Y1205836D01*
Y1206502D01*
X6302008Y1207168D01*
Y1210609D01*
X6302119Y1212496D01*
Y1227370D01*
D02*
G37*
G36*
X6335419D02*
X6314884D01*
Y1211275D01*
X6314995Y1209721D01*
X6315106Y1208389D01*
Y1207057D01*
X6315217Y1205947D01*
X6315328Y1204948D01*
X6315439Y1204171D01*
X6315550Y1203394D01*
X6315661Y1202839D01*
X6315772Y1201951D01*
X6315994Y1201396D01*
Y1201285D01*
X6316438Y1200175D01*
X6316993Y1199176D01*
X6317548Y1198288D01*
X6318214Y1197622D01*
X6318658Y1197067D01*
X6319102Y1196734D01*
X6319435Y1196512D01*
X6319546Y1196401D01*
X6320545Y1195846D01*
X6321544Y1195402D01*
X6322432Y1195069D01*
X6323431Y1194847D01*
X6324208Y1194736D01*
X6324874Y1194625D01*
X6325318D01*
X6325429D01*
X6326872Y1194736D01*
X6328204Y1194958D01*
X6329314Y1195291D01*
X6330202Y1195735D01*
X6330979Y1196179D01*
X6331534Y1196512D01*
X6331867Y1196734D01*
X6331978Y1196845D01*
X6332755Y1197733D01*
X6333421Y1198621D01*
X6333976Y1199620D01*
X6334420Y1200508D01*
X6334642Y1201285D01*
X6334864Y1201951D01*
X6334975Y1202395D01*
Y1202506D01*
X6335086Y1202950D01*
Y1203616D01*
X6335197Y1205059D01*
X6335308Y1206835D01*
Y1208611D01*
X6335419Y1210276D01*
Y1227370D01*
D02*
G37*
G36*
X6321322Y1153889D02*
X6320878D01*
X6320656D01*
X6320545D01*
X6317659Y1153667D01*
X6315106Y1153223D01*
X6312886Y1152668D01*
X6311110Y1151891D01*
X6309778Y1151225D01*
X6308668Y1150559D01*
X6308113Y1150115D01*
X6307891Y1150004D01*
X6306448Y1148450D01*
X6305338Y1146785D01*
X6304561Y1145120D01*
X6304006Y1143566D01*
X6303673Y1142234D01*
X6303562Y1141235D01*
X6303451Y1140791D01*
Y1140236D01*
X6303673Y1138128D01*
X6304117Y1136241D01*
X6304894Y1134687D01*
X6305671Y1133244D01*
X6306448Y1132134D01*
X6307225Y1131246D01*
X6307669Y1130802D01*
X6307891Y1130580D01*
X6309667Y1129248D01*
X6311776Y1128249D01*
X6313885Y1127583D01*
X6315883Y1127028D01*
X6317659Y1126806D01*
X6318547Y1126695D01*
X6319213D01*
X6319768Y1126584D01*
X6320212D01*
X6320434D01*
X6320545D01*
X6323431Y1126806D01*
X6326095Y1127250D01*
X6328204Y1127805D01*
X6330091Y1128582D01*
X6331423Y1129359D01*
X6332533Y1129914D01*
X6333088Y1130358D01*
X6333310Y1130580D01*
X6334753Y1132134D01*
X6335863Y1133688D01*
X6336529Y1135353D01*
X6337084Y1136907D01*
X6337417Y1138239D01*
X6337528Y1139237D01*
X6337639Y1139681D01*
Y1140236D01*
X6337417Y1142345D01*
X6336973Y1144232D01*
X6336307Y1145897D01*
X6335419Y1147229D01*
X6334642Y1148450D01*
X6333976Y1149338D01*
X6333532Y1149782D01*
X6333310Y1150004D01*
X6331534Y1151336D01*
X6329425Y1152224D01*
X6327316Y1152890D01*
X6325207Y1153445D01*
X6323431Y1153667D01*
X6322654Y1153778D01*
X6321877D01*
X6321322Y1153889D01*
D02*
G37*
G36*
X6332311Y1089177D02*
X6331867D01*
X6331756D01*
X6330646Y1089066D01*
X6329647Y1088733D01*
X6328759Y1088289D01*
X6327982Y1087734D01*
X6327427Y1087290D01*
X6326983Y1086846D01*
X6326761Y1086513D01*
X6326650Y1086402D01*
X6326206Y1085514D01*
X6325651Y1084404D01*
X6325207Y1083073D01*
X6324874Y1081741D01*
X6324541Y1080409D01*
X6324319Y1079410D01*
X6324208Y1078966D01*
X6324097Y1078633D01*
Y1078411D01*
X6323653Y1076191D01*
X6323209Y1074415D01*
X6322765Y1072750D01*
X6322432Y1071529D01*
X6322099Y1070530D01*
X6321988Y1069864D01*
X6321766Y1069420D01*
Y1069309D01*
X6324763D01*
X6326539D01*
X6328093Y1069420D01*
X6329314Y1069531D01*
X6330313Y1069642D01*
X6330979Y1069753D01*
X6331534Y1069864D01*
X6331756Y1069975D01*
X6331867D01*
X6332866Y1070308D01*
X6333865Y1070863D01*
X6334642Y1071418D01*
X6335419Y1071973D01*
X6335974Y1072528D01*
X6336418Y1072972D01*
X6336640Y1073305D01*
X6336751Y1073416D01*
X6337639Y1074748D01*
X6338194Y1076191D01*
X6338638Y1077412D01*
X6338971Y1078633D01*
X6339193Y1079632D01*
X6339304Y1080409D01*
Y1081075D01*
X6339193Y1082296D01*
X6338971Y1083517D01*
X6338638Y1084515D01*
X6338194Y1085292D01*
X6337750Y1086069D01*
X6337417Y1086513D01*
X6337195Y1086846D01*
X6337084Y1086957D01*
X6336196Y1087734D01*
X6335308Y1088289D01*
X6334420Y1088622D01*
X6333532Y1088844D01*
X6332866Y1089066D01*
X6332311Y1089177D01*
D02*
G37*
G36*
X6320878Y986726D02*
X6320323D01*
X6319768D01*
X6319546D01*
X6319435D01*
X6316549Y986615D01*
X6313996Y986171D01*
X6311887Y985616D01*
X6310111Y984950D01*
X6308779Y984395D01*
X6307780Y983840D01*
X6307225Y983396D01*
X6307003Y983285D01*
X6305560Y981842D01*
X6304561Y980399D01*
X6303784Y978956D01*
X6303340Y977513D01*
X6303007Y976403D01*
X6302896Y975404D01*
X6302785Y974738D01*
Y974516D01*
X6303007Y972630D01*
X6303451Y970854D01*
X6304117Y969411D01*
X6304894Y968079D01*
X6305671Y967080D01*
X6306337Y966414D01*
X6306781Y965859D01*
X6307003Y965748D01*
X6307891Y965082D01*
X6308779Y964527D01*
X6310999Y963639D01*
X6313219Y963084D01*
X6315550Y962640D01*
X6317548Y962418D01*
X6318547Y962307D01*
X6319324Y962196D01*
X6319990D01*
X6320434D01*
X6320767D01*
X6320878D01*
X6323875Y962307D01*
X6326539Y962751D01*
X6328759Y963306D01*
X6330535Y963972D01*
X6331978Y964638D01*
X6332977Y965193D01*
X6333532Y965637D01*
X6333754Y965748D01*
X6335197Y967191D01*
X6336196Y968634D01*
X6336973Y970077D01*
X6337417Y971409D01*
X6337750Y972630D01*
X6337861Y973517D01*
X6337972Y974183D01*
Y974405D01*
X6337861Y975515D01*
X6337750Y976625D01*
X6337084Y978623D01*
X6336196Y980288D01*
X6335086Y981731D01*
X6334087Y982841D01*
X6333199Y983618D01*
X6332533Y984062D01*
X6332422Y984284D01*
X6332311D01*
X6331534Y984728D01*
X6330646Y985061D01*
X6328648Y985727D01*
X6326428Y986171D01*
X6324319Y986393D01*
X6322432Y986615D01*
X6321655D01*
X6320878Y986726D01*
D02*
G37*
G36*
X6313885Y729544D02*
X6312775D01*
X6311887D01*
X6311110D01*
X6310666D01*
X6310555D01*
X6308113D01*
X6305782Y729433D01*
X6303784D01*
X6301786Y729322D01*
X6300121Y729211D01*
X6298456Y729100D01*
X6297124Y728989D01*
X6295792Y728767D01*
X6294682Y728656D01*
X6293794Y728545D01*
X6293017Y728434D01*
X6292351Y728323D01*
X6291907Y728212D01*
X6291463D01*
X6291352Y728101D01*
X6291241D01*
X6289687Y727657D01*
X6288355Y727102D01*
X6287356Y726658D01*
X6286469Y726103D01*
X6285914Y725659D01*
X6285470Y725326D01*
X6285248Y725104D01*
X6285137Y724993D01*
X6284582Y724216D01*
X6284138Y723328D01*
X6283805Y722551D01*
X6283583Y721774D01*
X6283472Y721219D01*
X6283361Y720664D01*
Y720220D01*
X6283472Y719221D01*
X6283583Y718333D01*
X6283916Y717556D01*
X6284249Y716890D01*
X6284582Y716335D01*
X6284804Y715891D01*
X6285026Y715669D01*
X6285137Y715558D01*
X6285914Y714892D01*
X6286912Y714226D01*
X6288022Y713671D01*
X6289132Y713116D01*
X6290242Y712783D01*
X6291130Y712450D01*
X6291685Y712339D01*
X6291796Y712228D01*
X6291907D01*
X6292906Y712006D01*
X6294127Y711784D01*
X6295570Y711562D01*
X6297013Y711340D01*
X6300010Y711118D01*
X6303118Y711007D01*
X6304561Y710896D01*
X6306004D01*
X6307225Y710785D01*
X6308335D01*
X6309223D01*
X6310000D01*
X6310444D01*
X6310555D01*
X6312997D01*
X6315328Y710896D01*
X6317437D01*
X6319324Y711007D01*
X6321100Y711118D01*
X6322654Y711229D01*
X6324097Y711451D01*
X6325318Y711562D01*
X6326428Y711673D01*
X6327316Y711895D01*
X6328093Y712006D01*
X6328759Y712117D01*
X6329203Y712228D01*
X6329647D01*
X6329758Y712339D01*
X6329869D01*
X6331423Y712783D01*
X6332644Y713338D01*
X6333754Y713893D01*
X6334531Y714337D01*
X6335197Y714781D01*
X6335641Y715225D01*
X6335863Y715447D01*
X6335974Y715558D01*
X6336529Y716335D01*
X6336973Y717112D01*
X6337195Y717889D01*
X6337417Y718666D01*
X6337528Y719221D01*
X6337639Y719776D01*
Y720220D01*
X6337528Y721219D01*
X6337417Y722107D01*
X6337084Y722884D01*
X6336751Y723550D01*
X6336529Y724105D01*
X6336196Y724549D01*
X6336085Y724771D01*
X6335974Y724882D01*
X6335197Y725548D01*
X6334198Y726214D01*
X6333088Y726769D01*
X6331978Y727324D01*
X6330979Y727657D01*
X6330091Y727990D01*
X6329536Y728101D01*
X6329314Y728212D01*
X6328204Y728434D01*
X6326983Y728656D01*
X6325651Y728878D01*
X6324208Y728989D01*
X6321100Y729211D01*
X6317992Y729322D01*
X6316549Y729433D01*
X6315106D01*
X6313885Y729544D01*
D02*
G37*
%LPD*%
D76*
X710000Y4996000D02*
X5802700D01*
X710000Y5504000D02*
X5802700D01*
X710000Y4996000D02*
Y5504000D01*
X5802700Y4996000D02*
Y5504000D01*
%TF.MD5,310eb97c481333f4bdde1d9ed1b822c6*%
M02*
