%TF.GenerationSoftware,Altium Limited,Altium Designer,25.8.1 (18)*%
G04 Layer_Color=16711935*
%FSLAX45Y45*%
%MOMM*%
%TF.SameCoordinates,BF0F68BB-AFD6-4D4C-9B9D-8FCE2B414C20*%
%TF.FilePolarity,Negative*%
%TF.FileFunction,Soldermask,Bot*%
%TF.Part,Single*%
G01*
G75*
%TA.AperFunction,ComponentPad*%
%ADD54C,1.49860*%
%TA.AperFunction,WasherPad*%
%ADD55C,3.00000*%
%TA.AperFunction,ComponentPad*%
%ADD94C,0.40000*%
%ADD95R,1.15000X1.15000*%
%ADD96C,1.15000*%
%ADD97R,2.50000X5.70000*%
%ADD98R,5.70000X2.90000*%
%ADD99R,1.72800X1.72800*%
%ADD100C,1.72800*%
%ADD101C,0.10000*%
%ADD102R,1.15000X1.15000*%
D54*
X4300000Y3750000D02*
D03*
Y3496000D02*
D03*
Y2988000D02*
D03*
Y2480000D02*
D03*
D55*
X350000Y350000D02*
D03*
X6150000D02*
D03*
X350000Y5250000D02*
D03*
X6150000D02*
D03*
D94*
X5015000Y4136500D02*
D03*
Y4186500D02*
D03*
Y4236500D02*
D03*
X4685000Y4136500D02*
D03*
Y4186500D02*
D03*
Y4236500D02*
D03*
X4915000Y4136500D02*
D03*
Y4186500D02*
D03*
Y4236500D02*
D03*
X4785000Y4136500D02*
D03*
Y4186500D02*
D03*
Y4236500D02*
D03*
D95*
X440001Y3853000D02*
D03*
Y1853000D02*
D03*
Y2853000D02*
D03*
D96*
Y4107000D02*
D03*
X313001Y3980000D02*
D03*
Y1980000D02*
D03*
X440001Y2107000D02*
D03*
Y3107000D02*
D03*
X313001Y2980000D02*
D03*
X943000Y440000D02*
D03*
X1070000Y313000D02*
D03*
X1943000Y440000D02*
D03*
X2070000Y313000D02*
D03*
X2943000Y440000D02*
D03*
X3070000Y313000D02*
D03*
X3943000Y440000D02*
D03*
X4070000Y313000D02*
D03*
X5070000D02*
D03*
X4943000Y440000D02*
D03*
D97*
X5460000Y3750000D02*
D03*
D98*
X5960000Y4100000D02*
D03*
Y3400000D02*
D03*
D99*
X837000Y5123000D02*
D03*
D100*
X1091000D02*
D03*
X1345000D02*
D03*
X1599000D02*
D03*
X1853000D02*
D03*
X2107000D02*
D03*
X837000Y5377000D02*
D03*
X1091000D02*
D03*
X1345000D02*
D03*
X1599000D02*
D03*
X1853000D02*
D03*
X2107000D02*
D03*
X2361000Y5123000D02*
D03*
Y5377000D02*
D03*
X2615000Y5123000D02*
D03*
X2869000D02*
D03*
X3123000D02*
D03*
X3377000D02*
D03*
X3631000D02*
D03*
X3885000D02*
D03*
X2615000Y5377000D02*
D03*
X2869000D02*
D03*
X3123000D02*
D03*
X3377000D02*
D03*
X3631000D02*
D03*
X3885000D02*
D03*
X4139000Y5123000D02*
D03*
Y5377000D02*
D03*
X4393000Y5123000D02*
D03*
X4647000D02*
D03*
X4901000D02*
D03*
X5155000D02*
D03*
X5409000D02*
D03*
X5663000D02*
D03*
X4393000Y5377000D02*
D03*
X4647000D02*
D03*
X4901000D02*
D03*
X5155000D02*
D03*
X5409000D02*
D03*
X5663000D02*
D03*
D101*
X5630800Y2296500D02*
D03*
Y2423500D02*
D03*
X5529200D02*
D03*
Y2296500D02*
D03*
X5580000Y2360000D02*
D03*
D102*
X1197000Y440000D02*
D03*
X2197000D02*
D03*
X3197000D02*
D03*
X4197000D02*
D03*
X5197000D02*
D03*
%TF.MD5,3099fbeca05b137d7daebb25902c8860*%
M02*
